<?xml version="1.0" standalone="no"?>
<!DOCTYPE svg PUBLIC "-//W3C//DTD SVG 20010904//EN"
 "http://www.w3.org/TR/2001/REC-SVG-20010904/DTD/svg10.dtd">
<svg version="1.0" xmlns="http://www.w3.org/2000/svg"
 width="200.000000pt" height="200.000000pt" viewBox="0 0 200.000000 200.000000"
 preserveAspectRatio="xMidYMid meet">

<g transform="translate(0.000000,200.000000) scale(0.100000,-0.100000)"
fill="#000000" stroke="none">
<path d="M1030 1675 c-305 -62 -582 -119 -614 -126 -78 -16 -132 -66 -141
-131 -3 -24 -5 -301 -3 -616 l3 -574 28 -24 c18 -16 41 -24 63 -24 57 0 1226
240 1258 258 16 10 38 30 50 45 21 28 21 36 24 637 l2 608 -22 27 c-14 16 -36
27 -58 30 -21 2 -260 -42 -590 -110z m213 -507 c36 -79 104 -225 151 -325 l84
-183 -87 0 -88 0 -78 185 c-43 102 -81 185 -84 185 -3 0 -40 -82 -82 -183
l-77 -182 -78 -6 c-44 -3 -82 -2 -87 1 -4 4 59 151 140 328 l148 322 36 0 36
0 66 -142z m-286 125 c-2 -5 -68 -149 -147 -320 l-143 -313 -73 0 c-41 0 -74
3 -74 6 0 6 251 556 277 607 13 26 17 27 89 27 41 0 73 -3 71 -7z"/>
</g>
</svg>
