<?xml version="1.0" encoding="utf-8"?>
<!-- Generator: Adobe Illustrator 19.2.1, SVG Export Plug-In . SVG Version: 6.00 Build 0)  -->
<svg version="1.1" id="layer" xmlns="http://www.w3.org/2000/svg" xmlns:xlink="http://www.w3.org/1999/xlink" x="0px" y="0px"
	 viewBox="0 0 652 652" style="enable-background:new 0 0 652 652;" xml:space="preserve">
<style type="text/css">
	.st0{fill:#00539F;}
	.st1{fill:#00A0E0;}
	.st2{fill:#FFFFFF;}
</style>
<g>
	<g>
		<path class="st0" d="M164.9,260.2c0.9,0.3,0.4,1.2,0,1.5c-28.8,32.9-57.2,64.9-84.8,97.8c-5.3,8.2-5.2,20.1,0.4,28.3
			c0.7,1.2,1.9,2,2.1,3.3c-16.3,0.6-31.5,0.4-47.1,0c-8.4-7-11.6-19.5-7.4-29.9c1.2-2,2-4.4,3.6-6.2c27.3-31.2,55.3-64.2,83.2-94.9
			C131,259.3,148.1,260.5,164.9,260.2"/>
	</g>
	<g>
		<path class="st1" d="M171.2,261.5c27.1,31.6,54.6,63.9,81.3,95.9c5.6,8.3,5.3,20.4,0.2,29c-1.7,2.9-3.6,5.1-6.5,5.6l-45.9,0
			l-0.2-0.7c6.9-8.1,8.5-20.7,3.9-30.2c-6.5-9.5-14.7-17.6-21.9-26.6l-36.9-43.6l0.2-1.7l24.5-27.8L171.2,261.5z"/>
		<path class="st0" d="M156.2,338.1c-2.5,9.2-10.8,16.5-14.7,24.7c-6.3-13-20.3-24.8-13.3-40.8c3.6-7.2,9.1-13.8,13.9-20.4
			C149.3,312.7,161.1,324,156.2,338.1"/>
	</g>
	<g>
		<path class="st0" d="M128.3,351.9c6.4,4.1,10.7,11.3,13.3,18.1c2.7-7.7,7.7-15.1,15.4-19.4c8.8-6.1,21.5-3.9,32.5-3.9
			c2.3,10-2.3,21-11.6,26.6c-7.4,6.1-19,2.7-27.8,6.2c-4.7,1.9-7,6.9-9.1,10.5c-1.6-6.5-7.5-11.3-14.5-12.3
			c-12.8,1.3-24.8-3.7-30.6-14.8c-2.6-4.8-3-10.7-2.4-16.2l0.5-0.3C105.7,346.4,118.8,344.8,128.3,351.9"/>
		<path class="st0" d="M607,392H253.4c0,0,3.2-2.5,5.9-9.5c2.5-6.8,2.4-14.6,0-22c-2.1-6.6-20.8-26.3-20.8-26.3H607
			c0,0,8.9-0.7,8.9,8.4c0,9.1,0,31.7,0,40.9C616,392.5,607,392,607,392"/>
	</g>
	<g>
		<path class="st1" d="M443,268.8c0.9,2.6-0.6,5.5,0.3,8.3c2,1.7,6.1-0.7,7.1,2.4c0,1.9,0.4,4-0.7,5.6c-2.1,1.9-5.6,0.1-7.4,2.6
			c-0.6,8-0.7,14.8-0.1,22.6c0.7,3.3,9.1,5.1,3.8,8.9c-5.9,0.6-12.7,1.8-17.7-1.7c-3.6-4.6-1.3-10.6-1.6-16.2
			c0.2-3.9,0.8-8.6-0.1-12.8c-1-1.7-3.3-1.1-4.8-1.5c-4.3,0.1-9.9-0.4-12.3,3.9l-0.6,1.4c0.1,6.5-0.9,13.8,0.1,19.9
			c0.6,2,3.4,3.4,2,5.8c-1.1,1.8-3.7,1.8-5.8,1.9c-4.2,0.2-8.1-0.2-12.1-0.3c-1-0.4-2.2-0.6-2.4-1.7c-0.9-2.3,1.9-3.5,2.4-5.4
			c1.2-8.7,1.1-17.8,0.3-27c-0.2-2.5-4.4-3.2-2.8-6.1c1-1.1,2.6-1.4,4.2-1.7c3.5-0.4,7.4-0.8,10.9-0.3c2.4,0.9,1.9,3.6,1.9,5.8
			c1.4,0.9,2.2-1.5,3.1-2.1c4.9-5.7,14.2-0.4,19.3-5.7c3.6-2.5,7-5.9,10.6-8C441.6,267.3,442.8,267.8,443,268.8"/>
		<path class="st1" d="M256.4,275.6c-1.2,0.2-2.2,1.1-2.5,2.1c-1.6,4.5-3.8,8.9-4,13.8c2.3,0.8,4.6,0.8,7.3,0.9
			c1.5-0.2,3.7,0.1,4.7-1.3c0.2-3-1.3-5.9-1.7-8.9C259.5,279.8,259.9,275.9,256.4,275.6 M267,262.8c1.2,0.5,2.1,1.7,2.6,2.8
			c4.5,14.9,8.1,30.2,12.5,45.2c0.6,1.3,1.2,3,2.7,3.6c0.8,0.3,1.6-0.1,2.2-0.5c1.5-1.6,1.2-4.1,1.5-6.2c0.4-9.7,0.6-21.6-0.4-31.8
			c0.8-3.7-7-6.8-0.9-9.4c4.3-1.7,8.6-3.8,13.2-5.1c1.2,0.1,2.7,0.1,3.3,1.5l0.3,1.6c-0.6,15.4-1.4,31.6-0.7,46.1
			c-0.5,3.4,5.2,4.9,2.4,8.4c-3.2,1.5-7.4,1.1-11.3,1.2l-24.1,0.2c-1.8-0.3-4-0.3-5.1-1.8c-1.3-3.5,3.7-5.8,1.2-9.6
			c-0.9-2.6-0.8-5.8-2.3-8c-3.8-0.9-8.5,0.5-11.9-1.2l-3.9-3.5l-0.8,0.1c-1.9,4.8-3.3,9.7-4.7,14.6c-1.9,3.4,2.9,4.7,1.6,7.6
			c-1,1.7-3.4,1.4-5.2,1.7c-3.3-0.4-7.9,0.6-8.7-3.2c0.9-4.9,3.4-9.2,4.8-13.8c4-9.5,7.3-19.1,11.2-28.7c0.7-2.6,2.9-6.1,0.5-8.6
			c-0.1-1.2-0.1-2.3,0.8-3.1c4.1-1.9,9.4-0.7,14-0.7L267,262.8z"/>
		<path class="st1" d="M482.3,279.6c2,2.8,0.3,6.6-1.3,9.2c-1.6,1.9-3.3,4.5-6.4,3.9c-1.2-0.2-2.4-0.6-2.7-1.7
			c0.1-2.3,3.1-4.2,1.2-6.5c-0.7-1-2.1-0.6-2.8-1.5c-2.5,0-5.5-0.2-6.8,2.2c-0.9,1.6,0,3.3,1.1,4.6c6.4,5.5,18.6,3.7,19.8,14.5
			c0.3,4.3-0.4,9.4-3.6,12.5c-5.3,4.7-13.8,4.1-20.9,3.6c-3.7-1.2-9.9,0-10.1-5.4c-0.2-3.1-1.7-8,1.4-9.8c4.5-0.5,3.9,4.8,7.4,6.1
			c3.4,2.1,8.1,3.1,12.1,1.5c1-0.8,1.2-2,1.2-3.3c-1.5-4.3-7-4.8-10.8-6.6c-4.8-1.5-10.3-4.4-10.8-10c-0.2-5.2-0.8-11.6,4.8-14.4
			c8.2-3.4,18.1-3.3,26.2,0.2L482.3,279.6z"/>
		<path class="st1" d="M565,277.6c1.7,2.1,2.6,4.4,3.2,6.9c2.9,9.2,4.7,18.9,8.1,27.8c0.8,0.9,1.7,1.5,2.9,2l0.3-0.3
			c0.5-2.9-1.4-6.5,1.5-8.2c0.8-0.1,1.4-0.1,2.2,0c2.3,2.1,3.9,5.5,7.3,6.4c3.2,0.8,7.2,1.6,10.2,0.1c1.4-0.6,1.6-1.9,1.8-3.2
			c-0.7-3.2-4.4-3.6-7.1-4.7c-5.2-1.7-11.2-2.8-14.4-7.8c-1.1-5.2-2.6-12.5,1.7-16.8c4.8-4.1,11.7-4,18-3.9
			c4.3,0.6,9.4,0.4,11.9,4.5c0.7,3.7-0.2,7.5-2.6,10.2c-2,1.4-4.3,2.8-7,1.9c-0.4-0.3-1.2-0.7-1.2-1.3c-0.4-2.2,1.9-3.5,1.4-5.5
			c-0.2-1.1-0.7-2.1-1.7-2.7c-2-0.6-4.6-0.7-6.3,0.7c-0.9,0.7-0.9,1.7-1.2,2.8c-0.3,2.6,2.2,4.3,4.3,5.5c6.2,2.7,16.3,3.1,17.3,11.7
			c0.4,5.4-0.4,11-5.4,14c-2.8,2.2-6.6,2.1-10.2,2.5c-6.4-0.3-14.1,1.2-19.5-2.9c-0.8,0-1,1.1-1.9,1.4c-4.6,1.5-9.3,1.2-14.3,0.9
			c-1.6-0.5-3.3-1.4-3.8-2.9c-2.4-8.5-4.1-17.5-6.8-25.8c-0.5-1.3-1.6-2.4-3.1-3c-1.2,0-2.4-0.1-3.2,0.8c-0.8,1-1.1,2.2-0.9,3.8
			c-0.2,6.3-0.3,13.4,0.8,19.8c0.8,1.8,3.2,3,2.3,5.4c-3.4,3.3-9.6,2-14.4,2.2c-1.9-0.4-4.6-0.4-5.1-2.8c-0.2-2,1.9-3.4,2.4-5.3
			c0.7-8.2,0.3-17.6-0.4-25.3c-0.1-2.5-4-4.1-2.4-6.8c2-1.9,4.8-2,7.4-2.5c2.9,0,6.7-1.4,8.8,1c0.5,1-0.1,2.4,1.1,3
			c3-0.9,5.7-2.9,8.6-4C558.4,276.1,562.6,275.2,565,277.6"/>
		<path class="st1" d="M502.4,284.2c-2.9,5.3-1.3,12.6-1.2,18.3c0.3,3.7,0.8,7.2,3.3,9.9c1.9,1.7,5,1,7.1,0.6v0.2
			c0.2-0.7,0.9-0.9,1.4-1.4c2.2-4.2,0.7-9.3,0.7-13.8c-0.8-4.7-0.4-10.4-3.7-14.2C507.9,282.6,504.3,282.8,502.4,284.2 M524.8,284
			c2.5,8.1,3.5,16.9,2.9,25.7c-0.6,4.3-3.6,8.7-8,9.8c-7.4,1.9-16.6,2.3-23.9,0.1c-9.7-3.9-9.4-15.4-9.3-24.2
			c0.6-6.5,1-13.6,7.2-17.2c7.1-3.1,16.7-2.1,24.2-0.7C521.1,278.4,523.7,281,524.8,284"/>
		<path class="st1" d="M328.5,287.6c-1.3,0.2-2.5,0.5-3.2,1.7c-1.3,4.2-0.7,8.3-0.9,12.3c0.2,3.8-0.7,8.2,1.6,11.4
			c1.4,0.8,3.1,1.3,4.8,0.9c1.7-0.5,3-1.4,3.9-2.9c1.5-4.8-0.2-9.9-1-14.6C332.4,293.1,332.4,288.8,328.5,287.6 M325,263.6
			c0.9,5.4,0,11.3-0.1,16.7c0.1,0.3,0.4,0.6,0.6,0.6c4.5-1.6,9.3-5.9,14.4-2.5c5,4.6,6,11.1,7.8,17c1.2,7.5,2.5,16.5-4,22.2
			c-2.7,2.1-6.3,1.9-9.6,2.6c-7.3,0.5-15.1,0.3-22.3-0.1c-1.3-0.3-2.5-0.9-3-2.2c0-1.8,0.9-3.3,1.6-4.7c1.1-12.3,1.1-24,0.3-36.2
			c0.6-3.1-5.4-4.1-1.8-7.1c4.3-2.9,8.8-5,13.5-6.9C323.4,262.8,324.3,263,325,263.6"/>
	</g>
	<g>
		<path class="st1" d="M376.6,302.7c-3.5,1-7.3,1.3-10.5,3.2c-0.3,2.9,0.9,5.7,3.1,7.5c2.1,1.2,4.5,0.9,6.8,0.3
			c3.2-2,4.6-5.6,4.1-9.3C379.9,302.8,378,302.5,376.6,302.7 M369.1,283.3c-3.2,1.6-3,5.5-3.4,8.7c0.2,2.1-0.8,5,1.5,6.2
			c2.9-0.2,6.6-0.3,8.3-2.8c1-3.9,0.5-8.2-1.6-11.4C372.7,282.9,370.7,282.9,369.1,283.3 M385.4,282.2c2.7,4.7,4.1,10.1,2.8,15.5
			c-0.9,2.1-3.4,2.4-5.3,3.4v0.4c2.1,1.5,5.3,2.2,5.4,5.3c0.4,4.8-2.5,9.5-7,11.7c-6.3,2.8-13.6,2.1-20.4,0.8
			c-2.5-1-5.5-2.2-6.7-4.9c-3.1-9.5-3-22.1,0.8-31.6c4.8-8.2,16.5-6.4,24.7-5.2C382.1,278.3,383.8,280,385.4,282.2"/>
		<path class="st1" d="M620.2,276.6c0.9,0,2.4,0.1,2.4-1.2c0-1-0.9-1.1-1.7-1.1l-1.9,0l0,2.3L620.2,276.6z M623.4,280.2l-1,0l-1.9-3
			l-1.5,0l0,3l-0.8,0l-0.1-6.5l2.9,0c0.6,0,1.1,0,1.6,0.3c0.5,0.3,0.8,0.8,0.8,1.4c0,1.3-0.9,1.8-2.1,1.8L623.4,280.2z M625.6,277
			c0-2.8-2.4-5-5.3-5c-2.9,0-5.2,2.3-5.2,5.1c0,2.8,2.4,5.1,5.3,5.1C623.3,282.1,625.6,279.8,625.6,277 M614.4,277.1
			c0-3.2,2.6-5.8,5.9-5.8c3.3,0,6,2.5,6,5.7c0,3.2-2.6,5.8-5.9,5.8C617.1,282.8,614.4,280.3,614.4,277.1"/>
	</g>
	<g>
		<path class="st2" d="M403,344.3c1.3,0,2.5,0.2,3.6,0.5c1.1,0.3,2.2,0.7,3.2,1.2c0.3,0.1,0.6,0.3,0.9,0.4c0.3,0.1,0.5,0.2,0.7,0.2
			c0.5,0,0.8-0.3,0.9-0.8c0-0.1,0.1-0.2,0.3-0.2c0.2-0.1,0.3-0.1,0.5-0.1c0.2,0,0.3,0,0.4,0.1c0.1,0.1,0.2,0.1,0.1,0.3
			c-0.1,0.4-0.2,0.9-0.2,1.4c0,0.5-0.1,1-0.1,1.5c0,0.8,0.1,1.5,0.2,2.3c0.1,0.8,0.2,1.6,0.3,2.4c0,0.1-0.1,0.2-0.2,0.3
			c-0.1,0.1-0.3,0.1-0.5,0.1c-0.2,0-0.4,0-0.5-0.1c-0.2-0.1-0.3-0.2-0.3-0.3c-0.7-2.5-1.9-4.3-3.5-5.5c-1.6-1.2-3.6-1.8-6.1-1.8
			c-1.9,0-3.5,0.4-4.7,1.2c-1.2,0.8-2.2,1.8-3,3c-0.7,1.2-1.2,2.6-1.5,4c-0.3,1.5-0.4,2.9-0.4,4.3c0,1.6,0.2,3.1,0.5,4.7
			c0.3,1.6,0.9,3,1.7,4.2c0.8,1.3,1.8,2.3,3,3.1c1.2,0.8,2.8,1.2,4.5,1.2c1.4,0,2.6-0.1,3.7-0.3c1.1-0.2,2-0.7,2.8-1.3
			c0.9-0.8,1.7-1.8,2.2-2.9c0.5-1.1,0.9-2.4,1.2-3.8c0-0.2,0.1-0.3,0.3-0.4c0.2-0.1,0.3-0.1,0.5,0c0.2,0,0.3,0.1,0.5,0.2
			c0.1,0.1,0.2,0.2,0.2,0.3c-0.1,0.6-0.1,1.1-0.2,1.6c0,0.5,0,1.1,0,1.6c0,0.9,0,1.9,0.1,2.9c0.1,1,0.1,2,0.2,3.1
			c0,0.2-0.1,0.3-0.2,0.4c-0.1,0.1-0.3,0.1-0.4,0.1c-0.2,0-0.3,0-0.5-0.1c-0.1-0.1-0.2-0.2-0.3-0.3c-0.1-0.3-0.2-0.5-0.3-0.7
			c-0.1-0.2-0.3-0.4-0.6-0.6c-0.2-0.2-0.5-0.2-0.8-0.2c-0.3,0-0.6,0.1-1,0.3c-0.6,0.3-1.2,0.6-1.8,0.9c-0.6,0.2-1.2,0.4-1.8,0.6
			c-0.6,0.1-1.2,0.2-1.9,0.3c-0.7,0.1-1.4,0.1-2.1,0.1c-5.1,0-8.9-1.2-11.3-3.7c-2.5-2.5-3.7-6-3.7-10.6c0-2.4,0.4-4.6,1.2-6.5
			c0.8-1.9,1.8-3.4,3.2-4.7c1.4-1.3,3-2.2,4.9-2.8C398.8,344.6,400.8,344.3,403,344.3"/>
		<path class="st2" d="M438.1,363c0,1.7-0.2,3.2-0.7,4.5c-0.5,1.3-1.2,2.4-2.1,3.3c-0.9,0.9-2,1.6-3.3,2c-1.3,0.5-2.7,0.7-4.2,0.7
			c-1.3,0-2.6-0.2-3.7-0.6c-1.2-0.4-2.1-1.1-3-1.9c-0.8-0.8-1.5-1.9-2-3.2c-0.5-1.3-0.7-2.8-0.7-4.6c0-1.4,0.2-2.7,0.7-3.9
			c0.5-1.2,1.2-2.2,2-3c0.9-0.8,1.9-1.5,3.2-2c1.2-0.5,2.6-0.7,4.1-0.7c1.4,0,2.7,0.2,3.9,0.6c1.2,0.4,2.2,1,3.1,1.8
			c0.9,0.8,1.5,1.8,2,2.9C437.8,360.1,438.1,361.5,438.1,363 M433.6,363.5c0-1.1-0.1-2.1-0.2-3.1c-0.1-1-0.4-1.9-0.8-2.7
			c-0.4-0.8-0.9-1.4-1.5-1.9c-0.7-0.5-1.5-0.7-2.5-0.7c-1.2,0-2.1,0.2-2.8,0.7c-0.7,0.5-1.3,1.1-1.7,1.9c-0.4,0.8-0.7,1.7-0.9,2.7
			c-0.2,1-0.2,2-0.2,3.1c0,0.9,0.1,1.9,0.2,2.9c0.1,1,0.4,1.9,0.8,2.7c0.4,0.8,1,1.5,1.7,2c0.7,0.5,1.6,0.8,2.7,0.8
			c1.1,0,2-0.3,2.7-0.8c0.7-0.5,1.2-1.2,1.6-2c0.4-0.8,0.6-1.7,0.8-2.7C433.5,365.5,433.6,364.5,433.6,363.5"/>
		<path class="st2" d="M449,368c0,0.7,0,1.3,0.1,1.7c0,0.5,0.1,0.9,0.3,1.2c0.2,0.3,0.5,0.5,0.8,0.7c0.4,0.2,0.9,0.3,1.6,0.4
			c0.2,0,0.3,0.1,0.3,0.2c0.1,0.1,0.1,0.3,0.1,0.4c0,0.1,0,0.3-0.1,0.4c-0.1,0.1-0.2,0.2-0.3,0.2c-0.3,0-0.6,0-1,0
			c-0.4,0-0.8-0.1-1.2-0.1c-0.4,0-0.8-0.1-1.3-0.1c-0.4,0-0.9,0-1.3,0c-0.9,0-1.8,0-2.7,0.1c-0.9,0.1-1.7,0.1-2.4,0.1
			c-0.1,0-0.2-0.1-0.3-0.2c-0.1-0.1-0.1-0.3-0.1-0.4c0-0.1,0-0.3,0.1-0.4c0.1-0.1,0.2-0.2,0.3-0.2c0.7-0.1,1.3-0.2,1.7-0.4
			c0.4-0.2,0.7-0.4,0.8-0.7c0.2-0.3,0.3-0.6,0.3-1.1c0-0.4,0-1,0-1.6v-6.2c0-1.2,0-2.2-0.1-2.9c0-0.8-0.1-1.4-0.3-1.9
			c-0.2-0.5-0.5-0.8-0.9-1c-0.4-0.2-1-0.3-1.7-0.4c-0.1,0-0.2-0.1-0.3-0.2c-0.1-0.1-0.1-0.3-0.1-0.5c0-0.1,0-0.3,0.1-0.4
			c0.1-0.1,0.2-0.2,0.3-0.2c0.7,0,1.4-0.1,2.1-0.2c0.7-0.1,1.3-0.2,1.9-0.3c0.6-0.1,1-0.2,1.4-0.3c0.4-0.1,0.7-0.1,0.8-0.1
			c0.6,0,0.9,0.3,0.9,1c0,0.1,0,0.2-0.1,0.4c0,0.2-0.1,0.4-0.1,0.7c-0.1,0.3-0.1,0.5-0.1,0.8c0,0.3-0.1,0.5-0.1,0.6
			c0,0.1,0,0.1,0.1,0.1s0.1,0,0.1-0.1c0.1-0.2,0.3-0.5,0.7-1c0.4-0.4,0.8-0.8,1.4-1.3c0.6-0.4,1.3-0.8,2.1-1.1
			c0.8-0.3,1.7-0.5,2.7-0.5c1.7,0,3.1,0.4,4.1,1.1c1,0.7,1.7,1.7,2.1,3c0.1,0.1,0.1,0.1,0.2,0c0.3-0.5,0.7-1,1.1-1.5
			c0.5-0.5,1-0.9,1.7-1.3c0.6-0.4,1.3-0.7,2.1-0.9c0.8-0.2,1.6-0.4,2.4-0.4c1.4,0,2.5,0.2,3.4,0.6c0.9,0.4,1.5,0.9,2,1.6
			c0.5,0.7,0.8,1.5,1,2.5c0.2,1,0.3,2,0.3,3.1v6.6c0,0.7,0,1.3,0,1.7c0,0.5,0.1,0.9,0.3,1.2c0.1,0.3,0.4,0.5,0.7,0.7
			c0.3,0.2,0.8,0.3,1.4,0.4c0.2,0,0.3,0.1,0.3,0.2c0.1,0.1,0.1,0.3,0.1,0.4c0,0.1,0,0.3-0.1,0.4c-0.1,0.1-0.2,0.2-0.3,0.2
			c-0.2,0-0.4,0-0.7,0c-0.3,0-0.6-0.1-1-0.1c-0.4-0.1-0.8-0.1-1.2-0.1c-0.4,0-0.8,0-1.3,0c-0.9,0-1.8,0-2.6,0.1
			c-0.8,0.1-1.6,0.1-2.3,0.1c-0.2,0-0.3-0.1-0.3-0.2c-0.1-0.1-0.1-0.3-0.1-0.4c0-0.1,0-0.3,0.1-0.4c0.1-0.1,0.2-0.2,0.4-0.2
			c0.7-0.1,1.2-0.2,1.6-0.4c0.4-0.2,0.6-0.4,0.8-0.7c0.2-0.3,0.3-0.7,0.3-1.1c0-0.4,0-1,0-1.6v-5.4c0-0.7,0-1.5-0.1-2.3
			c-0.1-0.8-0.2-1.5-0.5-2.2c-0.2-0.7-0.6-1.2-1.1-1.6c-0.5-0.4-1.2-0.7-2.1-0.7c-0.8,0-1.6,0.2-2.3,0.5c-0.7,0.3-1.3,0.8-1.8,1.4
			c-0.5,0.6-0.9,1.3-1.2,2c-0.3,0.8-0.5,1.6-0.5,2.5v5.6c0,0.8,0,1.4,0,1.9c0,0.5,0.1,0.9,0.3,1.1c0.2,0.3,0.4,0.5,0.7,0.6
			c0.3,0.1,0.8,0.2,1.4,0.3c0.2,0,0.3,0.1,0.3,0.2c0.1,0.1,0.1,0.3,0.1,0.4c0,0.1,0,0.3-0.1,0.4c-0.1,0.1-0.2,0.2-0.3,0.2
			c-0.2,0-0.4,0-0.7,0c-0.3,0-0.6-0.1-1-0.1c-0.4-0.1-0.8-0.1-1.2-0.1c-0.4,0-0.8,0-1.3,0c-0.9,0-1.8,0-2.6,0.1
			c-0.8,0.1-1.5,0.1-2.1,0.1c-0.1,0-0.2-0.1-0.3-0.2c-0.1-0.1-0.1-0.2-0.1-0.4c0-0.1,0-0.3,0.1-0.4c0.1-0.1,0.2-0.2,0.3-0.2
			c0.6-0.1,1.1-0.2,1.5-0.3c0.4-0.1,0.6-0.3,0.8-0.6c0.2-0.3,0.3-0.6,0.3-1.1c0-0.5,0.1-1.1,0.1-1.8v-5.4c0-0.7,0-1.5-0.1-2.3
			c-0.1-0.8-0.2-1.5-0.5-2.2c-0.3-0.7-0.7-1.2-1.2-1.6c-0.5-0.4-1.2-0.7-2.2-0.7c-1,0-1.8,0.2-2.5,0.5c-0.7,0.3-1.3,0.7-1.7,1.3
			c-0.5,0.5-0.8,1.2-1,1.9c-0.2,0.7-0.3,1.5-0.3,2.3V368z"/>
		<path class="st2" d="M485.4,363c0-1.4,0-2.5-0.1-3.4c0-0.9-0.2-1.6-0.3-2.1c-0.2-0.5-0.5-0.9-0.9-1.1c-0.4-0.2-1-0.4-1.7-0.4
			c-0.1,0-0.2-0.1-0.3-0.2c-0.1-0.1-0.1-0.3-0.1-0.4c0-0.1,0-0.3,0.1-0.4c0.1-0.1,0.1-0.2,0.3-0.2c1.8-0.1,3.2-0.3,4.3-0.5
			c1.1-0.2,1.8-0.3,2.1-0.3c0.3,0,0.5,0.1,0.6,0.2c0.1,0.2,0.1,0.3,0.1,0.5c0,0.2,0,0.5-0.1,1c-0.1,0.4-0.1,0.9-0.1,1.2
			c0,0.1,0,0.1,0.1,0.1c0.1,0,0.1,0,0.1-0.1c0.5-0.9,1.4-1.6,2.4-2.3s2.3-1,3.8-1c1.3,0,2.4,0.3,3.4,0.8c1,0.5,1.8,1.2,2.4,2.1
			c0.7,0.9,1.1,1.9,1.5,3c0.3,1.1,0.5,2.3,0.5,3.5c0,1.5-0.2,2.9-0.7,4.2c-0.4,1.3-1.1,2.4-1.9,3.3c-0.8,0.9-1.8,1.7-2.9,2.2
			c-1.1,0.5-2.4,0.8-3.8,0.8c-0.9,0-1.7-0.1-2.4-0.2c-0.7-0.1-1.4-0.3-2.1-0.5c-0.1-0.1-0.2-0.1-0.3,0c0,0.1,0,0.2,0,0.4v6.4
			c0,0.7,0,1.3,0.1,1.8c0,0.5,0.2,0.9,0.4,1.2c0.2,0.3,0.6,0.5,1.1,0.7c0.5,0.2,1.2,0.3,2.1,0.4c0.2,0,0.3,0.1,0.4,0.2
			c0.1,0.1,0.1,0.3,0.1,0.4c0,0.1,0,0.3-0.1,0.4c-0.1,0.1-0.2,0.2-0.3,0.2c-1.3,0-2.3-0.1-3.2-0.2c-0.8-0.1-1.6-0.2-2.5-0.2
			c-0.9,0-1.8,0.1-2.6,0.2c-0.9,0.1-1.8,0.2-2.7,0.2c-0.1,0-0.3-0.1-0.3-0.2c-0.1-0.1-0.1-0.3-0.1-0.4c0-0.1,0-0.3,0.1-0.4
			c0.1-0.1,0.2-0.2,0.4-0.2c0.8-0.1,1.4-0.2,1.9-0.4c0.4-0.2,0.8-0.4,1-0.7c0.2-0.3,0.3-0.7,0.3-1.1c0-0.4,0-1,0-1.6V363z
			 M489.4,368.5c0,0.2,0.1,0.5,0.3,0.9c0.2,0.4,0.5,0.7,0.9,1.1c0.4,0.4,0.9,0.7,1.4,0.9c0.6,0.3,1.2,0.4,1.9,0.4
			c0.9,0,1.7-0.2,2.3-0.7c0.6-0.4,1.1-1.1,1.5-1.8c0.4-0.8,0.7-1.7,0.8-2.7s0.3-2.1,0.3-3.2c0-2.4-0.3-4.1-1-5.3
			c-0.7-1.2-1.8-1.8-3.3-1.8c-0.7,0-1.4,0.1-2,0.3c-0.6,0.2-1.2,0.6-1.6,1c-0.4,0.4-0.8,0.9-1.1,1.5c-0.3,0.6-0.4,1.2-0.4,1.8V368.5
			z"/>
		<path class="st2" d="M522.9,368.6c0,1,0.1,1.7,0.3,2c0.2,0.4,0.6,0.6,1,0.6c0.3,0,0.6,0,0.8-0.1c0.2-0.1,0.5-0.2,0.9-0.4
			c0.1-0.1,0.3,0,0.6,0.2c0.2,0.3,0.3,0.5,0.1,0.7c-0.5,0.6-1.1,1-1.7,1.4c-0.7,0.4-1.4,0.5-2,0.5c-0.9,0-1.6-0.2-2.2-0.5
			c-0.6-0.3-1.1-0.9-1.4-1.7c-0.1-0.1-0.1-0.1-0.3,0c-0.8,0.6-1.7,1.2-2.6,1.6c-1,0.4-2.2,0.6-3.6,0.6c-1.7,0-2.9-0.4-3.8-1.3
			c-0.9-0.8-1.4-2-1.4-3.6c0-2,1-3.6,2.9-4.7c1.9-1.1,4.7-1.6,8.4-1.6c0,0,0.1,0,0.1,0c0,0,0-0.1,0-0.3c0-0.1,0-0.4,0-0.7
			c0-0.3,0-0.7,0-1.2c0-0.7-0.1-1.3-0.2-2c-0.1-0.6-0.3-1.1-0.6-1.6c-0.3-0.5-0.7-0.8-1.3-1.1c-0.5-0.3-1.2-0.4-2.1-0.4
			c-0.8,0-1.6,0.2-2.2,0.6c-0.6,0.4-0.9,0.9-0.9,1.6c0,0.3,0.1,0.6,0.3,0.9c0.2,0.3,0.3,0.6,0.3,0.9c0,0.4-0.2,0.8-0.6,1.1
			c-0.4,0.4-0.9,0.5-1.5,0.5c-0.8,0-1.3-0.2-1.7-0.6c-0.3-0.4-0.5-0.9-0.5-1.5c0-0.7,0.2-1.4,0.6-2c0.4-0.6,1-1.1,1.6-1.6
			c0.7-0.5,1.5-0.8,2.4-1.1c0.9-0.3,1.9-0.4,2.9-0.4c2.3,0,4.1,0.5,5.4,1.5c1.3,1,2,2.7,2,5.1V368.6z M518.9,364.4
			c0-0.3,0-0.5,0-0.6c0-0.1-0.1-0.1-0.2-0.1c-2.4,0.2-4.1,0.7-5.2,1.5c-1.1,0.8-1.7,1.8-1.7,3c0,0.4,0.1,0.8,0.2,1.2
			c0.1,0.4,0.3,0.7,0.5,0.9c0.2,0.3,0.5,0.5,0.9,0.6c0.4,0.1,0.8,0.2,1.3,0.2c0.7,0,1.4-0.1,2.1-0.4c0.7-0.3,1.4-0.6,2-1.1
			c0.2-0.2,0.3-0.4,0.3-0.7V364.4z"/>
		<path class="st2" d="M536.3,368c0,1.4,0.2,2.4,0.7,2.9c0.5,0.6,1.2,0.9,2.3,1.1c0.2,0,0.3,0.1,0.4,0.2c0.1,0.1,0.1,0.3,0.1,0.4
			c0,0.2,0,0.3-0.1,0.4c-0.1,0.1-0.2,0.2-0.4,0.2c-0.1,0-0.4,0-0.7,0c-0.4,0-0.8-0.1-1.3-0.1c-0.5,0-1-0.1-1.5-0.1
			c-0.5,0-1-0.1-1.4-0.1c-0.9,0-1.8,0-2.6,0.1s-1.6,0.1-2.4,0.1c-0.1,0-0.2-0.1-0.3-0.2c-0.1-0.1-0.1-0.3-0.1-0.4
			c0-0.1,0-0.3,0.1-0.4c0.1-0.1,0.2-0.2,0.4-0.2c0.7-0.1,1.2-0.2,1.6-0.4c0.4-0.1,0.7-0.3,0.8-0.6c0.2-0.3,0.3-0.6,0.3-1.1
			c0-0.4,0-1,0-1.7V363c0-1.4,0-2.5,0-3.4c0-0.9-0.1-1.6-0.3-2.1c-0.2-0.5-0.5-0.9-0.9-1.1c-0.4-0.2-1-0.3-1.8-0.4
			c-0.2,0-0.3-0.1-0.4-0.2c-0.1-0.1-0.1-0.3-0.1-0.4c0-0.1,0-0.3,0.1-0.4c0.1-0.1,0.1-0.2,0.3-0.2c1.6-0.1,3-0.3,4.2-0.5
			c1.1-0.2,1.8-0.3,2.2-0.3c0.3,0,0.5,0.1,0.7,0.2c0.1,0.2,0.2,0.4,0.2,0.6c0,0.1,0,0.2-0.1,0.4c0,0.2-0.1,0.5-0.1,0.8
			c-0.1,0.3-0.1,0.6-0.1,0.8c0,0.3-0.1,0.5-0.1,0.6c0,0.1,0,0.1,0.1,0.1c0,0,0.1,0,0.1-0.1c0.2-0.3,0.5-0.7,0.9-1.1
			c0.4-0.4,0.9-0.8,1.5-1.2c0.6-0.4,1.2-0.7,2-1c0.8-0.3,1.6-0.4,2.4-0.4c2,0,3.6,0.6,4.8,1.7c1.1,1.2,1.7,3,1.7,5.6v7.1
			c0,0.7,0,1.4,0.1,1.8c0.1,0.5,0.2,0.9,0.4,1.1c0.2,0.3,0.4,0.5,0.8,0.7c0.3,0.2,0.8,0.3,1.4,0.4c0.1,0,0.2,0.1,0.3,0.2
			c0.1,0.1,0.1,0.3,0.1,0.4c0,0.2,0,0.3-0.1,0.4c-0.1,0.1-0.2,0.2-0.3,0.2c-0.4,0-1,0-1.9-0.1c-0.9-0.1-1.8-0.1-2.6-0.1
			c-0.9,0-1.8,0-2.5,0.1c-0.8,0.1-1.4,0.1-1.9,0.1c-0.2,0-0.3-0.1-0.3-0.2c-0.1-0.1-0.1-0.3-0.1-0.4c0-0.1,0-0.3,0.1-0.4
			c0.1-0.1,0.2-0.2,0.3-0.2c0.6-0.1,1-0.2,1.3-0.4c0.3-0.2,0.6-0.4,0.7-0.7c0.2-0.3,0.3-0.6,0.3-1.1c0-0.4,0-1,0-1.6V362
			c0-0.7,0-1.4-0.1-2.1c0-0.7-0.2-1.3-0.4-1.9c-0.2-0.6-0.6-1-1.1-1.4c-0.5-0.4-1.1-0.5-2-0.5c-1.7,0-3,0.5-4,1.6
			c-0.9,1.1-1.4,2.6-1.4,4.6V368z"/>
		<path class="st2" d="M562.8,368c0,0.7,0,1.3,0.1,1.7c0,0.5,0.1,0.9,0.3,1.2c0.2,0.3,0.4,0.5,0.8,0.7c0.4,0.2,0.9,0.3,1.5,0.4
			c0.2,0,0.3,0.1,0.3,0.2c0.1,0.1,0.1,0.2,0.1,0.4c0,0.1,0,0.3-0.1,0.4c-0.1,0.1-0.2,0.2-0.3,0.2c-0.3,0-0.6,0-0.9,0
			c-0.4,0-0.7-0.1-1.1-0.1c-0.4,0-0.8-0.1-1.3-0.1c-0.4,0-0.9,0-1.3,0c-0.9,0-1.8,0-2.7,0.1c-0.9,0.1-1.7,0.1-2.5,0.1
			c-0.1,0-0.2-0.1-0.3-0.2c-0.1-0.1-0.1-0.3-0.1-0.4c0-0.1,0-0.3,0.1-0.4c0.1-0.1,0.2-0.2,0.3-0.2c0.8-0.1,1.3-0.2,1.8-0.4
			c0.4-0.2,0.7-0.4,0.9-0.7c0.2-0.3,0.3-0.7,0.3-1.1c0-0.4,0-1,0-1.6v-6.7c0-1.2,0-2.2-0.1-2.9c-0.1-0.7-0.2-1.2-0.4-1.6
			c-0.2-0.4-0.5-0.6-0.9-0.8c-0.4-0.1-0.9-0.3-1.6-0.3c-0.1,0-0.2-0.1-0.3-0.2c-0.1-0.1-0.1-0.3-0.1-0.4c0-0.1,0-0.3,0.1-0.4
			c0.1-0.1,0.2-0.2,0.3-0.2c0.6,0,1.3-0.1,2-0.2c0.7-0.1,1.3-0.2,1.9-0.3c0.6-0.1,1.1-0.2,1.5-0.3c0.4-0.1,0.7-0.1,0.8-0.1
			c0.4,0,0.6,0.1,0.7,0.3c0.1,0.2,0.1,0.4,0.1,0.5V368z M560.5,349.6c-0.7,0-1.3-0.2-1.9-0.7c-0.5-0.4-0.8-1-0.8-1.6
			c0-0.3,0.1-0.6,0.2-0.9c0.1-0.3,0.3-0.5,0.5-0.7c0.2-0.2,0.5-0.4,0.8-0.5c0.3-0.1,0.6-0.2,1-0.2c0.3,0,0.6,0.1,0.9,0.2
			c0.3,0.1,0.5,0.3,0.7,0.5c0.2,0.2,0.4,0.5,0.5,0.7c0.1,0.3,0.2,0.6,0.2,0.9c0,0.3-0.1,0.6-0.2,0.9c-0.1,0.3-0.3,0.5-0.5,0.7
			c-0.2,0.2-0.4,0.4-0.7,0.5C561.1,349.5,560.8,349.6,560.5,349.6"/>
		<path class="st2" d="M574.4,362.5c-0.1,0-0.2,0-0.2,0.1c0,0.1,0,0.2,0,0.3c0,1.5,0.2,2.7,0.5,3.7c0.4,1,0.8,1.8,1.5,2.4
			c0.6,0.6,1.4,1.1,2.2,1.4c0.8,0.3,1.7,0.4,2.7,0.4s1.9-0.1,2.8-0.3c0.9-0.2,1.7-0.5,2.5-1.1c0.2-0.2,0.5-0.1,0.7,0.2
			c0.3,0.3,0.3,0.5,0.1,0.8c-0.9,1.1-2,1.9-3.1,2.4c-1.1,0.4-2.6,0.7-4.2,0.7c-1.7,0-3.2-0.3-4.5-0.8c-1.3-0.5-2.3-1.2-3.2-2.1
			c-0.8-0.9-1.5-1.9-1.9-3.2c-0.4-1.2-0.6-2.5-0.6-4c0-1.4,0.2-2.7,0.7-3.9c0.5-1.2,1.1-2.3,2-3.2c0.8-0.9,1.9-1.6,3.1-2.1
			c1.2-0.5,2.5-0.8,3.9-0.8c1.2,0,2.3,0.2,3.3,0.6c1,0.4,1.8,1,2.5,1.7c0.7,0.7,1.2,1.6,1.6,2.5c0.4,1,0.6,2,0.6,3.2
			c0,0.6-0.2,0.9-0.7,0.9H574.4z M582.3,361c0.2,0,0.4,0,0.5-0.1c0.1-0.1,0.2-0.2,0.2-0.3c0-0.1,0.1-0.3,0.1-0.4c0-0.2,0-0.4,0-0.6
			c0-0.6-0.1-1.1-0.3-1.7c-0.2-0.5-0.5-1-0.8-1.4c-0.3-0.4-0.8-0.8-1.3-1c-0.5-0.3-1.1-0.4-1.7-0.4c-0.8,0-1.5,0.1-2,0.4
			c-0.6,0.3-1,0.6-1.4,1.1c-0.4,0.4-0.7,0.9-0.9,1.5c-0.2,0.6-0.4,1.2-0.4,1.8c-0.1,0.3-0.1,0.6-0.1,0.8c0,0.2,0.1,0.3,0.2,0.3
			H582.3z"/>
		<path class="st2" d="M605,354.2c-0.1,0.3-0.2,0.7-0.3,1.1c-0.1,0.4-0.1,0.9-0.1,1.4c0,0.5,0,1.1,0,1.6c0,0.6,0,1,0,1.3
			c0,0.1-0.1,0.1-0.2,0.2c-0.1,0.1-0.2,0.1-0.4,0.1c-0.1,0-0.3,0-0.4,0c-0.1,0-0.2-0.1-0.2-0.2c-0.3-1.5-0.8-2.6-1.6-3.4
			c-0.7-0.8-1.9-1.2-3.5-1.2c-1.1,0-1.9,0.3-2.6,0.8c-0.7,0.5-1,1.2-1,2.1c0,0.7,0.3,1.3,0.9,1.7c0.6,0.4,1.3,0.7,2.3,1.1
			c0.4,0.1,0.9,0.3,1.4,0.5c0.6,0.2,1,0.4,1.4,0.5c0.7,0.3,1.4,0.7,2.1,1c0.6,0.4,1.2,0.8,1.7,1.3c0.5,0.5,0.9,1,1.1,1.6
			c0.3,0.6,0.4,1.3,0.4,2.1c0,1.1-0.2,1.9-0.7,2.6c-0.5,0.7-1.1,1.3-1.8,1.7c-0.7,0.4-1.5,0.7-2.5,0.9c-0.9,0.2-1.8,0.3-2.7,0.3
			c-0.7,0-1.6-0.1-2.5-0.2c-0.9-0.2-1.7-0.4-2.4-0.7c-0.2-0.1-0.3,0-0.5,0.1c-0.2,0.1-0.3,0.3-0.4,0.6c0,0.1-0.1,0.1-0.2,0.2
			c-0.1,0-0.3,0-0.4,0c-0.1,0-0.2,0-0.4-0.1c-0.1,0-0.2-0.1-0.2-0.2c0-0.2,0-0.5,0.1-0.9c0.1-0.4,0.1-0.8,0.1-1.1c0-0.3,0-0.8,0-1.3
			c0-0.5-0.1-1.1-0.2-1.6c-0.1-0.6-0.1-0.9-0.1-1c0-0.1,0.1-0.2,0.2-0.2c0.1-0.1,0.2-0.1,0.4-0.1c0.1,0,0.3,0,0.4,0s0.2,0.1,0.2,0.2
			c0.2,0.8,0.5,1.5,0.8,2.1c0.3,0.6,0.7,1.1,1.2,1.5c0.5,0.4,1.1,0.7,1.7,0.9c0.7,0.2,1.5,0.3,2.4,0.3c1,0,1.9-0.3,2.5-0.8
			c0.7-0.6,1-1.3,1-2.3c0-0.9-0.3-1.6-1-2.1c-0.7-0.5-1.4-1-2.3-1.4c-0.4-0.2-0.8-0.3-1.2-0.5c-0.4-0.2-0.8-0.3-1.3-0.5
			c-0.6-0.2-1.3-0.5-1.9-0.8c-0.6-0.3-1.2-0.6-1.6-1c-0.5-0.4-0.9-0.9-1.1-1.5c-0.3-0.6-0.4-1.3-0.4-2.2c0-1,0.2-1.9,0.7-2.5
			c0.4-0.7,1-1.3,1.7-1.7c0.7-0.4,1.5-0.7,2.3-0.9c0.9-0.2,1.7-0.3,2.6-0.3c0.7,0,1.4,0.1,2.1,0.3c0.7,0.2,1.4,0.5,2.1,1
			c0.1,0.1,0.3,0,0.5,0c0.2-0.1,0.3-0.3,0.5-0.7c0-0.1,0.1-0.2,0.3-0.2c0.1,0,0.3,0,0.4,0c0.1,0,0.3,0,0.4,0.1
			C604.9,354.1,605,354.1,605,354.2"/>
	</g>
</g>
</svg>
