<?xml version="1.0" encoding="utf-8"?>
<!-- Generator: Adobe Illustrator 19.2.1, SVG Export Plug-In . SVG Version: 6.00 Build 0)  -->
<svg version="1.1" id="Layer_1" xmlns="http://www.w3.org/2000/svg" xmlns:xlink="http://www.w3.org/1999/xlink" x="0px" y="0px"
	 viewBox="0 0 758.6 380.8" style="enable-background:new 0 0 758.6 380.8;" xml:space="preserve">
<style type="text/css">
	.st0{fill:#1E5398;}
</style>
<g>
	<g>
		<path class="st0" d="M213.4,335.4c0-0.2-0.2-0.3-0.4-0.4l-7.9-1.9l-1.9-8c-0.1-0.2-0.2-0.4-0.4-0.4c-0.2,0-0.3,0.2-0.4,0.4l-2,8
			l-7.9,1.9c-0.2,0-0.4,0.2-0.4,0.4c0,0.2,0.2,0.3,0.4,0.4l7.9,1.9l2,8l0,0c0.1,0.2,0.2,0.4,0.4,0.4c0.2,0,0.3-0.2,0.4-0.4l0,0l0,0
			l1.9-8l7.8-1.9l0,0l0,0C213.2,335.7,213.4,335.6,213.4,335.4z"/>
		<path class="st0" d="M110.7,370.2c0-0.2-0.2-0.3-0.4-0.4l-7.9-1.9l-1.9-8c0-0.2-0.2-0.4-0.4-0.4c-0.2,0-0.3,0.2-0.4,0.4l-2,8
			l-7.9,1.9c-0.2,0-0.4,0.2-0.4,0.4c0,0.2,0.2,0.3,0.4,0.4l7.9,1.8l1.9,8l0,0c0.1,0.2,0.2,0.4,0.4,0.4c0.2,0,0.3-0.2,0.4-0.4l0,0
			l0,0l1.9-8l7.8-1.9l0,0l0,0C110.6,370.6,110.7,370.4,110.7,370.2z"/>
		<path class="st0" d="M140.4,330.1c0-0.4-0.3-0.7-0.8-0.8l-17.1-4.2l-4.2-17.6c-0.1-0.5-0.4-0.8-0.8-0.8c-0.4,0-0.7,0.3-0.8,0.8
			l-4.3,17.7l-17.1,4.2c-0.5,0.1-0.9,0.4-0.9,0.9c0,0.4,0.4,0.8,0.9,0.8l17.1,4.1l4.3,17.6l0,0c0.1,0.5,0.4,0.8,0.8,0.8
			c0.4,0,0.7-0.4,0.8-0.9l0,0v-0.1l4.2-17.5c0,0,17.1-4.1,17.1-4.1h0.1l0,0C140.1,330.7,140.4,330.3,140.4,330.1z"/>
		<ellipse class="st0" cx="212.3" cy="291.2" rx="6.6" ry="6.7"/>
		<path class="st0" d="M151.1,343.9c0,3.7-3,6.7-6.7,6.7c-3.6,0-6.6-3-6.6-6.7c0-3.6,3-6.7,6.6-6.7
			C148.1,337.1,151.1,340.2,151.1,343.9z"/>
		<path class="st0" d="M128.6,367.7c0,2.1-1.7,3.7-3.7,3.7c-2.1,0-3.7-1.7-3.7-3.7c0-2.1,1.7-3.7,3.7-3.7S128.6,365.7,128.6,367.7z"
			/>
		<path class="st0" d="M100.1,348.1c0,2.1-1.7,3.7-3.7,3.7c-2.1,0-3.7-1.7-3.7-3.7c0-2.1,1.7-3.7,3.7-3.7
			C98.3,344.3,100.1,346.1,100.1,348.1z"/>
		<path class="st0" d="M101.9,310.8c0,2.1-1.7,3.7-3.7,3.7c-2.1,0-3.7-1.7-3.7-3.7c0-2.1,1.7-3.7,3.7-3.7S101.9,308.8,101.9,310.8z"
			/>
		<circle class="st0" cx="136.5" cy="293" r="3.7"/>
		<path class="st0" d="M201.8,265.3c0,2.1-1.7,3.7-3.7,3.7c-2.1,0-3.7-1.7-3.7-3.7c0-2.1,1.7-3.7,3.7-3.7S201.8,263.2,201.8,265.3z"
			/>
		<path class="st0" d="M254.5,260.6c0,2.1-1.7,3.8-3.7,3.8c-2.1,0-3.7-1.7-3.7-3.8s1.7-3.7,3.7-3.7
			C252.8,256.9,254.5,258.5,254.5,260.6z"/>
		<path class="st0" d="M168.6,274.7c0,0-2.8,23.1-3.4,28.2c-3.4-2.2-10-6.5-10-6.5c-0.7-0.5-1.7-0.4-2.4,0.2v0.1
			c-0.7,0.6-0.8,1.6-0.3,2.4c0,0,4.1,6.7,6.3,10.1c-5.2,0.5-28.3,2.5-28.3,2.5c-0.4,0.1-0.9,0.3-1.1,0.6c-0.4,0.4-0.6,0.8-0.7,1.3
			c0,1,0.8,1.9,1.8,2c0,0,22.9,2.7,28.2,3.4c-2.2,3.3-6.6,9.6-6.6,9.6c-0.5,0.8-0.4,1.7,0.2,2.4c0.7,0.7,1.7,0.9,2.5,0.4
			c0,0,6.9-4,10.2-6c0.5,5.1,2.6,28.4,2.6,28.4c0.1,1,0.9,1.7,1.8,1.8c0.6,0,1-0.2,1.3-0.6c0.4-0.3,0.6-0.7,0.7-1.1
			c0,0,2.8-23.2,3.4-28.3c3.4,2.1,10.3,6.5,10.3,6.5c0.8,0.6,1.7,0.4,2.4-0.2l0,0c0.7-0.7,0.8-1.7,0.3-2.5c0,0-4.4-6.6-6.6-10.1
			c5.3-0.5,28.2-2.5,28.2-2.5c0.5,0,0.9-0.2,1.1-0.5c0.4-0.3,0.7-0.9,0.7-1.4c0-1-0.8-1.8-1.7-1.9c0,0-23-2.8-28.2-3.4
			c2.3-3.4,7.2-10.6,7.2-10.6c0.5-0.7,0.4-1.7-0.3-2.4c-0.6-0.7-1.6-0.8-2.4-0.3c0,0-7.3,4.7-10.7,6.9c-0.4-5.2-2.5-28.2-2.5-28.2
			c-0.1-1.1-0.9-1.8-1.9-1.7c-0.5-0.1-1,0.2-1.3,0.4C168.8,273.8,168.6,274.2,168.6,274.7"/>
	</g>
	<g>
		<path class="st0" d="M355.9,107.2c23.9-7.4,47.6-30,48.3-48.6c1-18.7-20-19.3-20-19.3h-0.7c-3.7-11.5-25-10.6-25-10.6
			c-44.3,2.3-60,32.7-61.9,40.6c-2,7-1.1,17.1,7,25.3c-2.7,6.6-0.7,9.7,0,11.3c0.7,2.4,4.3,9.3,8.6,9c3-0.4,5.3-2.4,9.3-9
			C330.3,109.7,340.6,111.9,355.9,107.2z M330.6,88.9c10.7-14.9,32.7-32.7,46.6-34.7c8-1,10.3,2.2,10.8,5.7c0.4,3.5-1.1,7.3-1.1,7.3
			C373.9,91.8,346.2,92.3,330.6,88.9z M316,64.5c6.3-9.3,15.3-13.7,26-14.3c-13.8,9.2-23.8,20.9-28.9,28.6
			C310.9,75.9,311.4,71.5,316,64.5z"/>
		<path class="st0" d="M748.6,143.8c-21.6-16-58.3,31.8-74.9,55.3c-2-12.4,6.7-27.6,6.7-27.6s14-22.6,16-27.3c2-4.7,3.4-14.4,1-15.3
			c-2-1-5.7,2-5.7,2c-30.7,26-35.6,55.7-35.6,55.7c-3.4,16-0.2,27.2,4.3,35.3C643,256.8,634,287.6,636,305.9
			c1.3,14,11.3,24.3,17.3,26.6c5.9,2.7,7.4-4.7,7.4-4.7c5.7-35.4,14.8-64.9,24.8-87.8c0.3,0.1,0.6,0.2,0.9,0.3
			c1.8,0.5,3.7,0.8,5.6,1c0.6,0.1,1.1,0.1,1.7,0.1c1.2,0.1,2.4,0.2,3.6,0.2c0.7,0,1.3-0.1,2-0.1c1.1-0.1,2.1-0.1,3.2-0.3
			c0.7-0.1,1.4-0.2,2.1-0.4c1-0.2,2-0.4,3-0.7c0.7-0.2,1.3-0.4,2.1-0.6c1-0.3,1.8-0.6,2.8-1c0.7-0.3,1.3-0.6,2-0.8
			c0.9-0.4,1.7-0.8,2.6-1.2c0.7-0.3,1.2-0.7,1.9-1c0.9-0.5,1.6-1,2.5-1.4c0.6-0.4,1.2-0.8,1.8-1.1c0.9-0.5,1.6-1.1,2.4-1.6
			c0.6-0.4,1.1-0.8,1.7-1.2c0.8-0.6,1.5-1.2,2.2-1.8c0.6-0.5,1.1-0.9,1.6-1.3c0.8-0.7,1.4-1.2,2.1-1.9c0.5-0.5,1-0.9,1.4-1.3
			c0.8-0.8,1.5-1.5,2.3-2.3c0.9-0.9,1.6-1.7,2.4-2.5c0.5-0.6,1.1-1.1,1.5-1.7c0.6-0.6,1.1-1.2,1.5-1.8c0.4-0.5,0.8-1,1.1-1.4
			c0.5-0.7,1-1.2,1.4-1.9c0.3-0.5,0.7-0.9,1-1.3c0.5-0.7,0.9-1.2,1.3-1.8c0.2-0.3,0.4-0.5,0.6-0.8l0,0c1-1.3,1.8-2.7,2.5-3.9
			C761.2,186.1,762.2,154.1,748.6,143.8z M734.2,166.7c9.7-10.3,10.6-0.7,10.6-0.7c1.2,13.9-6.2,25-12.5,31.8
			c-2.2,2.4-4.3,4.2-5.8,5.5c-3.6,3.4-15.6,9.8-28,10.6C711.7,192.2,725.9,175.5,734.2,166.7z"/>
		<path class="st0" d="M642.3,219c1.6-5.7-3.4-12-8-13.3c-4.3-1-37.9,4.3-42,5.3c-4.3,1.1-2.3-3-2.3-3s3.4-10.7,5.5-16.7
			c11.4-0.3,24.5-0.8,36.9-1.6c4.3-0.3,4.7-3.6,4.7-3.6s0.7-5,0.7-9.7c-0.3-5-4.3-4.7-4.3-4.7c-6.8-1-18.3-1.1-29.6-1l0,0l0,0
			c0.1-0.3,0.2-0.6,0.4-0.9c0.4-0.8,0.7-1.6,1-2.4s0.6-1.5,1-2.3c0.2-0.5,0.4-1.1,0.6-1.5c0.3-0.9,0.6-1.5,0.9-2.3
			c0.1-0.3,0.3-0.7,0.4-1c0.4-1,0.7-1.9,0.9-2.6c0,0,33.9-0.7,46.9-3.4c6.7-1.3,3-8,3-8c-7.7-16.3-17-15.6-17-15.6
			c-26.6-1.6-65.6,4.3-69.9,6.3c-4,1.6-3.6,4.7,1.3,11.3c2.6,3.4,6.1,5,9,5.8c1.2,0.4,3.2,0.8,5.4,1.2c0,0.1-0.1,0.2-0.1,0.2
			c-0.2,0.3-0.4,0.7-0.6,1.1c-0.1,0.2-0.2,0.4-0.4,0.7c-0.2,0.3-0.3,0.6-0.5,0.9c-0.2,0.4-0.5,0.9-0.7,1.2c-0.1,0.2-0.2,0.3-0.2,0.5
			c-1.3,2.6-2.9,5.7-4.4,8.9c-0.4,0.9-0.9,1.7-1.2,2.7c-0.1,0-0.2,0-0.3,0c-6.6,0.5-9,2.3-9,2.3c-2.9,2.9-1.2,10,0.1,13.8
			c0.3,0.9,0.7,1.5,1.1,2.1c-0.1,0.2-0.1,0.4-0.2,0.5c-1.6,4-12.4,25.7-4.3,39.7c8.6,14.7,19.3,14.3,19.3,14.3
			C606.3,246.3,640.3,226,642.3,219z"/>
		<path class="st0" d="M203.1,35.9c0,0-100.6-55.3-185.2-28.6c0,0-5.4-0.4-10.3,6.6c-5,6.7-9.3,11.3-7,16.7c2.3,5.4,15.3,8,27,4.7
			c0,0,5.4-3.4-1.3-5.7c-6.3-2.3-10-3-10-3s-3.4-0.7,0.3-2.3c3.4-1.6,42-13,109.2,6.7c67.2,19.3,157.5,76.6,153.2,133.5
			c-4.3,57-93.6,57-93.6,57s-18.3,0.4-42.6-5c0-0.7,0-1.4,0-2.2c0-0.2,0-0.5,0-0.8c0-0.6,0-1.2,0-1.8c0-0.4,0-0.7,0-1.1
			c0-0.7,0-1.3,0-2c0-0.4,0-0.8,0-1.1c0-1,0-1.9,0.1-3c0-0.1,0-0.2,0-0.3c0-1.1,0-2.3,0.1-3.5c0-0.8,0-1.5,0-2.2c0-0.5,0-1.1,0-1.5
			c0-0.9,0.1-1.7,0.1-2.7c0-0.4,0-0.8,0-1.1c0-1.1,0.1-2,0.1-3.1c0-0.1,0-0.2,0-0.3c0.3-10.1,0.6-21.4,1-31.9c0-0.2,0-0.4,0-0.6
			c0-0.8,0.1-1.6,0.1-2.4c0-1,0.1-2,0.1-3c0-0.3,0-0.6,0-0.9c0-1.4,0.1-2.9,0.1-4.3c34.6,0.9,68.8,8,71.5,16.6c0,0,1.6,4-6.3,7.7
			c-7.4,3.1-13,5.4-7,8.3c0,0,8.6,4.3,14.3,4c5.4-0.3,19.6-6.3,21.4-21.6c2-15.6-15.6-30-42.6-35.6c-20.7-4.3-31.6-5.8-50.3-5.7
			c0.3-17-1.3-38.3-5-43.3c-4.3-6.7-9.3-15.7-13.7-6c-3.6,8.3-7,26.6-8.6,51c-28.6,3.7-60.6,14.9-70.6,26.6
			c-10.6,13-0.7,23.9,0.4,25c0.7,1.3,20.6,32,65.2,53.9c0.7,8,2,17,5,22c6.6,10.6,19.6,3.6,21.3,2c1.3-1.3,2.3-4.7,3-12.6
			c19.9,5.9,56.6,12.4,95.9,1.6c59.6-16.3,69-52.6,71.3-74.2C312,144.1,297.3,86.9,203.1,35.9z M53.6,167.4c0,0-6.3-7,3.4-11.3
			c8.6-3.6,27.3-8,59.4-9.6c0,0.5-0.1,1.1-0.1,1.6c-0.3,3.7-0.6,7.6-0.9,11.5c-0.1,0.9-0.1,1.6-0.2,2.5c-0.3,4.6-0.6,9.3-0.9,14
			c-0.1,1.1-0.1,2.1-0.2,3.2c-0.2,3.6-0.4,7.3-0.5,10.9c-0.1,1.3-0.1,2.7-0.2,4c-0.2,4.6-0.3,9.2-0.3,13.6
			C92.8,199.1,70.9,187,53.6,167.4z"/>
		<path class="st0" d="M343.9,143.8c-0.3-7.7-3-11.3-5.4-14.7c-2-3.4-5.4-7.7-11-3c-5.4,4.6-6.7,34.6-8,58.9
			c-1.3,23.9-0.7,39.3,2.3,43.3c3,4.3,14,6.3,19.3,2.7c5-3.6,3.6-39.7,3.6-39.7S344.3,151.5,343.9,143.8z"/>
		<path class="st0" d="M466.2,132.8c-7.7-9-50.6-8.6-50.6-8.6c-15.6,1-51.9,6.3-57.7,22.6c-5.3,15.6-1,21.4-1,21.4
			c4.3,8.3,35.3,8.6,43.6,9.3c8.6,0.7,30.9,4,38.6,8.6c7.7,5,2.3,10.6,2.3,10.6c-13.3,14-56.6,15.3-67.6,8.3
			c-4.3-2.7-5.4-6-0.7-10.6c4.7-5,19,3,17.3,2.3c-1.6-1.1,7,5,19,5.7c12.4,0.7,21-3.6,21.6-8c0.7-4-10.3-8.3-10.3-8.3
			c-36.3-11.3-51-3-51-3c-20.3,12-6,28.9-6,28.9c31.3,35.3,81.9,14.7,87.9,9.7c5.7-4.7,8.3-10,9-24.3c0.7-14-5.4-20.3-5.4-20.3
			c-10-13.3-39-14-47.6-14.7c-8-0.4-24.6-3.4-28.6-4.3c-4-1-1.3-4-1.3-4c3.6-5,77.6-8,77.6-8c7.7-0.7,8.6-5.4,10.3-8.3
			C467.2,134.8,466.2,132.8,466.2,132.8z"/>
		<path class="st0" d="M529.8,112.5c0,0-4.7-2.3-6,2.3c-1.3,4.7,0.4,9.7,0.4,9.7c10.6,40.3,12.6,64,12.6,64s0.3,7-1,7.3
			c-1,0.7-2-0.4-2-0.4c-1.3,0-13.7-21.9-13.7-21.9l-2.3-4.3c-12.6-23.7-21.9-31.3-21.9-31.3c-2-2-7-7.3-13.6-0.4
			c-6.7,7-12.4,30-14.9,51.6c-2.3,21.6-1.3,34,1.6,39.3c3.4,5.4,10,7.3,15.6,3c5.9-4.3,5.7-33,7-47.6c1.3-14.7,2.7-12,2.7-12
			c1.3-0.3,7.7,13.3,7.7,13.3s16.7,36.6,27.6,42.2c11,5.7,20.3-2.7,23.9-10.6c3.6-8,10.3-34.7,2.3-64.6
			C547.8,122.1,529.8,112.5,529.8,112.5z"/>
	</g>
	<path class="st0" d="M267.6,309.5c-13.7-3.3-17-5.7-17-11.1v-0.2c0-4.7,4.2-8.4,11.6-8.4c5.6,0,10.8,1.8,16.3,5.4
		c1,0.6,2,0.9,3.3,0.9c3.3,0,5.8-2.5,5.8-5.7c0-2.4-1.3-4.1-2.8-5c-6.4-4.3-13.6-6.6-22.5-6.6c-14.1,0-24.2,8.4-24.2,20.6v0.2
		c0,13,8.5,17.5,23.6,21.2c13.1,3.1,16,5.7,16,10.8v0.2c0,5.3-4.9,8.9-12.5,8.9s-14-2.6-19.8-7.3c-0.8-0.6-1.9-1.1-3.6-1.1
		c-3.3,0-5.8,2.5-5.8,5.7c0,2,1.1,3.7,2.5,4.8c7.9,5.8,17.1,8.9,26.6,8.9c14.8,0,25.3-8,25.3-21.2v-0.2
		C290.3,318.5,282.5,313.1,267.6,309.5z M404.5,278.4c-21.7,0-37.2,16.7-37.2,36.7v0.2c0,19.9,15.2,36.5,37,36.5
		c21.7,0,37.2-16.7,37.2-36.7v-0.2C441.5,295,426.2,278.4,404.5,278.4z M428.3,315.3c0,13.8-9.9,24.9-23.9,24.9
		s-24.1-11.3-24.1-25.1v-0.2c0-13.8,9.9-25,23.9-25c14.1,0,24.1,11.4,24.1,25.2L428.3,315.3L428.3,315.3z M584.8,339.4h-35.5v-14.7
		c0-2.4,2-4.4,4.4-4.4h26.1c3.1,0,5.6-2.4,5.6-5.5c0-3.2-2.5-5.7-5.6-5.7h-30.5v-14.1c0-2.4,2-4.4,4.4-4.4h30.7
		c3.1,0,5.6-2.5,5.6-5.6c0-3.1-2.5-5.6-5.6-5.6h-41.2c-3.5,0-6.3,2.7-6.3,6.3v58.3c0,3.5,2.8,6.2,6.3,6.2h41.8
		c3.1,0,5.6-2.4,5.6-5.6C590.3,341.9,587.8,339.4,584.8,339.4z M490,279.7h-25.3c-3.5,0-6.3,2.7-6.3,6.3v58.9c0,3.4,2.8,6.1,6.3,6.1
		c3.4,0,6.1-2.8,6.1-6.1v-14.7c0-2.4,2-4.4,4.4-4.4h11.3l0,0l0,0l17.2,22c1.4,1.9,3.3,3.3,6,3.3c3.1,0,5.9-2.3,5.9-5.7
		c0-1.9-0.8-3.3-2-4.8l-13.6-17.1c9.5-3,16.1-9.9,16.1-21.2v-0.2c0-6.1-2.1-11.4-5.8-15.3C505.9,282.3,498.9,279.7,490,279.7z
		 M503.6,303c0,7.2-5.7,11.9-14.6,11.9h-18.2v-19.4c0-2.4,2-4.4,4.4-4.4H489c9.2,0,14.7,4.1,14.7,11.8L503.6,303L503.6,303z
		 M353.9,279.7h-47.1c-3.3,0-5.7,2.6-5.7,5.7c0,3.2,2.5,5.7,5.7,5.7h12.8c2.4,0,4.4,2,4.4,4.4v49.3c0,3.4,2.9,6.1,6.2,6.1
		c3.4,0,6.3-2.8,6.3-6.1v-49.3c0-2.4,2-4.4,4.4-4.4h12.9c3.2,0,5.7-2.7,5.7-5.7C359.6,282.3,357.1,279.7,353.9,279.7z"/>
</g>
</svg>
