<?xml version="1.0" standalone="no"?>
<!DOCTYPE svg PUBLIC "-//W3C//DTD SVG 20010904//EN"
 "http://www.w3.org/TR/2001/REC-SVG-20010904/DTD/svg10.dtd">
<svg version="1.0" xmlns="http://www.w3.org/2000/svg"
 width="225.000000pt" height="225.000000pt" viewBox="0 0 225.000000 225.000000"
 preserveAspectRatio="xMidYMid meet">

<g transform="translate(0.000000,225.000000) scale(0.100000,-0.100000)"
fill="#000000" stroke="none">
<path d="M0 1125 l0 -1125 1125 0 1125 0 0 1125 0 1125 -1125 0 -1125 0 0
-1125z m946 502 c208 -95 199 -89 199 -117 0 -22 -15 -33 -117 -84 -89 -46
-119 -57 -130 -49 -7 6 -44 71 -82 145 -102 195 -90 204 130 105z m604 -72
c17 -18 21 -31 17 -52 -3 -15 -94 -212 -202 -438 -109 -226 -211 -438 -227
-473 -34 -71 -65 -97 -103 -88 -36 9 -48 34 -95 191 -23 77 -47 146 -53 152
-7 7 -84 33 -172 59 -122 34 -165 51 -183 70 -57 64 -72 54 673 454 234 126
281 149 301 150 11 0 31 -11 44 -25z m-3 -407 c6 -7 47 -86 93 -175 81 -157
89 -186 56 -199 -20 -8 -295 117 -301 136 -3 9 16 64 42 121 59 128 60 129 82
129 10 0 23 -6 28 -12z"/>
</g>
</svg>
