<svg xmlns="http://www.w3.org/2000/svg" viewBox="0 0 534 300"><g fill="none" stroke-width="2"><path stroke="#f5aea5" d="m534 173.82-.29-1.72q-.09-.55-.49-.16-16.29 16.22-32.6 32.44-8.63 8.58-2.13 16.37c4.17 5 10.79 6.52 15.83 1.81q4.73-4.41 19.68-19.92M534 229.06q-.3-.13-.25-.55a.25.25 0 0 0-.43-.2l-70.6 70.93a.34.33-41.6 0 0-.03.44l.25.32" vector-effect="non-scaling-stroke"/><path stroke="#949ac0" d="M150.91 90.08q2.21 2.95 5.82 4.96 2.47 1.38 7.12 2.41 13.51 2.99 27.11 5.73.53.11.53-.43.02-8.12.02-16.2c0-10.31-1.12-16.43-10.07-21.28" vector-effect="non-scaling-stroke"/><path stroke="#f5aea5" d="M181.44 65.27c-3.8-6.59-8.94-8.05-16.75-8.09q-9.79-.04-19.57.09c-13.64.17-18.82 4.72-18.88 18.68q-.05 9.02.04 18.07 0 .5.49.41l24.14-4.35" vector-effect="non-scaling-stroke"/><path stroke="#894966" d="M181.44 65.27q-10.59-1.97-19.14-.7c-12.77 1.91-16.69 14.57-11.39 25.51" vector-effect="non-scaling-stroke"/><path stroke="#f4b7b3" d="M79.83 120.49q-1.28-.11-1.52.2" vector-effect="non-scaling-stroke"/><path stroke="#f5aea5" d="M78.31 120.69c-8.24.85-18.46 2.88-20.6 12.6q-3.8 17.2-7.04 34.82" vector-effect="non-scaling-stroke"/><path stroke="#949ac0" d="M50.67 168.11q-2.69 7.31 1.27 14.25" vector-effect="non-scaling-stroke"/><path stroke="#f5aea5" d="M51.94 182.36c-2.54 5.44-11.47 23.4-10.44 28.59q.21 1.04 1.85 4.47" vector-effect="non-scaling-stroke"/><path stroke="#949ac0" d="m43.35 215.42-.8 9.34" vector-effect="non-scaling-stroke"/><path stroke="#f4d5c8" d="m42.55 224.76-.95 1" vector-effect="non-scaling-stroke"/><path stroke="#dcdbdb" d="m41.6 225.76-10.94-.2q-.66-.02-.66.65v5.13a.66.66 0 0 0 .66.66h211.53a1.11 1.1 89.7 0 0 1.1-1.12l-.06-4.95q-.01-.55-.56-.52l-4.56.31q-.3.02-.39-.27-.04-.12-.04-.26" vector-effect="non-scaling-stroke"/><path stroke="#b0b0b0" d="M237.68 225.19q1.17-2.17 1.85-4.06 6.5-18.03 12.13-35.21.56-1.71-1.23-1.71l-27.3-.05" vector-effect="non-scaling-stroke"/><path stroke="#9ea6cd" d="M223.13 184.16q3.22-11.74-7.61-16.23" vector-effect="non-scaling-stroke"/><path stroke="#949ac0" d="m215.52 167.93-7.47-3.22q-.48-.2-.68.28c-1.49 3.57-6.32 5.69-9.71 6.83-7.07 2.38-13.95.56-14.18-8.22a1.13 1.12 68 0 1 .35-.84l.88-.82" vector-effect="non-scaling-stroke"/><path stroke="#e3b7a4" d="m184.71 161.94.43.04q.69.07.2.55l-.52.53q-.37.37-.37.89c.2 13.22 15.96 6.85 21.36 2.22a1.14 1.14 0 0 0-.25-1.89l-.72-.35q-.47-.22-.58-.73-1.35-6.35 0-12.69.06-.31.43-.31" vector-effect="non-scaling-stroke"/><path stroke="gray" d="M204.69 150.2q5.91-1.79 5.89-7.41 0-.59.44-.98l2.11-1.89a.92.91 73.7 0 0 .3-.55q.4-2.56-.66-4.86-.23-.5-.12-1.04c.78-3.71 2.76-7-2.96-8.05a.61.61 0 0 1-.5-.61q.08-5.8-5.54-5.11-.43.05-.63-.32l-1.45-2.67a1.05 1.05 0 0 0-.43-.43q-2.95-1.6-5.72.29a.79.79 0 0 1-.85.02l-2.75-1.69a.85.85 0 0 0-1.08.17q-2.11 2.42-5.17 3.23a1.51 1.51 0 0 0-1.12 1.38q-.14 3.02 2.69 5.13" vector-effect="non-scaling-stroke"/><path stroke="#e3b7a4" d="M187.14 124.81q-8.08 10.42-6.48 23.76.82 6.81 7.23 8.77.47.14.56.64c.27 1.58-.56 4.71-2.92 3.57" vector-effect="non-scaling-stroke"/><path stroke="#949ac0" d="m185.53 161.55-.46-.32q-.31-.22-.69-.21c-13.18.47-14.63 4.73-16.31 17.3" vector-effect="non-scaling-stroke"/><path stroke="#9ea6cd" d="M168.07 178.32q-.07-.07-.14-.15" vector-effect="non-scaling-stroke"/><path stroke="#e3b7a4" d="M167.93 178.17q-4.73-5.35-8.87-10.6c-1.17-1.47-2.04-2.13-3.89-1.8a1.13 1.13 0 0 1-1.33-1.12l.02-7.08a.98.98 0 0 0-1.91-.29q-.95 3.03-.2 6.48.33 1.5-1.47 2a.78.77-.7 0 0-.55.56q-.67 2.76-3.04 4.11a.72.71-29.1 0 0-.28.96c.92 1.77.51 4.57 1.45 5.59q.94 1.02 2.87.17 1.04-.46.96.67-.11 1.6.04 3.68.12 1.59-.47 2.18a.3.3 0 0 1-.51-.21q-.02-1.23-.91-1.45-.53-.13-1.01.12l-3.06 1.65q-.42.23-.68.63-1.86 2.82-2.99 6.02-.17.48.15.87l5.01 6.08" vector-effect="non-scaling-stroke"/><path stroke="#9ea6cd" d="M147.26 197.39q-2.7 3.17-1.2 4.8 4.78 5.17 19.2 17.71" vector-effect="non-scaling-stroke"/><path stroke="#949ac0" d="m165.26 219.9.27 2.38" vector-effect="non-scaling-stroke"/><path stroke="#b0b0b0" d="M165.53 222.28q-1.21 1.04-3.47.68a.45.44-3.3 0 0-.5.56q.17.61 1.07 1.61" vector-effect="non-scaling-stroke"/><path stroke="#dcdbdb" d="m162.63 225.13-16.69.15" vector-effect="non-scaling-stroke"/><path stroke="#f4d5c8" d="m145.94 225.28-5.21-.01q-.89-.01-.16-.51l1.03-.71a.62.62 0 0 0-.2-1.12l-3.83-.96a.63.62 77.9 0 1-.37-.24c-4.48-5.7-10.32-3.18-16.58-.9a1.04 1-3.7 0 0-.64.7l-.78 3.05q-.13.49-.61.63-1.27.35-2.44-.31" vector-effect="non-scaling-stroke"/><path stroke="#dcdbdb" d="M116.15 224.9q.74-1.05.59-1.68-.09-.4-.5-.36l-1.88.18q-.67.07-.56-.59.58-3.34-.21-6.57-.16-.63-.8-.63h-8.13a2.46 2.46 0 0 0-2.35 3.17q1.43 4.77-1.51 3.56" vector-effect="non-scaling-stroke"/><path stroke="#f4d5c8" d="M100.8 221.98q.28-1.39.03-1.75" vector-effect="non-scaling-stroke"/><path stroke="#f4b7b3" d="m100.83 220.23-.3-1.15q-.13-.49.13-.93.75-1.23-.1-2.21-.34-.39-.17-.89.3-.89-.63-1.32" vector-effect="non-scaling-stroke"/><path stroke="#f4d5c8" d="M99.76 213.73q-.11-.73.09-.73" vector-effect="non-scaling-stroke"/><path stroke="#f5aea5" d="m99.85 213 4.46-19.34q.18-.76.49-.05 4.98 11.16 9.33 22.57c1.93 5.03 11.13 1.26 13.71-.7a2.55 2.55 0 0 0 .9-2.79q-5.19-16.72-10.23-33.54-1.09-3.65-1.16-7.43-.37-18.73-.36-37.48 0-8.78-10.2-10.61" vector-effect="non-scaling-stroke"/><path stroke="#f4d5c8" d="M106.79 123.63q5.14-3.85 7.55-8.69.25-.51.76-.75l1.72-.81q.48-.22.37-.74l-1.57-7.9a.71.71 0 0 0-1.25-.3l-2.99 3.78a2.23 2.23 0 0 1-3.87-.66q-.43-1.28.17-2.35a.78.78 0 0 0-.18-.99q-1.62-1.33-3.76-1.54" vector-effect="non-scaling-stroke"/><path stroke="gray" d="M103.74 102.68q-.43-.61-1.52-.64" vector-effect="non-scaling-stroke"/><path stroke="#b0b0b0" d="M102.22 102.04c-1.76-1.26-1.13-3.4-3.25-4.82" vector-effect="non-scaling-stroke"/><path stroke="#f4d5c8" d="M98.97 97.22q.14-.51.77-.81" vector-effect="non-scaling-stroke"/><path stroke="gray" d="M99.74 96.41c2.13 1.71 1.8 4.51 4.85 4.57" vector-effect="non-scaling-stroke"/><path stroke="#f4d5c8" d="M104.59 100.98c.79 1.82 2.42.34 3.39 1.49q.31.36.67.05.52-.45.9-1.24" vector-effect="non-scaling-stroke"/><path stroke="#b0b0b0" d="M109.55 101.28q1.22-2.49 5.16-1.26" vector-effect="non-scaling-stroke"/><path stroke="#f4d5c8" d="M114.71 100.02q-1.56 2.59 1.23 3.28.47.11.84-.2 1.11-.96 1.19-1.87" vector-effect="non-scaling-stroke"/><path stroke="#b0b0b0" d="M117.97 101.23q3.38-1.34-.5-7.02" vector-effect="non-scaling-stroke"/><path stroke="#f4d5c8" d="M117.47 94.21q-.34.4-.5-.4" vector-effect="non-scaling-stroke"/><path stroke="gray" d="M116.97 93.81c7.79-3.57 4.86-13.61-3.82-11.65-1.92.44-3.38.59-5.35-.22-5.93-2.45-13.53-2.82-16.34 4.2q-.18.45-.64.61-5.08 1.79-4.66 7.58.36 5.1.72 15.24.08 2.29 2.62 1.93" vector-effect="non-scaling-stroke"/><path stroke="#f4b7b3" d="m89.5 111.5-1.06 2.67" vector-effect="non-scaling-stroke"/><path stroke="#f4d5c8" d="m88.44 114.17-2.36 2.84" vector-effect="non-scaling-stroke"/><path stroke="#f4b7b3" d="m86.08 117.01-4.36 3.09" vector-effect="non-scaling-stroke"/><path stroke="#dcdbdb" d="M81.72 120.1q0-21.62.19-43.1.01-1.12-.65-1.51a.72.71-74.4 0 0-1.08.61q-.13 15.44-.15 30.19c0 3.73.52 9.33-.2 14.2" vector-effect="non-scaling-stroke"/><path stroke="#d1928f" d="M81.72 120.1q-.94.5-1.89.39" vector-effect="non-scaling-stroke"/><path stroke="#ea6559" d="M102.39 124.11q3.67 5.27 4.74 10.61a.97.97 0 0 1-.52 1.05q-1.51.76-3.24.43a1.13 1.13 0 0 0-.87 2.02l3.5 2.52a2.54 2.54 0 0 1 1.04 2.35q-.97 8.34-3.67 16.25-3.71 10.91-9.68 21.34" vector-effect="non-scaling-stroke"/><path stroke="#895274" d="M93.69 180.68q5.13-25.24 5.04-49.89a.31.3 57.5 0 0-.58-.13l-2.41 5.14q-.25.54.01 1.07.21.41.62.83a1.33.79 37.6 0 1-1.42.84q-2.84-2.89-5.92-5.54-.58-.49-.53.27l3.3 47.65" vector-effect="non-scaling-stroke"/><path stroke="#ea6559" d="M91.8 180.92q-3.63-6.46-4.33-8.92-4.15-14.69-9.43-29.2a2.33 2.33 0 0 1 1-2.81l3.84-2.27q1.24-.73.2-1.72-3.37-3.23-6.8-2.29" vector-effect="non-scaling-stroke"/><path stroke="#d86e58" d="m76.28 133.71-.18-2.28" vector-effect="non-scaling-stroke"/><path stroke="#ea6559" d="M76.1 131.43c2.08-2.65 1.97-5.12 3.54-8.05q1.5-2.78-1.33-2.69" vector-effect="non-scaling-stroke"/><path stroke="#e98c7c" d="M86.08 117.01q2.09 5.48 1.99 11.71-.01.56.39.96l4.91 4.9a.74.73-55.9 0 0 1.19-.23l2.66-6.04a1.43 1.43 0 0 0-.45-1.72q-5.97-4.44-8.33-12.42" vector-effect="non-scaling-stroke"/><path stroke="#a48579" d="M98.97 97.22q-2.06-.59.6 1.45a1.28 1.26 15.4 0 1 .48.83q.27 1.98 2.02 2.93" vector-effect="non-scaling-stroke"/><path stroke="#755649" d="M102.07 102.43q-.13.53-.02 1.01.14.56.7.41.81-.22.99-1.17" vector-effect="non-scaling-stroke"/><path stroke="#e9836e" d="m106.79 123.63-4.4.48" vector-effect="non-scaling-stroke"/><path stroke="#e98c7c" d="M102.39 124.11q-9.36-2-12.46-12.93" vector-effect="non-scaling-stroke"/><path stroke="#d9654a" d="M76.1 131.43q-1.77-3.62-4.94-5.82-.69-.48-1.22-.31a.32.32 0 0 0-.05.59c6.47 3.5 4.48 6.76 5.84 12.68a.42.41 37.1 0 0 .82-.11l-.27-4.75" vector-effect="non-scaling-stroke"/><path stroke="#894966" d="M91.8 180.92q-.3 1.43.17 2.84.23.67.35-.03.4-2.41 1.37-3.05" vector-effect="non-scaling-stroke"/><path stroke="#e9836e" d="m99.85 213-.63.13a1.39 1.37 52.5 0 1-.92-.13q-3.61-1.9-7.83-.51" vector-effect="non-scaling-stroke"/><path stroke="#f5aea5" d="M90.47 212.49q-.21-1.32-.96-2.05-.43-.41-.82.04-3.73 4.28-8.91 6.72-.58.27-.16.76l1.69 1.98q.37.43.89.22l2.49-1" vector-effect="non-scaling-stroke"/><path stroke="#e9836e" d="M84.69 219.16q.91.13.82 1.14a1.98 1.92 35.4 0 0 .18.98l.86 1.83" vector-effect="non-scaling-stroke"/><path stroke="#894966" d="M86.55 223.11q-13.02 1.73-26.37-.79-8.93-1.68-16.83-6.9M51.94 182.36q3.36 3.2 5.86-1.88c2.93-5.98-.89-11.07-7.13-12.37" vector-effect="non-scaling-stroke"/><path stroke="#755649" d="M116.97 93.81c-4 1.25-9.36-1.9-12.43-4.25a1.01 1-.4 0 0-1.4 1.42q3.46 4.38 1.45 10M99.74 96.41c-2.45-1.76-4.72.96-4.98 3.24q-.06.5.57 3.03c.91 3.62-2.68 6.73-5.4 8.5" vector-effect="non-scaling-stroke"/><path stroke="#753834" d="M89.93 111.18q-1.19.21-.43.32" vector-effect="non-scaling-stroke"/><path stroke="#313131" d="M102.22 102.04q.11.49-.15.39" vector-effect="non-scaling-stroke"/><path stroke="#f4d5c8" d="m90.47 212.49-5.78 6.67" vector-effect="non-scaling-stroke"/><path stroke="#e98c7c" d="M99.76 213.73q-.54-.03-.73.43a.64.64 0 0 0 .28.82q.95.5.45 1.51-.34.67-.71.03l-1.18-2.04a1.24 1.23-39.4 0 0-2-.19l-5.99 6.89a.34.34 0 0 0 .34.55q.75-.18 1.36-.91 2.11-2.51 4.31-5.03.34-.39.65.02l3.78 4.94q.37.47.45-.12l.06-.4" vector-effect="non-scaling-stroke"/><path stroke="#d0b0a4" d="M100.8 221.98c-1.79-.87-2.58-2.67-3.89-3.24q-.93-.4-1.71.1a.62.62 0 0 0 .3 1.14q1.23.07 1.58 1.27a.89.88-1.1 0 0 .65.62q2.53.58 3.59 2.75.24.49.78.48l14.05-.2M145.94 225.28q-2.21 2.8-5.99 1.17a2.01 2.01 0 0 0-.96-.16c-8.9.81-15.37.03-22.07.35-1.6.08-3.06-.61-4.68-.38-5.31.78-10.26.59-15.18.66q-9.51.13-19.01-.06c-6.61-.14-14.49 1.01-21.93.32-4.17-.38-9.78-.25-14.52-1.42" vector-effect="non-scaling-stroke"/><path stroke="#887089" d="m42.55 224.76.31.16q.4.22.86.22l45.23-.11q.69 0 .27-.54-1-1.27-2.67-1.38" vector-effect="non-scaling-stroke"/><path stroke="#a48579" d="m117.47 94.21.5 7.02M114.71 100.02q-2.54-4.03-5.85.61-.33.47.22.63.22.06.47.02" vector-effect="non-scaling-stroke"/><path stroke="#8c8b8b" d="m237.68 225.19-75.05-.06" vector-effect="non-scaling-stroke"/><path stroke="#444b71" d="M165.53 222.28q.27.76.71.74 10.34-.32 20.67.21a1.2 1.17-59.8 0 0 .72-.2q1.15-.74.34-1.2" vector-effect="non-scaling-stroke"/><path stroke="#4e577d" d="m223.13 184.16-20.69.07a2.32 2.31 9.2 0 0-2.18 1.57l-12.29 36.03" vector-effect="non-scaling-stroke"/><path stroke="#32418e" d="M187.97 221.83q-10.33-10.99-18.95-22.84-1.11-1.52-2.55-2.15" vector-effect="non-scaling-stroke"/><path stroke="#9ea6cd" d="M166.47 196.84q-2.11-3.31-4.78-6.38c-2.07-2.4-1.96-3.94.08-6.24" vector-effect="non-scaling-stroke"/><path stroke="#32418e" d="m165.79 199.2-.53 20.7" vector-effect="non-scaling-stroke"/><path stroke="#949ac0" d="m166.47 196.84-.68 2.36" vector-effect="non-scaling-stroke"/><path stroke="#9ea6cd" d="m165.79 199.2-10.41-6.97" vector-effect="non-scaling-stroke"/><path stroke="#32418e" d="M215.52 167.93q-6.02.4-8.75 4.1-8.81 11.96-16.19 24.38a1.18 1.18 0 0 1-1.86.22c-3.9-3.97-16.07-17.92-20.65-18.31" vector-effect="non-scaling-stroke"/><path stroke="#825e72" d="m167.93 178.17-6.16 6.05" vector-effect="non-scaling-stroke"/><path stroke="#e3b7a4" d="m161.77 184.22-7.49-4.34a.34.34 0 0 0-.5.32l.3 3.79q.03.43.26.8 2.4 3.82 1.04 7.44" vector-effect="non-scaling-stroke"/><path stroke="#825e72" d="M155.38 192.23q.57 6.36-3.51 9.25a1.61 1.6 56 0 1-2.28-.45l-2.33-3.64" vector-effect="non-scaling-stroke"/><path stroke="#785265" d="m184.71 161.94.82-.39" vector-effect="non-scaling-stroke"/><path stroke="#643825" d="M204.69 150.2q.01-.11-.11-.29-.17-.26.03-.51 2.66-3.34.37-6.92a.77.76 51.4 0 1 .1-.95c2.33-2.29 3.43-6.53-.3-7.39-1.96-.45-3.7 1.22-5.09 2.48q-.5.46-.84-.13-2.09-3.65 1.19-6.11a1.5 1.5 0 0 0-.55-2.66l-12.35-2.91" vector-effect="non-scaling-stroke"/><path stroke="#dcdbdb" d="m204.75 75.5.01 42.27q0 .15.14.2.12.04.27.06a.78.78 0 0 0 .84-.78l-.07-41.43q0-.12-.11-.17-.2-.09-.28-.3a.42.41 34.2 0 0-.8.15" vector-effect="non-scaling-stroke"/><path stroke="#b0b0b0" d="m110.7 102.98-1.11 3.76q-.14.46.21.13 1.81-1.73 2.14-3.77" vector-effect="non-scaling-stroke"/><path stroke="#dcdbdb" d="M111.94 103.1q.41-.56.74-1.18a.67.67 0 0 0-1.16-.66q-.31.53-.82 1.72" vector-effect="non-scaling-stroke"/><path stroke="#8c8b8b" d="m111.94 103.1-1.24-.12" vector-effect="non-scaling-stroke"/><path stroke="#b0b0b0" d="M117.021 106.442a1.3.73 122 0 0 1.308-.715 1.3.73 122 0 0 .07-1.49 1.3.73 122 0 0-1.308.716 1.3.73 122 0 0-.07 1.49" vector-effect="non-scaling-stroke"/><path stroke="#949ac0" d="m291.39 118.97.02 11.52a1.34 1.3-23.1 0 1-.39.93q-2.15 2.08-4.43.18a1.19 1.18-87.9 0 0-1.72 1.6c2.33 3.28 8.95 2.25 9.05-2.71q.11-5.55.08-11.1-.01-.55-.55-.66l-1.42-.29q-.64-.13-.64.53M305.66 119.02q.1 5.63.11 11.28c0 6.7 10.84 6.73 11.11-.63q.19-5.13.11-10.29-.01-.58-.59-.68l-1.56-.25q-.84-.14-.84.72v11.89a1.14 1.12-12.9 0 1-.65 1.02q-2.33 1.08-4.58-.13a1.01 1 14.7 0 1-.52-.88v-11.61q0-.56-.55-.68l-1.37-.3q-.68-.15-.67.54M330.73 129.83l-4.92-10.58q-.23-.5-.78-.5h-2.51q-.72 0-.73.72l-.06 15.02q0 .51.51.51H324q.5 0 .5-.5l.01-10.69a.31.3 32.1 0 1 .58-.13l5.19 10.51a2.09 2.09 0 0 0 3.97-.93v-13.8q0-.56-.55-.68l-1.44-.32q-.66-.14-.68.54l-.3 10.72q-.03 1.23-.55.11M352.71 121.28l3.09-.09a1.26 1.25-45.9 0 0-.04-2.51l-9.72.07q-.75.01-.55.73l.35 1.2q.16.57.75.57h2.53q.63 0 .63.63v12.37q0 .75.75.75h.44q1.44 0 1.42-1.44l-.15-11.76q-.01-.51.5-.52M407.76 131.93l-.33-3.23q-.08-.7.63-.7h4.46a1.24 1.24 0 0 0 .34-2.44q-2.13-.6-4.29-.03a.68.68 0 0 1-.85-.6l-.26-2.97a.65.65 0 0 1 .65-.71h5.97q.58 0 .7-.57l.27-1.38q.13-.63-.51-.62l-9.09.1a.77.76 89.6 0 0-.75.77l.16 14.79q0 .66.67.66l8.94-.01a.53.52 0 0 0 .53-.52v-1.33q0-.61-.61-.63l-6.21-.18q-.38-.01-.42-.4M419.82 133.85q-.11.31-.09.65.02.5.53.5h8.36q.63 0 .63-.63v-1.3q0-.62-.62-.64l-5.47-.12q-.63-.01-.62-.64l.2-12.23q.01-.57-.55-.68l-1.62-.3a.59.58 7 0 0-.69.53q-.43 7 .07 13.91.04.49-.13.95M435.61 124.82l-.14-3.11a.58.57-.9 0 1 .59-.6l5.97.2a.74.73 6 0 0 .74-.59l.27-1.38q.12-.56-.46-.57l-8.71-.07q-1.13-.01-1.12 1.12l.04 14.08q0 1.12 1.11 1.11l8.32-.04q.46 0 .62-.42.53-1.36-.23-1.96-.49-.37-1.77-.29-2.31.13-4.67.09-.49 0-.49-.49v-3.36a.54.54 0 0 1 .53-.54l4.39-.01a.65.65 0 0 0 .65-.65v-1.41a.56.55 89 0 0-.57-.56l-4.3.17a.75.75 0 0 1-.77-.72M479.4 132.1q-2.32 1.04-4.56-.08-.59-.29-.59-.95v-11.82q0-.5-.5-.5h-1.52q-.6 0-.58.6c.22 5.81-2.85 17.15 7.05 15.43 6.12-1.06 4.37-11.07 4.24-15.63q-.02-.62-.63-.63l-1.55-.03q-.76-.01-.76.75v11.94a1.03 1.03 0 0 1-.6.92M341.63 119.118a.34.34 0 0 0-.338-.342l-2.16-.011a.34.34 0 0 0-.341.338l-.082 15.54a.34.34 0 0 0 .339.341l2.16.011a.34.34 0 0 0 .341-.338l.082-15.54M369.63 124.49q-.82-1.71.29-3.26a.96.94 23.7 0 1 .97-.37l4.18.89a.85.85 0 0 0 1.02-.97c-.71-4.34-13.61-2.1-8.21 5.41q.34.47-.07.87l-.66.67q-.36.36-.49.85c-1.81 6.74 7.06 8.73 10.18 3.81a.66.59 65.2 0 0 .09-.29l.17-3.77q.02-.5.52-.55 1.53-.14 1.37-1.63-.06-.65-.72-.65H375a.45.45 0 0 0-.44.54q.47 2.39-.12 4.8a2.47 2.46-77.2 0 1-2.9 1.83c-3.97-.84-3.02-5.41.12-5.15a.98.97-34.7 0 0 .35-1.91l-1.6-.46q-.54-.15-.78-.66M391.98 124.03l.12-2.1q.04-.61.64-.73 3.23-.65 6.09.93a.46.46 0 0 0 .68-.39c.12-3.62-3.43-2.91-5.69-2.97-6.04-.16-6.36 8.23-.47 8.94q1.66.2 3.39.53.67.13.7.82l.08 2.08a.86.84 73.3 0 1-.41.78c-3.47 2.13-4.03-.54-6.61-.43a1.24 1.23-31.4 0 0-.56 2.31c3.43 1.92 8.84 2.15 10.2-2.44q.93-3.16-1.91-5.57a1.32 1.31-26.7 0 0-.95-.31q-2.5.21-4.84-.73a.73.72-77.9 0 1-.46-.72M456.22 129.22a.29.29 0 0 1-.55.12l-4.95-9.9a2.11 2.11 0 0 0-3.99.95l.07 14.01q0 .6.6.6h1.51q.66 0 .65-.66l-.03-10.35a.34.34 0 0 1 .64-.16l5.17 10.36a2.06 2.06 0 0 0 3.91-.92v-13.9q0-.62-.62-.62h-1.58q-.46 0-.48.46l-.35 10.01M467.487 119.308a.56.56 0 0 0-.561-.56l-1.62.003a.56.56 0 0 0-.56.561l.027 15.12a.56.56 0 0 0 .561.56l1.62-.003a.56.56 0 0 0 .56-.561l-.027-15.12M491.21 123.88c.88 1.77 1.89 7.06 4.89 6.13q.5-.16.72-.64l2.48-5.31a.41.41 0 0 1 .78.19l-.32 9.97q-.02.66.63.71l1.32.1q.54.04.54-.5v-15.28q0-.5-.5-.5h-2.54q-.56 0-.76.53l-2.8 7.45a.44.44 0 0 1-.82.01l-2.99-7.53a.73.72-10.5 0 0-.68-.46h-2.91q-.5 0-.5.5v15.13q0 .64.64.63l1.44-.03q.6-.02.62-.62l.19-10.35q.03-1.23.57-.13" vector-effect="non-scaling-stroke"/><path stroke="#dcdbdb" d="M54.61 142.71a.49.49 0 0 0-.49-.49H30.38a.49.49 0 0 0-.49.49v.3a.49.49 0 0 0 .49.49h23.74a.49.49 0 0 0 .49-.49v-.3" vector-effect="non-scaling-stroke"/><path stroke="#b0b0b0" d="M337.31 160.48q-1.79.66-3.32-.34a1.09 1.08-73.6 0 1-.49-.91v-7.73a.5.5 0 0 0-.51-.5q-.18 0-.36.03-.64.08-.64.72-.04 3.8.24 7.61c.25 3.49 6.86 4.19 7.11-.37q.19-3.7.17-7.41a.68.66 12.4 0 0-.4-.61l-.47-.22a.45.45 0 0 0-.64.41v8.33a1.07 1.05-10.4 0 1-.69.99M287.29 157.18h3.2a.51.51 0 0 0 .01-1.02l-3.46-.08a.49.49 0 0 1-.47-.54l.25-2.61q.07-.68.75-.68h3.68a.59.59 0 0 0 .01-1.18l-5.11-.1q-.65-.01-.65.64v10.09a.61.6 45.4 0 0 1.21.01l.06-4.01a.52.52 0 0 1 .52-.52M302.457 153.9a2.88 2.88 0 0 0-2.895-2.864l-1.66.008a2.88 2.88 0 0 0-2.865 2.895l.026 4.98a2.88 2.88 0 0 0 2.895 2.865l1.66-.008a2.88 2.88 0 0 0 2.865-2.895l-.026-4.98M306.76 158.42a1.12 1.12 0 0 1 2.06-.59l2.38 3.78a.62.62 0 0 0 1.08-.61l-1.45-2.94a.53.52 57.2 0 1 .13-.63q2.94-2.51.57-6a.77.77 0 0 0-.64-.34l-4.99-.09a.54.54 0 0 0-.55.55l.21 10q.01.44.46.45h.34a.38.37-88.5 0 0 .38-.37l.02-3.21M323.7 151.66q-1.73 5.04-3.17 9.61-.29.9.85.82.46-.03.56-.48l.36-1.69q.12-.54.64-.73 4.04-1.45 4.86 1.97a.57.33-75.1 0 0 .03.11q.36.92 1.05.7.55-.19.38-.74l-3.05-9.5a.91.91 0 0 0-.68-.62l-.65-.12a1.03 1.03 0 0 0-1.18.67M346.75 152.53a.28.28 0 0 1 .28-.28h2.31a.28.28 0 0 0 .27-.2l.22-.68a.28.28 0 0 0-.27-.36l-6.75-.02a.28.28 0 0 0-.28.28v.7a.28.28 0 0 0 .28.28h2.41a.28.28 0 0 1 .28.28v9a.28.28 0 0 0 .14.24l.68.41a.28.28 0 0 0 .42-.24l.01-9.41M359.531 153.976a2.9 2.9 0 0 0-2.864-2.935l-1.68-.02a2.9 2.9 0 0 0-2.935 2.864l-.063 5.18a2.9 2.9 0 0 0 2.864 2.934l1.68.02a2.9 2.9 0 0 0 2.935-2.864l.063-5.18M367.65 156.48l-1.92-4.81a1.2 1.2 0 0 0-2.31.44l-.06 9.32q0 .57.57.57h.34q.59 0 .58-.58l-.12-6.94a.38.37 33.1 0 1 .72-.15l1.73 4.05a.98.98 0 0 0 1.81 0l1.74-4.12a.42.42 0 0 1 .81.21q-.41 3.29-.29 6.61.02.54.27.78.37.34.99.1a.8.8 0 0 0 .51-.76l-.14-9.21a1.26 1.26 0 0 0-2.42-.46l-2.03 4.95a.42.42 0 0 1-.78 0M378.44 159.02l2.74-.03q.6 0 .93.51c.4.62.61 1.96 1.02 2.33q.29.25.73.18.65-.1.44-.72l-3.06-9.44a1.41 1.41 0 0 0-2.68 0l-3.04 9.4a.54.54 0 0 0 .29.66q.66.3 1.03.01.23-.18.33-.77.15-.87.52-1.65.22-.48.75-.48M388.5 152.94v8.56q0 .49.49.5h.32q.62 0 .65-.62.17-3.33-.11-6.71-.1-1.29.23-1.85.63-1.04 2.22-.63a.47.47 0 0 0 .59-.38q.04-.27-.13-.49-.21-.27-.74-.28-3.12-.11-6.28 0a.57.57 0 0 0-.01 1.14l2.15.11a.66.65 1.9 0 1 .62.65M397.748 151.612a.56.56 0 0 0-.566-.554l-.42.005a.56.56 0 0 0-.554.565l.104 9.94a.56.56 0 0 0 .566.554l.42-.005a.56.56 0 0 0 .554-.565l-.104-9.94M407.05 158.66l-3.39-7.16a1.29 1.29 0 0 0-2.45.58l.16 9.32q.01.59.59.65l.34.04q.45.05.45-.4v-7.65a.29.29 0 0 1 .55-.12l3.56 7.64a1.25 1.25 0 0 0 2.39-.53v-9.53a.5.5 0 0 0-.51-.5h-.37q-.61-.02-.62.59l-.08 6.93a.33.33 0 0 1-.62.14M417.8 157.56a1.46 1.46 0 0 1 .57 2.8c-5.2 2.23-4.11-4.73-3.28-7.6a.89.89 0 0 1 1.08-.62l3.37.88a.55.55 0 0 0 .47-.98q-2.66-1.95-5.87-.59a1.09 1.05 87.9 0 0-.6.67q-1.18 3.97-.52 7.2c1.03 4.98 9.13 3.26 7.29-2.89q-.14-.5-.66-.47l-2.6.15a.45.45 0 0 0-.25.8q.82.65 1 .65M435.16 151.57c-8.67-4.48-8.74 14.56.18 9.72q.76-.41.65-1.11-.09-.53-.59-.33l-2.35.97a1.89 1.88 79.8 0 1-2.6-1.81l.18-5.69a.9.88 82.2 0 1 .61-.82q2.24-.73 4.1.67a.39.39 0 0 0 .62-.26q.12-.87-.8-1.34M440.71 158.35a1.09 1.09 0 0 1 1.97-.71q1.48 2.01 2.45 3.75.39.71.94.62.74-.12.39-.79l-1.71-3.29a.21.19 55.6 0 1 .03-.21c4.7-5.27-.1-7.22-4.79-6.69q-.57.07-.57.64l-.14 9.56a.78.78 0 0 0 .76.79q.24 0 .43-.03.42-.07.4-.5l-.16-3.14M457.489 154.033a3.02 3.02 0 0 0-3.01-3.03l-1.38-.005a3.02 3.02 0 0 0-3.03 3.01l-.018 4.939a3.02 3.02 0 0 0 3.01 3.03l1.38.005a3.02 3.02 0 0 0 3.03-3.01l.018-4.939M461.32 154.72q-.39-1.63 1.1-2.42.5-.27 1.04-.11l2.38.7a.53.53 0 0 0 .46-.94q-2.95-2.11-5.97.12a.92.91-21.4 0 0-.36.82l.29 2.95a.96.95 1.6 0 0 .81.85l3.49.49a1.63 1.63 0 0 1 .57 3.04q-2.3 1.3-4.36-.41-.39-.32-.64.12-.13.25-.11.51.03.33.45.62c3.76 2.59 9.28-.99 5.72-4.46-1.06-1.04-2.69-.74-4.1-1.1a1.07 1.06.5 0 1-.77-.78M474.79 150.83c-4.19-.4-5.36 5.38-1.51 5.95 2.05.3 4.37.2 3.34 3.24a.9.89-88.6 0 1-.59.57q-2.43.73-4.32-.77a.41.41 0 0 0-.66.25q-.17 1.01.96 1.46c6.49 2.59 8.86-5.85 1.64-5.84a1.6 1.6 0 0 1-1.02-2.84q1.72-1.41 3.72-.01 1.34.94.75-.59-.47-1.24-2.31-1.42" vector-effect="non-scaling-stroke"/><path stroke="#dcdbdb" d="M150.22 161.55a5.83.29.1 0 0-5.83-.3 5.83.29.1 0 0-5.83.28 5.83.29.1 0 0 5.83.3 5.83.29.1 0 0 5.83-.28M174.2 161.53a.26.26 0 0 0-.26-.26h-19.06a.26.26 0 0 0-.26.26v.04a.26.26 0 0 0 .26.26h19.06a.26.26 0 0 0 .26-.26v-.04" vector-effect="non-scaling-stroke"/><path stroke="#b0b0b0" d="m324.33 185.24-.78-4.2a1.16 1.15 48.3 0 0-2.24-.13l-1.33 4.35a.35.34-41.4 0 1-.67-.04l-1.33-7.88a.56.55-14 0 0-.72-.43l-.38.13q-.46.16-.35.63l2.14 9.6a1.15 1.14 42.8 0 0 2.25-.08q.34-2.32 1.24-4.48.24-.57.38.04l1.02 4.49a1.2 1.2 0 0 0 2.34-.02q1-4.72 2.04-9.46.08-.35-.03-.51-.17-.26-.62-.28a.74.73 6.4 0 0-.75.59l-1.57 7.68a.33.32-44.7 0 1-.64 0M392.83 178.28c-6.6-5.41-9.89 4.92-3.72 4.73q.79-.02 1.28.13a1.86 1.63 44 0 1 .28 3.36q-2.11.49-4.11-.66-.48-.28-.52.27l-.05.57a.74.72 14.3 0 0 .44.72c4.14 1.81 9.26-.72 5.59-5.37a.9.9 0 0 0-.86-.33q-1.54.27-2.87-.37a1.59 1.58 64.5 0 1 1.05-2.97l3.08.74a.47.47 0 0 0 .41-.82M398.22 179.01c.35 2.61.08 8.85.64 9.16a.73.73 0 0 0 1.09-.69q-.32-4.22.18-8.66.07-.6 2.38-.66a.62.61-46 0 0-.02-1.23l-7.14.05a.52.52 0 0 0-.08 1.04l2.34.37q.54.08.61.62M285.49 177.59l-.23 9.6a.76.75 2.3 0 0 .72.77c3 .15 8.83-.14 5.69-5.12q-.26-.42-.02-.85c2.76-5-2.58-5.15-5.63-4.95a.56.56 0 0 0-.53.55M298 183.71a.95.95 0 0 1 1.78-.46l2.57 4.62q.39.7.83.04l.33-.49a.22.22 0 0 0 0-.24q-1.06-1.6-1.83-3.36-.21-.48.25-.73 1.65-.91 1.58-2.86c-.14-4.02-4.1-3.41-6.67-3.21q-.52.04-.52.56l-.09 9.91q-.01.51.51.51h.76a.5.5 0 0 0 .5-.5v-3.79M314.47 180.05a3.06 3.06 0 0 0-3.06-3.06h-1.32a3.06 3.06 0 0 0-3.06 3.06v4.84a3.06 3.06 0 0 0 3.06 3.06h1.32a3.06 3.06 0 0 0 3.06-3.06v-4.84M337.78 178.36c-5.13-4.52-9.68 2.51-4.99 4.42.92.38 1.89.11 2.96.42q.47.14.69.56.72 1.38-.19 2.33c-1.28 1.31-3.29.51-4.54-.42a.45.45 0 0 0-.72.31q-.12 1.04 1.2 1.58c4.8 1.98 8.3-3 4.31-5.6q-.42-.27-.93-.21-1.36.16-2.59-.38a1.46 1.46 0 0 1-.18-2.58q2.1-1.3 3.93.34a.37.37 0 0 0 .4.06l.57-.28a.33.33 0 0 0 .08-.55M342.72 186.05l.18-2.06q.05-.57.61-.64l3.14-.38a.58.58 0 0 0 .07-1.14q-1.15-.29-2.56.13a1.96 1.66-57.7 0 1-.5-3.6q1.34-.45 3.38 0 .76.16.74-.79-.01-.57-.58-.57H342q-.75 0-.75.75v9.6a.66.66 0 0 0 .66.66l5.21-.04a.61.61 0 0 0 0-1.22h-3.75q-.71 0-.65-.7M356.95 183.33c2.5-1.4 2.27-6.07-1.37-6.32q-1.77-.12-3.68.03-.65.04-.65.7v9.76a.5.5 0 0 0 .5.5h.44q.44 0 .48-.45l.29-3.44a.97.96-58.1 0 1 1.79-.42q1.19 1.99 2.4 3.89.38.61 1.06.4a.53.53 0 0 0 .31-.76l-1.76-3.23q-.23-.42.19-.66M369.5 179.01v8.51a.67.67 0 0 0 .82.65q1.04-.23.5-1.2a.63.62 34.3 0 1-.07-.36q.43-3.72.21-7.46-.04-.53.48-.64l1.99-.42q.26-.06.29-.31l.05-.35q.06-.43-.38-.43h-6.42q-.48 0-.47.48v.28a.41.39 4.9 0 0 .35.4l2.17.3q.48.06.48.55M378.84 178.26c.7-.21 2.74.84 3.85-.13a.63.63 0 0 0-.41-1.1l-5.37-.04a.66.66 0 0 0-.66.66v9.72a.67.67 0 0 0 .69.67l5.63-.16a.37.37 0 0 0 .12-.72q-2.05-.77-4.27-.33a.62.62 0 0 1-.74-.68l.32-2.5a.73.72 3.2 0 1 .71-.63l2.45-.03q.55-.01.6-.56.01-.17-.01-.34-.07-.53-.61-.5-.95.06-2.2.36a2.05 1.62-53.2 0 1-.1-3.69M406.687 177.342a.33.33 0 0 0-.334-.326l-.72.009a.33.33 0 0 0-.326.334l.126 10.259a.33.33 0 0 0 .334.326l.72-.009a.33.33 0 0 0 .326-.334l-.126-10.259M412.99 179.25l4.13 8.22a1.07 1.07 0 0 0 2.03-.48l-.01-9.46q0-.5-.5-.54-.26-.02-.51.05-.38.1-.38.49v6.98a.35.35 0 0 1-.66.16l-3.57-7.11a1.07 1.07 0 0 0-2.03.47l-.12 9.39a.58.57 0 0 0 .59.58h.43a.42.42 0 0 0 .43-.43l-.24-8.21a.22.22 0 0 1 .41-.11M427.55 177.26c-8.83-2.48-7.24 14.79.92 9.99q.55-.33.6-.97l.26-3.45q.06-.83-.77-.83h-2.31a.57.57 0 0 0-.45.92q.37.49.97.3a1.09 1.08 87.8 0 1 1.37 1.27q-.61 2.87-3.16 2.21a1.99 1.97 7.4 0 1-1.48-1.91v-4.58a2.01 2 .7 0 1 2.06-2q1.53.04 2.84.86a.47.47 0 0 0 .7-.55q-.29-.91-1.55-1.26" vector-effect="non-scaling-stroke"/><path stroke="gray" d="M487.15 238.26a6.08 6.08 0 0 0-6.08-6.08 6.08 6.08 0 0 0-6.08 6.08 6.08 6.08 0 0 0 6.08 6.08 6.08 6.08 0 0 0 6.08-6.08" vector-effect="non-scaling-stroke"/><path stroke="#b0b0b0" d="m42.67 268.2.34 2.68a.75.75 0 0 0 1.49-.1v-3.32q0-.53-.46-.8l-7.12-4.11q-.45-.26-.89 0l-7.07 4.14a.94.93 75 0 0-.46.81v8.11q0 .56.48.84l4.22 2.51a.76.75-9.3 0 0 .88-1.22q-1.45-1.23-3.27-1.93a.77.76-80.6 0 1-.48-.68l-.3-6.55a.96.95 73.8 0 1 .48-.88l5.62-3.27a.78.76 44.3 0 1 .75 0l5.31 3.06q.41.23.48.71M58.63 274.83l2.72-.27a.6.59 80.5 0 1 .63.46q.29 1.23 1.54 1.25a.62.62 0 0 0 .59-.83l-2.6-7.15a1.47 1.47 0 0 0-2.77 0l-2.21 6.1q-.16.45-.64.41l-4.52-.42a.49.49 0 0 1-.44-.52l.34-5.57a.47.46-80.3 0 0-.34-.49l-.88-.24q-.8-.22-.8.62v7.58q0 .57.57.54 3.64-.17 7.24-.32.85-.04 1.13-.81a.52.51 7.1 0 1 .44-.34M67.79 271.48q.84.91 1.41 2.08a.79.78 47.4 0 0 1.38.06l.8-1.36a.33.33 0 0 1 .62.17v3.07q0 .75.75.75h.48a.77.77 0 0 0 .77-.79l-.24-7.5a.54.54 0 0 0-.86-.42q-1.74 1.27-2.35 3.4a.74.74 0 0 1-1.36.15L67.46 268a1.02 1.02 0 0 0-1.91.52l.12 7.26a.87.86 49.2 0 0 1.72.13q.34-2.1-.09-4.18-.2-1 .49-.25M96.14 274.83l2.39-.32a.59.59 0 0 1 .67.51q.2 1.42 1.56 1.24.65-.09.43-.71l-2.5-7.03a1.57 1.57 0 0 0-2.96-.02l-2.61 7.04a.71.7 77.9 0 0 1.15.75l1.05-1.05q.34-.34.82-.41M82.645 269.08a1.33 1.33 0 0 0-1.346-1.315l-4.06.05a1.33 1.33 0 0 0-1.313 1.346l.069 5.66a1.33 1.33 0 0 0 1.346 1.313l4.06-.05a1.33 1.33 0 0 0 1.313-1.345l-.069-5.66M84.73 268.68v6.58a.96.96 0 0 0 .96.96h2.56a3.76 3.68 0 0 0 3.76-3.68v-1.14a3.76 3.68 0 0 0-3.76-3.68h-2.56a.96.96 0 0 0-.96.96M107.3 269.48q1.58.44 1.98-.99.22-.74-.56-.74h-5.98a.85.85 0 0 0-.13 1.69q.63.09 1.55.06.53-.02.53.51l-.06 5.29a.99.99 0 0 0 1.69.7q.53-.54.44-1.76-.14-2.03-.27-4.11a.64.63-83.6 0 1 .81-.65M112.54 274.04q-.21-.66.15-1.03.31-.32 1.14-.24 1.36.13 2.48-.15a.71.7 41.8 0 0-.08-1.38l-2.86-.4q-.51-.07-.74-.54-.22-.46.64-.87.44-.2.92-.16c.77.07 1.16.41 1.91.11q.71-.27.9-1.01.17-.62-.47-.62h-5.3a.7.7 0 0 0-.7.7l-.04 7.14a.66.66 0 0 0 .66.66h5.09q1.03 0 .72-.99l-.1-.31q-.14-.45-.61-.45h-3.07q-.49 0-.64-.46M123.09 274.39q-2.3.32-4.38-.86a.55.55 0 0 0-.69.83c3.24 3.8 9.51.86 6.94-2.06-.86-.98-2.92-1.05-4.21-1.65a.78.78 0 0 1 .54-1.46l2.76.79a.67.67 0 0 0 .67-1.1c-2.1-2.25-8.03-1.18-6.02 2.62a1.22 1.19-4.8 0 0 .71.59l3.77 1.17a.58.58 0 0 1-.09 1.13M128.75 270v5.25a1.08 1.08 0 0 0 1.72.87q.92-.68.73-2.15-.25-1.88-.21-3.88.01-.47.48-.53l1.65-.2a.81.81 0 0 0-.09-1.61h-6.15q-.63 0-.63.63v.62q0 .5.5.5h1.5q.5 0 .5.5" vector-effect="non-scaling-stroke"/><path stroke="#b0b0b0" d="M38.22 273.09q2.37 2.18 5.49 3.04.86.24.74-.65l-.29-2.15q-.08-.61-.61-.28l-.78.51q-.44.28-.88.02l-6.59-3.86a1.88 1.87-38.1 0 0-1.5-.18q-1.76.54-1.29 1.89a.5.5 0 0 0 .74.27q2.06-1.27 2.47.78.34 1.71-.16 7.51-.04.48.44.47 1.24-.04 1.25-1.23.04-2.87.16-5.81a.48.48 0 0 1 .81-.33" vector-effect="non-scaling-stroke"/><path stroke="#949ac0" d="M164.95 80.75a2.23 2.23 0 0 0-2.23-2.23 2.23 2.23 0 0 0-2.23 2.23 2.23 2.23 0 0 0 2.23 2.23 2.23 2.23 0 0 0 2.23-2.23M172.91 80.76a2.22 2.22 0 0 0-2.22-2.22 2.22 2.22 0 0 0-2.22 2.22 2.22 2.22 0 0 0 2.22 2.22 2.22 2.22 0 0 0 2.22-2.22M180.89 80.76a2.22 2.22 0 0 0-2.22-2.22 2.22 2.22 0 0 0-2.22 2.22 2.22 2.22 0 0 0 2.22 2.22 2.22 2.22 0 0 0 2.22-2.22" vector-effect="non-scaling-stroke"/><path stroke="#313131" d="M117.18 92.1q2.39-.86 2.43-2.86.01-.44-.25-.08l-2.18 2.94M117.18 92.1q-4.92.33-9.09-2.45a.38.38 0 0 1 .34-.68c2.82 1.05 6.88 3.36 9.26.29q.18-.25-.04-.48a.48.48 0 0 0-.7 0c-2.48 2.73-6.29.22-9.8-1.39a.97.94 44.2 0 0-.79 0l-2.17.99a.37.36-57.3 0 0 .15.7c2.99 0 9.25 5.69 12.43 3.52q.34-.24.41-.5" vector-effect="non-scaling-stroke"/><path stroke="#a48579" d="m106.7 116.61-2.29-.59q-.57-.15-.73-.71-.27-.93-.93-1.39-.61-.43-.38.28 1.02 3.02 4.28 2.85a.23.22-39 0 0 .05-.44" vector-effect="non-scaling-stroke"/><path stroke="#313131" d="m187.78 122.53-.99-1.33a.37.37 0 0 0-.6.43c2.66 3.9 8.92 4.62 13.03 3.63a2.15 2.15 0 0 1 2.56 1.51q1.06 3.72 5.18 3.32.48-.04.83.29l2.35 2.23a.35.35 0 0 0 .58-.33c-.73-3.27-4.55-2.86-6.89-3.54a1.02 1.02 0 0 1-.71-.76q-.91-4.24-4.8-3.86c-4.2.41-6.39.39-9.82-1.04q-.43-.18-.72-.55" vector-effect="non-scaling-stroke"/><path stroke="#a55e55" d="M67.735 171.971a.25.25 0 0 0-.343-.086.25.25 0 0 0-.086.343l5.28 8.82a.25.25 0 0 0 .342.087.25.25 0 0 0 .086-.343l-5.28-8.82M91.466 191.138a1.13.84 74.3 0 0 .503-1.315 1.13.84 74.3 0 0-1.115-.86 1.13.84 74.3 0 0-.503 1.314 1.13.84 74.3 0 0 1.115.86" vector-effect="non-scaling-stroke"/><path stroke="#946755" d="M194.45 133.08c-.83-1.19-2.09-2.35-3.8-1.98a.44.44 0 0 0 .08.86q1.97.07 3.42 1.38a.2.2 0 0 0 .3-.26M190.65 136.705a1.28.77 114.5 0 0 1.23-.846 1.28.77 114.5 0 0-.17-1.484 1.28.77 114.5 0 0-1.23.846 1.28.77 114.5 0 0 .17 1.484M204.263 135.37a2.02.49-32 0 0-1.973.654 2.02.49-32 0 0-1.453 1.486 2.02.49-32 0 0 1.973-.654 2.02.49-32 0 0 1.453-1.486" vector-effect="non-scaling-stroke"/><path stroke="#b0b0b0" d="M301.15 153.867a1.63 1.63 0 0 0-1.666-1.593l-1.48.034a1.63 1.63 0 0 0-1.592 1.666l.118 5.2a1.63 1.63 0 0 0 1.666 1.592l1.48-.034a1.63 1.63 0 0 0 1.592-1.666l-.118-5.2M310.962 153.52a1.15 1.15 0 0 0-1.117-1.182l-1.92-.054a1.15 1.15 0 0 0-1.181 1.117l-.046 1.64a1.15 1.15 0 0 0 1.117 1.181l1.92.054a1.15 1.15 0 0 0 1.181-1.117l.046-1.64M323.35 157.18a.47.47 0 0 0 .47.6l2.43-.05a.47.47 0 0 0 .43-.62l-1.29-3.88a.47.47 0 0 0-.9.02l-1.14 3.93M358.043 153.81a1.48 1.48 0 0 0-1.467-1.493l-1.54-.014a1.48 1.48 0 0 0-1.493 1.468l-.046 5.26a1.48 1.48 0 0 0 1.467 1.492l1.54.014a1.48 1.48 0 0 0 1.493-1.468l.046-5.26M378.34 157.13a.45.45 0 0 0 .44.57l2.29-.03a.45.45 0 0 0 .42-.58l-1.19-3.87a.45.45 0 0 0-.87.01l-1.09 3.9M444.987 153.437a1.07 1.07 0 0 0-1.036-1.103l-2.1-.066a1.07 1.07 0 0 0-1.102 1.036l-.056 1.759a1.07 1.07 0 0 0 1.036 1.103l2.1.066a1.07 1.07 0 0 0 1.102-1.036l.056-1.759M456.032 153.96a1.72 1.72 0 0 0-1.705-1.735l-1.06-.01a1.72 1.72 0 0 0-1.735 1.706l-.044 5.06a1.72 1.72 0 0 0 1.705 1.734l1.06.01a1.72 1.72 0 0 0 1.735-1.706l.044-5.06M290.89 179.594a1.3 1.3 0 0 0-1.297-1.303l-1.58-.002a1.3 1.3 0 0 0-1.302 1.297l-.002.86a1.3 1.3 0 0 0 1.298 1.303l1.58.002a1.3 1.3 0 0 0 1.302-1.297l.002-.86M290.947 184.232a1.23 1.23 0 0 0-1.218-1.243l-1.78-.018a1.23 1.23 0 0 0-1.242 1.217l-.014 1.28a1.23 1.23 0 0 0 1.218 1.243l1.78.018a1.23 1.23 0 0 0 1.242-1.217l.014-1.28M301.931 179.326a1.09 1.09 0 0 0-1.112-1.066l-2 .041a1.09 1.09 0 0 0-1.067 1.113l.037 1.74a1.09 1.09 0 0 0 1.112 1.066l2-.041a1.09 1.09 0 0 0 1.067-1.113l-.037-1.74M313.046 179.912a1.71 1.71 0 0 0-1.686-1.734l-1.08-.015a1.71 1.71 0 0 0-1.734 1.686l-.072 5.18a1.71 1.71 0 0 0 1.686 1.733l1.08.015a1.71 1.71 0 0 0 1.734-1.686l.072-5.18M357.129 180.032a2.3 2.07-5.7 0 0-2.495-1.832 2.3 2.07-5.7 0 0-2.083 2.288 2.3 2.07-5.7 0 0 2.495 1.832 2.3 2.07-5.7 0 0 2.083-2.288M228.511 191.26a5.46 4.79-42.1 0 0-7.262.106 5.46 4.79-42.1 0 0-.84 7.214 5.46 4.79-42.1 0 0 7.262-.106 5.46 4.79-42.1 0 0 .84-7.214" vector-effect="non-scaling-stroke"/><path stroke="#b0b0b0" d="M227.7 192.21a4.24 3.62-40.6 0 0-5.576.011 4.24 3.62-40.6 0 0-.863 5.508 4.24 3.62-40.6 0 0 5.575-.01 4.24 3.62-40.6 0 0 .863-5.508" vector-effect="non-scaling-stroke"/><path stroke="#e98c7c" d="M98.852 225.118a2.73.81 34.8 0 0-1.78-2.223 2.73.81 34.8 0 0-2.704-.893 2.73.81 34.8 0 0 1.78 2.223 2.73.81 34.8 0 0 2.704.893M94.85 224.33l-1.08-.62q-.34-.2-.55.15-.07.12-.21.22a1.16.84-2.2 0 0 1.68 1.12q.32-.23.32-.59a.33.31-75.9 0 0-.16-.28" vector-effect="non-scaling-stroke"/><path stroke="#f5aea5" d="M534 259.27 493.51 300" vector-effect="non-scaling-stroke"/><path stroke="#949ac0" d="m534 287.33-.29-1.04q-.12-.44-.44-.11L520.02 300" vector-effect="non-scaling-stroke"/><path stroke="#b0b0b0" d="m59.67 270.26-.71 2.24q-.19.58.42.54l1.24-.06a.68.68 0 0 0 .62-.87l-.53-1.84q-.49-1.72-1.04-.01M96.1 272.63a.36.36 0 0 0 .33.47l1.61.04a.36.36 0 0 0 .35-.45l-.73-2.64a.36.36 0 0 0-.69-.02l-.87 2.6M80.831 270.315a1.58 1.17 6 0 0-1.449-1.329 1.58 1.17 6 0 0-1.693.999 1.58 1.17 6 0 0 1.449 1.329 1.58 1.17 6 0 0 1.693-.999M81.135 273.447a1.77 1.18-4.3 0 0-1.854-1.044 1.77 1.18-4.3 0 0-1.676 1.31 1.77 1.18-4.3 0 0 1.853 1.044 1.77 1.18-4.3 0 0 1.677-1.31M86.76 269.9l-.02 4.06a.69.69 0 0 0 .69.7h.52a2.1 2.05-89.8 0 0 2.06-2.09v-1.24a2.1 2.05-89.8 0 0-2.04-2.11h-.52a.69.69 0 0 0-.69.68" vector-effect="non-scaling-stroke"/></g><path fill="#fff" d="M0 0h534v173.82l-.29-1.72q-.09-.55-.49-.16-16.29 16.22-32.6 32.44-8.63 8.58-2.13 16.37c4.17 5 10.79 6.52 15.83 1.81q4.73-4.41 19.68-19.92v26.42q-.3-.13-.25-.55a.25.25 0 0 0-.43-.2l-70.6 70.93a.34.33-41.6 0 0-.03.44l.25.32H0V0Zm150.91 90.08q2.21 2.95 5.82 4.96 2.47 1.38 7.12 2.41 13.51 2.99 27.11 5.73.53.11.53-.43.02-8.12.02-16.2c0-10.31-1.12-16.43-10.07-21.28-3.8-6.59-8.94-8.05-16.75-8.09q-9.79-.04-19.57.09c-13.64.17-18.82 4.72-18.88 18.68q-.05 9.02.04 18.07 0 .5.49.41l24.14-4.35Zm-71.08 30.41q-1.28-.11-1.52.2c-8.24.85-18.46 2.88-20.6 12.6q-3.8 17.2-7.04 34.82-2.69 7.31 1.27 14.25c-2.54 5.44-11.47 23.4-10.44 28.59q.21 1.04 1.85 4.47l-.8 9.34-.95 1-10.94-.2q-.66-.02-.66.65v5.13a.66.66 0 0 0 .66.66h211.53a1.11 1.1 89.7 0 0 1.1-1.12l-.06-4.95q-.01-.55-.56-.52l-4.56.31q-.3.02-.39-.27-.04-.12-.04-.26 1.17-2.17 1.85-4.06 6.5-18.03 12.13-35.21.56-1.71-1.23-1.71l-27.3-.05q3.22-11.74-7.61-16.23l-7.47-3.22q-.48-.2-.68.28c-1.49 3.57-6.32 5.69-9.71 6.83-7.07 2.38-13.95.56-14.18-8.22a1.13 1.12 68 0 1 .35-.84l.88-.82.43.04q.69.07.2.55l-.52.53q-.37.37-.37.89c.2 13.22 15.96 6.85 21.36 2.22a1.14 1.14 0 0 0-.25-1.89l-.72-.35q-.47-.22-.58-.73-1.35-6.35 0-12.69.06-.31.43-.31 5.91-1.79 5.89-7.41 0-.59.44-.98l2.11-1.89a.92.91 73.7 0 0 .3-.55q.4-2.56-.66-4.86-.23-.5-.12-1.04c.78-3.71 2.76-7-2.96-8.05a.61.61 0 0 1-.5-.61q.08-5.8-5.54-5.11-.43.05-.63-.32l-1.45-2.67a1.05 1.05 0 0 0-.43-.43q-2.95-1.6-5.72.29a.79.79 0 0 1-.85.02l-2.75-1.69a.85.85 0 0 0-1.08.17q-2.11 2.42-5.17 3.23a1.51 1.51 0 0 0-1.12 1.38q-.14 3.02 2.69 5.13-8.08 10.42-6.48 23.76.82 6.81 7.23 8.77.47.14.56.64c.27 1.58-.56 4.71-2.92 3.57l-.46-.32q-.31-.22-.69-.21c-13.18.47-14.63 4.73-16.31 17.3q-.07-.07-.14-.15-4.73-5.35-8.87-10.6c-1.17-1.47-2.04-2.13-3.89-1.8a1.13 1.13 0 0 1-1.33-1.12l.02-7.08a.98.98 0 0 0-1.91-.29q-.95 3.03-.2 6.48.33 1.5-1.47 2a.78.77-.7 0 0-.55.56q-.67 2.76-3.04 4.11a.72.71-29.1 0 0-.28.96c.92 1.77.51 4.57 1.45 5.59q.94 1.02 2.87.17 1.04-.46.96.67-.11 1.6.04 3.68.12 1.59-.47 2.18a.3.3 0 0 1-.51-.21q-.02-1.23-.91-1.45-.53-.13-1.01.12l-3.06 1.65q-.42.23-.68.63-1.86 2.82-2.99 6.02-.17.48.15.87l5.01 6.08q-2.7 3.17-1.2 4.8 4.78 5.17 19.2 17.71l.27 2.38q-1.21 1.04-3.47.68a.45.44-3.3 0 0-.5.56q.17.61 1.07 1.61l-16.69.15-5.21-.01q-.89-.01-.16-.51l1.03-.71a.62.62 0 0 0-.2-1.12l-3.83-.96a.63.62 77.9 0 1-.37-.24c-4.48-5.7-10.32-3.18-16.58-.9a1.04 1-3.7 0 0-.64.7l-.78 3.05q-.13.49-.61.63-1.27.35-2.44-.31.74-1.05.59-1.68-.09-.4-.5-.36l-1.88.18q-.67.07-.56-.59.58-3.34-.21-6.57-.16-.63-.8-.63h-8.13a2.46 2.46 0 0 0-2.35 3.17q1.43 4.77-1.51 3.56.28-1.39.03-1.75l-.3-1.15q-.13-.49.13-.93.75-1.23-.1-2.21-.34-.39-.17-.89.3-.89-.63-1.32-.11-.73.09-.73l4.46-19.34q.18-.76.49-.05 4.98 11.16 9.33 22.57c1.93 5.03 11.13 1.26 13.71-.7a2.55 2.55 0 0 0 .9-2.79q-5.19-16.72-10.23-33.54-1.09-3.65-1.16-7.43-.37-18.73-.36-37.48 0-8.78-10.2-10.61 5.14-3.85 7.55-8.69.25-.51.76-.75l1.72-.81q.48-.22.37-.74l-1.57-7.9a.71.71 0 0 0-1.25-.3l-2.99 3.78a2.23 2.23 0 0 1-3.87-.66q-.43-1.28.17-2.35a.78.78 0 0 0-.18-.99q-1.62-1.33-3.76-1.54-.43-.61-1.52-.64c-1.76-1.26-1.13-3.4-3.25-4.82q.14-.51.77-.81c2.13 1.71 1.8 4.51 4.85 4.57.79 1.82 2.42.34 3.39 1.49q.31.36.67.05.52-.45.9-1.24 1.22-2.49 5.16-1.26-1.56 2.59 1.23 3.28.47.11.84-.2 1.11-.96 1.19-1.87 3.38-1.34-.5-7.02-.34.4-.5-.4c7.79-3.57 4.86-13.61-3.82-11.65-1.92.44-3.38.59-5.35-.22-5.93-2.45-13.53-2.82-16.34 4.2q-.18.45-.64.61-5.08 1.79-4.66 7.58.36 5.1.72 15.24.08 2.29 2.62 1.93l-1.06 2.67-2.36 2.84-4.36 3.09q0-21.62.19-43.1.01-1.12-.65-1.51a.72.71-74.4 0 0-1.08.61q-.13 15.44-.15 30.19c0 3.73.52 9.33-.2 14.2ZM204.75 75.5l.01 42.27q0 .15.14.2.12.04.27.06a.78.78 0 0 0 .84-.78l-.07-41.43q0-.12-.11-.17-.2-.09-.28-.3a.42.41 34.2 0 0-.8.15Zm-94.05 27.48-1.11 3.76q-.14.46.21.13 1.81-1.73 2.14-3.77.41-.56.74-1.18a.67.67 0 0 0-1.16-.66q-.31.53-.82 1.72Zm6.321 3.462a1.3.73 122 0 0 1.308-.715 1.3.73 122 0 0 .07-1.49 1.3.73 122 0 0-1.308.716 1.3.73 122 0 0-.07 1.49ZM291.39 118.97l.02 11.52a1.34 1.3-23.1 0 1-.39.93q-2.15 2.08-4.43.18a1.19 1.18-87.9 0 0-1.72 1.6c2.33 3.28 8.95 2.25 9.05-2.71q.11-5.55.08-11.1-.01-.55-.55-.66l-1.42-.29q-.64-.13-.64.53Zm14.27.05q.1 5.63.11 11.28c0 6.7 10.84 6.73 11.11-.63q.19-5.13.11-10.29-.01-.58-.59-.68l-1.56-.25q-.84-.14-.84.72v11.89a1.14 1.12-12.9 0 1-.65 1.02q-2.33 1.08-4.58-.13a1.01 1 14.7 0 1-.52-.88v-11.61q0-.56-.55-.68l-1.37-.3q-.68-.15-.67.54Zm25.07 10.81-4.92-10.58q-.23-.5-.78-.5h-2.51q-.72 0-.73.72l-.06 15.02q0 .51.51.51H324q.5 0 .5-.5l.01-10.69a.31.3 32.1 0 1 .58-.13l5.19 10.51a2.09 2.09 0 0 0 3.97-.93v-13.8q0-.56-.55-.68l-1.44-.32q-.66-.14-.68.54l-.3 10.72q-.03 1.23-.55.11Zm21.98-8.55 3.09-.09a1.26 1.25-45.9 0 0-.04-2.51l-9.72.07q-.75.01-.55.73l.35 1.2q.16.57.75.57h2.53q.63 0 .63.63v12.37q0 .75.75.75h.44q1.44 0 1.42-1.44l-.15-11.76q-.01-.51.5-.52Zm55.05 10.65-.33-3.23q-.08-.7.63-.7h4.46a1.24 1.24 0 0 0 .34-2.44q-2.13-.6-4.29-.03a.68.68 0 0 1-.85-.6l-.26-2.97a.65.65 0 0 1 .65-.71h5.97q.58 0 .7-.57l.27-1.38q.13-.63-.51-.62l-9.09.1a.77.76 89.6 0 0-.75.77l.16 14.79q0 .66.67.66l8.94-.01a.53.52 0 0 0 .53-.52v-1.33q0-.61-.61-.63l-6.21-.18q-.38-.01-.42-.4Zm12.06 1.92q-.11.31-.09.65.02.5.53.5h8.36q.63 0 .63-.63v-1.3q0-.62-.62-.64l-5.47-.12q-.63-.01-.62-.64l.2-12.23q.01-.57-.55-.68l-1.62-.3a.59.58 7 0 0-.69.53q-.43 7 .07 13.91.04.49-.13.95Zm15.79-9.03-.14-3.11a.58.57-.9 0 1 .59-.6l5.97.2a.74.73 6 0 0 .74-.59l.27-1.38q.12-.56-.46-.57l-8.71-.07q-1.13-.01-1.12 1.12l.04 14.08q0 1.12 1.11 1.11l8.32-.04q.46 0 .62-.42.53-1.36-.23-1.96-.49-.37-1.77-.29-2.31.13-4.67.09-.49 0-.49-.49v-3.36a.54.54 0 0 1 .53-.54l4.39-.01a.65.65 0 0 0 .65-.65v-1.41a.56.55 89 0 0-.57-.56l-4.3.17a.75.75 0 0 1-.77-.72Zm43.79 7.28q-2.32 1.04-4.56-.08-.59-.29-.59-.95v-11.82q0-.5-.5-.5h-1.52q-.6 0-.58.6c.22 5.81-2.85 17.15 7.05 15.43 6.12-1.06 4.37-11.07 4.24-15.63q-.02-.62-.63-.63l-1.55-.03q-.76-.01-.76.75v11.94a1.03 1.03 0 0 1-.6.92Zm-137.77-12.982a.34.34 0 0 0-.338-.342l-2.16-.011a.34.34 0 0 0-.341.338l-.082 15.54a.34.34 0 0 0 .339.341l2.16.011a.34.34 0 0 0 .341-.338l.082-15.54Zm28 5.372q-.82-1.71.29-3.26a.96.94 23.7 0 1 .97-.37l4.18.89a.85.85 0 0 0 1.02-.97c-.71-4.34-13.61-2.1-8.21 5.41q.34.47-.07.87l-.66.67q-.36.36-.49.85c-1.81 6.74 7.06 8.73 10.18 3.81a.66.59 65.2 0 0 .09-.29l.17-3.77q.02-.5.52-.55 1.53-.14 1.37-1.63-.06-.65-.72-.65H375a.45.45 0 0 0-.44.54q.47 2.39-.12 4.8a2.47 2.46-77.2 0 1-2.9 1.83c-3.97-.84-3.02-5.41.12-5.15a.98.97-34.7 0 0 .35-1.91l-1.6-.46q-.54-.15-.78-.66Zm22.35-.46.12-2.1q.04-.61.64-.73 3.23-.65 6.09.93a.46.46 0 0 0 .68-.39c.12-3.62-3.43-2.91-5.69-2.97-6.04-.16-6.36 8.23-.47 8.94q1.66.2 3.39.53.67.13.7.82l.08 2.08a.86.84 73.3 0 1-.41.78c-3.47 2.13-4.03-.54-6.61-.43a1.24 1.23-31.4 0 0-.56 2.31c3.43 1.92 8.84 2.15 10.2-2.44q.93-3.16-1.91-5.57a1.32 1.31-26.7 0 0-.95-.31q-2.5.21-4.84-.73a.73.72-77.9 0 1-.46-.72Zm64.24 5.19a.29.29 0 0 1-.55.12l-4.95-9.9a2.11 2.11 0 0 0-3.99.95l.07 14.01q0 .6.6.6h1.51q.66 0 .65-.66l-.03-10.35a.34.34 0 0 1 .64-.16l5.17 10.36a2.06 2.06 0 0 0 3.91-.92v-13.9q0-.62-.62-.62h-1.58q-.46 0-.48.46l-.35 10.01Zm11.267-9.912a.56.56 0 0 0-.561-.56l-1.62.003a.56.56 0 0 0-.56.561l.027 15.12a.56.56 0 0 0 .561.56l1.62-.003a.56.56 0 0 0 .56-.561l-.027-15.12Zm23.723 4.572c.88 1.77 1.89 7.06 4.89 6.13q.5-.16.72-.64l2.48-5.31a.41.41 0 0 1 .78.19l-.32 9.97q-.02.66.63.71l1.32.1q.54.04.54-.5v-15.28q0-.5-.5-.5h-2.54q-.56 0-.76.53l-2.8 7.45a.44.44 0 0 1-.82.01l-2.99-7.53a.73.72-10.5 0 0-.68-.46h-2.91q-.5 0-.5.5v15.13q0 .64.64.63l1.44-.03q.6-.02.62-.62l.19-10.35q.03-1.23.57-.13Zm-436.6 18.83a.49.49 0 0 0-.49-.49H30.38a.49.49 0 0 0-.49.49v.3a.49.49 0 0 0 .49.49h23.74a.49.49 0 0 0 .49-.49v-.3Zm282.7 17.77q-1.79.66-3.32-.34a1.09 1.08-73.6 0 1-.49-.91v-7.73a.5.5 0 0 0-.51-.5q-.18 0-.36.03-.64.08-.64.72-.04 3.8.24 7.61c.25 3.49 6.86 4.19 7.11-.37q.19-3.7.17-7.41a.68.66 12.4 0 0-.4-.61l-.47-.22a.45.45 0 0 0-.64.41v8.33a1.07 1.05-10.4 0 1-.69.99Zm-50.02-3.3h3.2a.51.51 0 0 0 .01-1.02l-3.46-.08a.49.49 0 0 1-.47-.54l.25-2.61q.07-.68.75-.68h3.68a.59.59 0 0 0 .01-1.18l-5.11-.1q-.65-.01-.65.64v10.09a.61.6 45.4 0 0 1.21.01l.06-4.01a.52.52 0 0 1 .52-.52Zm15.167-3.28a2.88 2.88 0 0 0-2.895-2.864l-1.66.008a2.88 2.88 0 0 0-2.865 2.895l.026 4.98a2.88 2.88 0 0 0 2.895 2.865l1.66-.008a2.88 2.88 0 0 0 2.865-2.895l-.026-4.98Zm4.303 4.52a1.12 1.12 0 0 1 2.06-.59l2.38 3.78a.62.62 0 0 0 1.08-.61l-1.45-2.94a.53.52 57.2 0 1 .13-.63q2.94-2.51.57-6a.77.77 0 0 0-.64-.34l-4.99-.09a.54.54 0 0 0-.55.55l.21 10q.01.44.46.45h.34a.38.37-88.5 0 0 .38-.37l.02-3.21Zm16.94-6.76q-1.73 5.04-3.17 9.61-.29.9.85.82.46-.03.56-.48l.36-1.69q.12-.54.64-.73 4.04-1.45 4.86 1.97a.57.33-75.1 0 0 .03.11q.36.92 1.05.7.55-.19.38-.74l-3.05-9.5a.91.91 0 0 0-.68-.62l-.65-.12a1.03 1.03 0 0 0-1.18.67Zm23.05.87a.28.28 0 0 1 .28-.28h2.31a.28.28 0 0 0 .27-.2l.22-.68a.28.28 0 0 0-.27-.36l-6.75-.02a.28.28 0 0 0-.28.28v.7a.28.28 0 0 0 .28.28h2.41a.28.28 0 0 1 .28.28v9a.28.28 0 0 0 .14.24l.68.41a.28.28 0 0 0 .42-.24l.01-9.41Zm12.781 1.446a2.9 2.9 0 0 0-2.864-2.935l-1.68-.02a2.9 2.9 0 0 0-2.935 2.864l-.063 5.18a2.9 2.9 0 0 0 2.864 2.934l1.68.02a2.9 2.9 0 0 0 2.935-2.864l.063-5.18Zm8.119 2.504-1.92-4.81a1.2 1.2 0 0 0-2.31.44l-.06 9.32q0 .57.57.57h.34q.59 0 .58-.58l-.12-6.94a.38.37 33.1 0 1 .72-.15l1.73 4.05a.98.98 0 0 0 1.81 0l1.74-4.12a.42.42 0 0 1 .81.21q-.41 3.29-.29 6.61.02.54.27.78.37.34.99.1a.8.8 0 0 0 .51-.76l-.14-9.21a1.26 1.26 0 0 0-2.42-.46l-2.03 4.95a.42.42 0 0 1-.78 0Zm10.79 2.54 2.74-.03q.6 0 .93.51c.4.62.61 1.96 1.02 2.33q.29.25.73.18.65-.1.44-.72l-3.06-9.44a1.41 1.41 0 0 0-2.68 0l-3.04 9.4a.54.54 0 0 0 .29.66q.66.3 1.03.01.23-.18.33-.77.15-.87.52-1.65.22-.48.75-.48Zm10.06-6.08v8.56q0 .49.49.5h.32q.62 0 .65-.62.17-3.33-.11-6.71-.1-1.29.23-1.85.63-1.04 2.22-.63a.47.47 0 0 0 .59-.38q.04-.27-.13-.49-.21-.27-.74-.28-3.12-.11-6.28 0a.57.57 0 0 0-.01 1.14l2.15.11a.66.65 1.9 0 1 .62.65Zm9.248-1.328a.56.56 0 0 0-.566-.554l-.42.005a.56.56 0 0 0-.554.565l.104 9.94a.56.56 0 0 0 .566.554l.42-.005a.56.56 0 0 0 .554-.565l-.104-9.94Zm9.302 7.048-3.39-7.16a1.29 1.29 0 0 0-2.45.58l.16 9.32q.01.59.59.65l.34.04q.45.05.45-.4v-7.65a.29.29 0 0 1 .55-.12l3.56 7.64a1.25 1.25 0 0 0 2.39-.53v-9.53a.5.5 0 0 0-.51-.5h-.37q-.61-.02-.62.59l-.08 6.93a.33.33 0 0 1-.62.14Zm10.75-1.1a1.46 1.46 0 0 1 .57 2.8c-5.2 2.23-4.11-4.73-3.28-7.6a.89.89 0 0 1 1.08-.62l3.37.88a.55.55 0 0 0 .47-.98q-2.66-1.95-5.87-.59a1.09 1.05 87.9 0 0-.6.67q-1.18 3.97-.52 7.2c1.03 4.98 9.13 3.26 7.29-2.89q-.14-.5-.66-.47l-2.6.15a.45.45 0 0 0-.25.8q.82.65 1 .65Zm17.36-5.99c-8.67-4.48-8.74 14.56.18 9.72q.76-.41.65-1.11-.09-.53-.59-.33l-2.35.97a1.89 1.88 79.8 0 1-2.6-1.81l.18-5.69a.9.88 82.2 0 1 .61-.82q2.24-.73 4.1.67a.39.39 0 0 0 .62-.26q.12-.87-.8-1.34Zm5.55 6.78a1.09 1.09 0 0 1 1.97-.71q1.48 2.01 2.45 3.75.39.71.94.62.74-.12.39-.79l-1.71-3.29a.21.19 55.6 0 1 .03-.21c4.7-5.27-.1-7.22-4.79-6.69q-.57.07-.57.64l-.14 9.56a.78.78 0 0 0 .76.79q.24 0 .43-.03.42-.07.4-.5l-.16-3.14Zm16.779-4.317a3.02 3.02 0 0 0-3.01-3.03l-1.38-.005a3.02 3.02 0 0 0-3.03 3.01l-.018 4.939a3.02 3.02 0 0 0 3.01 3.03l1.38.005a3.02 3.02 0 0 0 3.03-3.01l.018-4.939Zm3.831.687q-.39-1.63 1.1-2.42.5-.27 1.04-.11l2.38.7a.53.53 0 0 0 .46-.94q-2.95-2.11-5.97.12a.92.91-21.4 0 0-.36.82l.29 2.95a.96.95 1.6 0 0 .81.85l3.49.49a1.63 1.63 0 0 1 .57 3.04q-2.3 1.3-4.36-.41-.39-.32-.64.12-.13.25-.11.51.03.33.45.62c3.76 2.59 9.28-.99 5.72-4.46-1.06-1.04-2.69-.74-4.1-1.1a1.07 1.06.5 0 1-.77-.78Zm13.47-3.89c-4.19-.4-5.36 5.38-1.51 5.95 2.05.3 4.37.2 3.34 3.24a.9.89-88.6 0 1-.59.57q-2.43.73-4.32-.77a.41.41 0 0 0-.66.25q-.17 1.01.96 1.46c6.49 2.59 8.86-5.85 1.64-5.84a1.6 1.6 0 0 1-1.02-2.84q1.72-1.41 3.72-.01 1.34.94.75-.59-.47-1.24-2.31-1.42Zm-324.57 10.72a5.83.29.1 0 0-5.83-.3 5.83.29.1 0 0-5.83.28 5.83.29.1 0 0 5.83.3 5.83.29.1 0 0 5.83-.28Zm23.98-.02a.26.26 0 0 0-.26-.26h-19.06a.26.26 0 0 0-.26.26v.04a.26.26 0 0 0 .26.26h19.06a.26.26 0 0 0 .26-.26v-.04Zm150.13 23.71-.78-4.2a1.16 1.15 48.3 0 0-2.24-.13l-1.33 4.35a.35.34-41.4 0 1-.67-.04l-1.33-7.88a.56.55-14 0 0-.72-.43l-.38.13q-.46.16-.35.63l2.14 9.6a1.15 1.14 42.8 0 0 2.25-.08q.34-2.32 1.24-4.48.24-.57.38.04l1.02 4.49a1.2 1.2 0 0 0 2.34-.02q1-4.72 2.04-9.46.08-.35-.03-.51-.17-.26-.62-.28a.74.73 6.4 0 0-.75.59l-1.57 7.68a.33.32-44.7 0 1-.64 0Zm68.5-6.96c-6.6-5.41-9.89 4.92-3.72 4.73q.79-.02 1.28.13a1.86 1.63 44 0 1 .28 3.36q-2.11.49-4.11-.66-.48-.28-.52.27l-.05.57a.74.72 14.3 0 0 .44.72c4.14 1.81 9.26-.72 5.59-5.37a.9.9 0 0 0-.86-.33q-1.54.27-2.87-.37a1.59 1.58 64.5 0 1 1.05-2.97l3.08.74a.47.47 0 0 0 .41-.82Zm5.39.73c.35 2.61.08 8.85.64 9.16a.73.73 0 0 0 1.09-.69q-.32-4.22.18-8.66.07-.6 2.38-.66a.62.61-46 0 0-.02-1.23l-7.14.05a.52.52 0 0 0-.08 1.04l2.34.37q.54.08.61.62Zm-112.73-1.42-.23 9.6a.76.75 2.3 0 0 .72.77c3 .15 8.83-.14 5.69-5.12q-.26-.42-.02-.85c2.76-5-2.58-5.15-5.63-4.95a.56.56 0 0 0-.53.55Zm12.51 6.12a.95.95 0 0 1 1.78-.46l2.57 4.62q.39.7.83.04l.33-.49a.22.22 0 0 0 0-.24q-1.06-1.6-1.83-3.36-.21-.48.25-.73 1.65-.91 1.58-2.86c-.14-4.02-4.1-3.41-6.67-3.21q-.52.04-.52.56l-.09 9.91q-.01.51.51.51h.76a.5.5 0 0 0 .5-.5v-3.79Zm16.47-3.66a3.06 3.06 0 0 0-3.06-3.06h-1.32a3.06 3.06 0 0 0-3.06 3.06v4.84a3.06 3.06 0 0 0 3.06 3.06h1.32a3.06 3.06 0 0 0 3.06-3.06v-4.84Zm23.31-1.69c-5.13-4.52-9.68 2.51-4.99 4.42.92.38 1.89.11 2.96.42q.47.14.69.56.72 1.38-.19 2.33c-1.28 1.31-3.29.51-4.54-.42a.45.45 0 0 0-.72.31q-.12 1.04 1.2 1.58c4.8 1.98 8.3-3 4.31-5.6q-.42-.27-.93-.21-1.36.16-2.59-.38a1.46 1.46 0 0 1-.18-2.58q2.1-1.3 3.93.34a.37.37 0 0 0 .4.06l.57-.28a.33.33 0 0 0 .08-.55Zm4.94 7.69.18-2.06q.05-.57.61-.64l3.14-.38a.58.58 0 0 0 .07-1.14q-1.15-.29-2.56.13a1.96 1.66-57.7 0 1-.5-3.6q1.34-.45 3.38 0 .76.16.74-.79-.01-.57-.58-.57H342q-.75 0-.75.75v9.6a.66.66 0 0 0 .66.66l5.21-.04a.61.61 0 0 0 0-1.22h-3.75q-.71 0-.65-.7Zm14.23-2.72c2.5-1.4 2.27-6.07-1.37-6.32q-1.77-.12-3.68.03-.65.04-.65.7v9.76a.5.5 0 0 0 .5.5h.44q.44 0 .48-.45l.29-3.44a.97.96-58.1 0 1 1.79-.42q1.19 1.99 2.4 3.89.38.61 1.06.4a.53.53 0 0 0 .31-.76l-1.76-3.23q-.23-.42.19-.66Zm12.55-4.32v8.51a.67.67 0 0 0 .82.65q1.04-.23.5-1.2a.63.62 34.3 0 1-.07-.36q.43-3.72.21-7.46-.04-.53.48-.64l1.99-.42q.26-.06.29-.31l.05-.35q.06-.43-.38-.43h-6.42q-.48 0-.47.48v.28a.41.39 4.9 0 0 .35.4l2.17.3q.48.06.48.55Zm9.34-.75c.7-.21 2.74.84 3.85-.13a.63.63 0 0 0-.41-1.1l-5.37-.04a.66.66 0 0 0-.66.66v9.72a.67.67 0 0 0 .69.67l5.63-.16a.37.37 0 0 0 .12-.72q-2.05-.77-4.27-.33a.62.62 0 0 1-.74-.68l.32-2.5a.73.72 3.2 0 1 .71-.63l2.45-.03q.55-.01.6-.56.01-.17-.01-.34-.07-.53-.61-.5-.95.06-2.2.36a2.05 1.62-53.2 0 1-.1-3.69Zm27.847-.918a.33.33 0 0 0-.334-.326l-.72.009a.33.33 0 0 0-.326.334l.126 10.259a.33.33 0 0 0 .334.326l.72-.009a.33.33 0 0 0 .326-.334l-.126-10.259Zm6.303 1.908 4.13 8.22a1.07 1.07 0 0 0 2.03-.48l-.01-9.46q0-.5-.5-.54-.26-.02-.51.05-.38.1-.38.49v6.98a.35.35 0 0 1-.66.16l-3.57-7.11a1.07 1.07 0 0 0-2.03.47l-.12 9.39a.58.57 0 0 0 .59.58h.43a.42.42 0 0 0 .43-.43l-.24-8.21a.22.22 0 0 1 .41-.11Zm14.56-1.99c-8.83-2.48-7.24 14.79.92 9.99q.55-.33.6-.97l.26-3.45q.06-.83-.77-.83h-2.31a.57.57 0 0 0-.45.92q.37.49.97.3a1.09 1.08 87.8 0 1 1.37 1.27q-.61 2.87-3.16 2.21a1.99 1.97 7.4 0 1-1.48-1.91v-4.58a2.01 2 .7 0 1 2.06-2q1.53.04 2.84.86a.47.47 0 0 0 .7-.55q-.29-.91-1.55-1.26Zm59.6 61a6.08 6.08 0 0 0-6.08-6.08 6.08 6.08 0 0 0-6.08 6.08 6.08 6.08 0 0 0 6.08 6.08 6.08 6.08 0 0 0 6.08-6.08ZM42.67 268.2l.34 2.68a.75.75 0 0 0 1.49-.1v-3.32q0-.53-.46-.8l-7.12-4.11q-.45-.26-.89 0l-7.07 4.14a.94.93 75 0 0-.46.81v8.11q0 .56.48.84l4.22 2.51a.76.75-9.3 0 0 .88-1.22q-1.45-1.23-3.27-1.93a.77.76-80.6 0 1-.48-.68l-.3-6.55a.96.95 73.8 0 1 .48-.88l5.62-3.27a.78.76 44.3 0 1 .75 0l5.31 3.06q.41.23.48.71Zm15.96 6.63 2.72-.27a.6.59 80.5 0 1 .63.46q.29 1.23 1.54 1.25a.62.62 0 0 0 .59-.83l-2.6-7.15a1.47 1.47 0 0 0-2.77 0l-2.21 6.1q-.16.45-.64.41l-4.52-.42a.49.49 0 0 1-.44-.52l.34-5.57a.47.46-80.3 0 0-.34-.49l-.88-.24q-.8-.22-.8.62v7.58q0 .57.57.54 3.64-.17 7.24-.32.85-.04 1.13-.81a.52.51 7.1 0 1 .44-.34Zm9.16-3.35q.84.91 1.41 2.08a.79.78 47.4 0 0 1.38.06l.8-1.36a.33.33 0 0 1 .62.17v3.07q0 .75.75.75h.48a.77.77 0 0 0 .77-.79l-.24-7.5a.54.54 0 0 0-.86-.42q-1.74 1.27-2.35 3.4a.74.74 0 0 1-1.36.15L67.46 268a1.02 1.02 0 0 0-1.91.52l.12 7.26a.87.86 49.2 0 0 1.72.13q.34-2.1-.09-4.18-.2-1 .49-.25Zm28.35 3.35 2.39-.32a.59.59 0 0 1 .67.51q.2 1.42 1.56 1.24.65-.09.43-.71l-2.5-7.03a1.57 1.57 0 0 0-2.96-.02l-2.61 7.04a.71.7 77.9 0 0 1.15.75l1.05-1.05q.34-.34.82-.41Zm-13.495-5.75a1.33 1.33 0 0 0-1.346-1.315l-4.06.05a1.33 1.33 0 0 0-1.313 1.346l.069 5.66a1.33 1.33 0 0 0 1.346 1.313l4.06-.05a1.33 1.33 0 0 0 1.313-1.345l-.069-5.66Zm2.085-.4v6.58a.96.96 0 0 0 .96.96h2.56a3.76 3.68 0 0 0 3.76-3.68v-1.14a3.76 3.68 0 0 0-3.76-3.68h-2.56a.96.96 0 0 0-.96.96Zm22.57.8q1.58.44 1.98-.99.22-.74-.56-.74h-5.98a.85.85 0 0 0-.13 1.69q.63.09 1.55.06.53-.02.53.51l-.06 5.29a.99.99 0 0 0 1.69.7q.53-.54.44-1.76-.14-2.03-.27-4.11a.64.63-83.6 0 1 .81-.65Zm5.24 4.56q-.21-.66.15-1.03.31-.32 1.14-.24 1.36.13 2.48-.15a.71.7 41.8 0 0-.08-1.38l-2.86-.4q-.51-.07-.74-.54-.22-.46.64-.87.44-.2.92-.16c.77.07 1.16.41 1.91.11q.71-.27.9-1.01.17-.62-.47-.62h-5.3a.7.7 0 0 0-.7.7l-.04 7.14a.66.66 0 0 0 .66.66h5.09q1.03 0 .72-.99l-.1-.31q-.14-.45-.61-.45h-3.07q-.49 0-.64-.46Zm10.55.35q-2.3.32-4.38-.86a.55.55 0 0 0-.69.83c3.24 3.8 9.51.86 6.94-2.06-.86-.98-2.92-1.05-4.21-1.65a.78.78 0 0 1 .54-1.46l2.76.79a.67.67 0 0 0 .67-1.1c-2.1-2.25-8.03-1.18-6.02 2.62a1.22 1.19-4.8 0 0 .71.59l3.77 1.17a.58.58 0 0 1-.09 1.13Zm5.66-4.39v5.25a1.08 1.08 0 0 0 1.72.87q.92-.68.73-2.15-.25-1.88-.21-3.88.01-.47.48-.53l1.65-.2a.81.81 0 0 0-.09-1.61h-6.15q-.63 0-.63.63v.62q0 .5.5.5h1.5q.5 0 .5.5Zm-90.53 3.09q2.37 2.18 5.49 3.04.86.24.74-.65l-.29-2.15q-.08-.61-.61-.28l-.78.51q-.44.28-.88.02l-6.59-3.86a1.88 1.87-38.1 0 0-1.5-.18q-1.76.54-1.29 1.89a.5.5 0 0 0 .74.27q2.06-1.27 2.47.78.34 1.71-.16 7.51-.04.48.44.47 1.24-.04 1.25-1.23.04-2.87.16-5.81a.48.48 0 0 1 .81-.33Z"/><path fill="#ea5c4a" d="M181.44 65.27q-10.59-1.97-19.14-.7c-12.77 1.91-16.69 14.57-11.39 25.51l-24.14 4.35q-.49.09-.49-.41-.09-9.05-.04-18.07c.06-13.96 5.24-18.51 18.88-18.68q9.78-.13 19.57-.09c7.81.04 12.95 1.5 16.75 8.09Z"/><path fill="#283581" d="M181.44 65.27c8.95 4.85 10.07 10.97 10.07 21.28q0 8.08-.02 16.2 0 .54-.53.43-13.6-2.74-27.11-5.73-4.65-1.03-7.12-2.41-3.61-2.01-5.82-4.96c-5.3-10.94-1.38-23.6 11.39-25.51q8.55-1.27 19.14.7Zm-16.49 15.48a2.23 2.23 0 0 0-2.23-2.23 2.23 2.23 0 0 0-2.23 2.23 2.23 2.23 0 0 0 2.23 2.23 2.23 2.23 0 0 0 2.23-2.23Zm7.96.01a2.22 2.22 0 0 0-2.22-2.22 2.22 2.22 0 0 0-2.22 2.22 2.22 2.22 0 0 0 2.22 2.22 2.22 2.22 0 0 0 2.22-2.22Zm7.98 0a2.22 2.22 0 0 0-2.22-2.22 2.22 2.22 0 0 0-2.22 2.22 2.22 2.22 0 0 0 2.22 2.22 2.22 2.22 0 0 0 2.22-2.22Z"/><path fill="#b8b6b6" d="M81.72 120.1q-.94.5-1.89.39c.72-4.87.2-10.47.2-14.2q.02-14.75.15-30.19a.72.71-74.4 0 1 1.08-.61q.66.39.65 1.51-.19 21.48-.19 43.1ZM204.76 117.77l-.01-42.27a.42.41 34.2 0 1 .8-.15q.08.21.28.3.11.05.11.17l.07 41.43a.78.78 0 0 1-.84.78q-.15-.02-.27-.06-.14-.05-.14-.2Z"/><circle cx="162.72" cy="80.75" r="2.23" fill="#fff"/><circle cx="170.69" cy="80.76" r="2.22" fill="#fff"/><circle cx="178.67" cy="80.76" r="2.22" fill="#fff"/><path fill="#010101" d="M116.97 93.81c-4 1.25-9.36-1.9-12.43-4.25a1.01 1-.4 0 0-1.4 1.42q3.46 4.38 1.45 10c-3.05-.06-2.72-2.86-4.85-4.57-2.45-1.76-4.72.96-4.98 3.24q-.06.5.57 3.03c.91 3.62-2.68 6.73-5.4 8.5q-1.19.21-.43.32-2.54.36-2.62-1.93-.36-10.14-.72-15.24-.42-5.79 4.66-7.58.46-.16.64-.61c2.81-7.02 10.41-6.65 16.34-4.2 1.97.81 3.43.66 5.35.22 8.68-1.96 11.61 8.08 3.82 11.65Zm.21-1.71q2.39-.86 2.43-2.86.01-.44-.25-.08l-2.18 2.94q-4.92.33-9.09-2.45a.38.38 0 0 1 .34-.68c2.82 1.05 6.88 3.36 9.26.29q.18-.25-.04-.48a.48.48 0 0 0-.7 0c-2.48 2.73-6.29.22-9.8-1.39a.97.94 44.2 0 0-.79 0l-2.17.99a.37.36-57.3 0 0 .15.7c2.99 0 9.25 5.69 12.43 3.52q.34-.24.41-.5Z"/><path fill="#606060" d="M117.18 92.1q-.07.26-.41.5c-3.18 2.17-9.44-3.52-12.43-3.52a.37.36-57.3 0 1-.15-.7l2.17-.99a.97.94 44.2 0 1 .79 0c3.51 1.61 7.32 4.12 9.8 1.39a.48.48 0 0 1 .7 0q.22.23.04.48c-2.38 3.07-6.44.76-9.26-.29a.38.38 0 0 0-.34.68q4.17 2.78 9.09 2.45Z"/><path fill="#606060" d="m117.18 92.1 2.18-2.94q.26-.36.25.08-.04 2-2.43 2.86Z"/><path fill="#e8aa91" d="M116.97 93.81q.16.8.5.4l.5 7.02q-.08.91-1.19 1.87-.37.31-.84.2-2.79-.69-1.23-3.28-2.54-4.03-5.85.61-.33.47.22.63.22.06.47.02-.38.79-.9 1.24-.36.31-.67-.05c-.97-1.15-2.6.33-3.39-1.49q2.01-5.62-1.45-10a1.01 1-.4 0 1 1.4-1.42c3.07 2.35 8.43 5.5 12.43 4.25Z"/><path fill="#606060" d="M117.47 94.21q3.88 5.68.5 7.02l-.5-7.02Z"/><path fill="#e8aa91" d="M99.74 96.41q-.63.3-.77.81-2.06-.59.6 1.45a1.28 1.26 15.4 0 1 .48.83q.27 1.98 2.02 2.93-.13.53-.02 1.01.14.56.7.41.81-.22.99-1.17 2.14.21 3.76 1.54a.78.78 0 0 1 .18.99q-.6 1.07-.17 2.35a2.23 2.23 0 0 0 3.87.66l2.99-3.78a.71.71 0 0 1 1.25.3l1.57 7.9q.11.52-.37.74l-1.72.81q-.51.24-.76.75-2.41 4.84-7.55 8.69l-4.4.48q-9.36-2-12.46-12.93c2.72-1.77 6.31-4.88 5.4-8.5q-.63-2.53-.57-3.03c.26-2.28 2.53-5 4.98-3.24Zm6.96 20.2-2.29-.59q-.57-.15-.73-.71-.27-.93-.93-1.39-.61-.43-.38.28 1.02 3.02 4.28 2.85a.23.22-39 0 0 .05-.44Z"/><path fill="#606060" d="M98.97 97.22c2.12 1.42 1.49 3.56 3.25 4.82q.11.49-.15.39-1.75-.95-2.02-2.93a1.28 1.26 15.4 0 0-.48-.83q-2.66-2.04-.6-1.45ZM114.71 100.02q-3.94-1.23-5.16 1.26-.25.04-.47-.02-.55-.16-.22-.63 3.31-4.64 5.85-.61Z"/><path fill="#b8b6b6" d="m111.94 103.1-1.24-.12q.51-1.19.82-1.72a.67.67 0 0 1 1.16.66q-.33.62-.74 1.18Z"/><path fill="#010101" d="M102.22 102.04q1.09.03 1.52.64-.18.95-.99 1.17-.56.15-.7-.41-.11-.48.02-1.01.26.1.15-.39Z"/><path fill="#606060" d="m110.7 102.98 1.24.12q-.33 2.04-2.14 3.77-.35.33-.21-.13l1.11-3.76Z"/><ellipse fill="#606060" rx="1.3" ry=".73" transform="rotate(122 29.66 85.294)"/><path fill="#e96e67" d="M89.93 111.18q3.1 10.93 12.46 12.93 3.67 5.27 4.74 10.61a.97.97 0 0 1-.52 1.05q-1.51.76-3.24.43a1.13 1.13 0 0 0-.87 2.02l3.5 2.52a2.54 2.54 0 0 1 1.04 2.35q-.97 8.34-3.67 16.25-3.71 10.91-9.68 21.34 5.13-25.24 5.04-49.89a.31.3 57.5 0 0-.58-.13l-2.41 5.14q-.25.54.01 1.07.21.41.62.83a1.33.79 37.6 0 1-1.42.84q-2.84-2.89-5.92-5.54-.58-.49-.53.27l3.3 47.65q-3.63-6.46-4.33-8.92-4.15-14.69-9.43-29.2a2.33 2.33 0 0 1 1-2.81l3.84-2.27q1.24-.73.2-1.72-3.37-3.23-6.8-2.29l-.18-2.28c2.08-2.65 1.97-5.12 3.54-8.05q1.5-2.78-1.33-2.69.24-.31 1.52-.2.95.11 1.89-.39l4.36-3.09q2.09 5.48 1.99 11.71-.01.56.39.96l4.91 4.9a.74.73-55.9 0 0 1.19-.23l2.66-6.04a1.43 1.43 0 0 0-.45-1.72q-5.97-4.44-8.33-12.42l1.06-2.67q-.76-.11.43-.32Z"/><path fill="#606060" d="M106.7 116.61a.23.22-39 0 1-.05.44q-3.26.17-4.28-2.85-.23-.71.38-.28.66.46.93 1.39.16.56.73.71l2.29.59Z"/><path fill="#e8aa91" d="M88.44 114.17q2.36 7.98 8.33 12.42a1.43 1.43 0 0 1 .45 1.72l-2.66 6.04a.74.73-55.9 0 1-1.19.23l-4.91-4.9q-.4-.4-.39-.96.1-6.23-1.99-11.71l2.36-2.84Z"/><path fill="#010101" d="M204.69 150.2q.01-.11-.11-.29-.17-.26.03-.51 2.66-3.34.37-6.92a.77.76 51.4 0 1 .1-.95c2.33-2.29 3.43-6.53-.3-7.39-1.96-.45-3.7 1.22-5.09 2.48q-.5.46-.84-.13-2.09-3.65 1.19-6.11a1.5 1.5 0 0 0-.55-2.66l-12.35-2.91q-2.83-2.11-2.69-5.13a1.51 1.51 0 0 1 1.12-1.38q3.06-.81 5.17-3.23a.85.85 0 0 1 1.08-.17l2.75 1.69a.79.79 0 0 0 .85-.02q2.77-1.89 5.72-.29a1.05 1.05 0 0 1 .43.43l1.45 2.67q.2.37.63.32 5.62-.69 5.54 5.11a.61.61 0 0 0 .5.61c5.72 1.05 3.74 4.34 2.96 8.05q-.11.54.12 1.04 1.06 2.3.66 4.86a.92.91 73.7 0 1-.3.55l-2.11 1.89q-.44.39-.44.98.02 5.62-5.89 7.41Zm-16.91-27.67-.99-1.33a.37.37 0 0 0-.6.43c2.66 3.9 8.92 4.62 13.03 3.63a2.15 2.15 0 0 1 2.56 1.51q1.06 3.72 5.18 3.32.48-.04.83.29l2.35 2.23a.35.35 0 0 0 .58-.33c-.73-3.27-4.55-2.86-6.89-3.54a1.02 1.02 0 0 1-.71-.76q-.91-4.24-4.8-3.86c-4.2.41-6.39.39-9.82-1.04q-.43-.18-.72-.55Z"/><path fill="#283581" d="M291.39 118.97q0-.66.64-.53l1.42.29q.54.11.55.66.03 5.55-.08 11.1c-.1 4.96-6.72 5.99-9.05 2.71a1.19 1.18-87.9 0 1 1.72-1.6q2.28 1.9 4.43-.18a1.34 1.3-23.1 0 0 .39-.93l-.02-11.52ZM306.33 118.48l1.37.3q.55.12.55.68v11.61a1.01 1 14.7 0 0 .52.88q2.25 1.21 4.58.13a1.14 1.12-12.9 0 0 .65-1.02v-11.89q0-.86.84-.72l1.56.25q.58.1.59.68.08 5.16-.11 10.29c-.27 7.36-11.11 7.33-11.11.63q-.01-5.65-.11-11.28-.01-.69.67-.54ZM331.28 129.72l.3-10.72q.02-.68.68-.54l1.44.32q.55.12.55.68v13.8a2.09 2.09 0 0 1-3.97.93l-5.19-10.51a.31.3 32.1 0 0-.58.13l-.01 10.69q0 .5-.5.5h-1.76q-.51 0-.51-.51l.06-15.02q.01-.72.73-.72h2.51q.55 0 .78.5l4.92 10.58q.52 1.12.55-.11ZM352.21 121.8l.15 11.76q.02 1.44-1.42 1.44h-.44q-.75 0-.75-.75v-12.37q0-.63-.63-.63h-2.53q-.59 0-.75-.57l-.35-1.2q-.2-.72.55-.73l9.72-.07a1.26 1.25-45.9 0 1 .04 2.51l-3.09.09q-.51.01-.5.52ZM408.18 132.33l6.21.18q.61.02.61.63v1.33a.53.52 0 0 1-.53.52l-8.94.01q-.67 0-.67-.66l-.16-14.79a.77.76 89.6 0 1 .75-.77l9.09-.1q.64-.01.51.62l-.27 1.38q-.12.57-.7.57h-5.97a.65.65 0 0 0-.65.71l.26 2.97a.68.68 0 0 0 .85.6q2.16-.57 4.29.03a1.24 1.24 0 0 1-.34 2.44h-4.46q-.71 0-.63.7l.33 3.23q.04.39.42.4ZM419.95 132.9q-.5-6.91-.07-13.91a.59.58 7 0 1 .69-.53l1.62.3q.56.11.55.68l-.2 12.23q-.01.63.62.64l5.47.12q.62.02.62.64v1.3q0 .63-.63.63h-8.36q-.51 0-.53-.5-.02-.34.09-.65.17-.46.13-.95ZM436.38 125.54l4.3-.17a.56.55 89 0 1 .57.56v1.41a.65.65 0 0 1-.65.65l-4.39.01a.54.54 0 0 0-.53.54v3.36q0 .49.49.49 2.36.04 4.67-.09 1.28-.08 1.77.29.76.6.23 1.96-.16.42-.62.42l-8.32.04q-1.11.01-1.11-1.11l-.04-14.08q-.01-1.13 1.12-1.12l8.71.07q.58.01.46.57l-.27 1.38a.74.73 6 0 1-.74.59l-5.97-.2a.58.57-.9 0 0-.59.6l.14 3.11a.75.75 0 0 0 .77.72ZM480 131.18v-11.94q0-.76.76-.75l1.55.03q.61.01.63.63c.13 4.56 1.88 14.57-4.24 15.63-9.9 1.72-6.83-9.62-7.05-15.43q-.02-.6.58-.6h1.52q.5 0 .5.5v11.82q0 .66.59.95 2.24 1.12 4.56.08a1.03 1.03 0 0 0 .6-.92Z"/><rect width="2.84" height="16.22" x="-1.42" y="-8.11" fill="#283581" rx=".34" transform="rotate(.3 -24062.155 65030.976)"/><path fill="#283581" d="m370.41 125.15 1.6.46a.98.97-34.7 0 1-.35 1.91c-3.14-.26-4.09 4.31-.12 5.15a2.47 2.46-77.2 0 0 2.9-1.83q.59-2.41.12-4.8a.45.45 0 0 1 .44-.54h3.27q.66 0 .72.65.16 1.49-1.37 1.63-.5.05-.52.55l-.17 3.77a.66.59 65.2 0 1-.09.29c-3.12 4.92-11.99 2.93-10.18-3.81q.13-.49.49-.85l.66-.67q.41-.4.07-.87c-5.4-7.51 7.5-9.75 8.21-5.41a.85.85 0 0 1-1.02.97l-4.18-.89a.96.94 23.7 0 0-.97.37q-1.11 1.55-.29 3.26.24.51.78.66ZM392.44 124.75q2.34.94 4.84.73a1.32 1.31-26.7 0 1 .95.31q2.84 2.41 1.91 5.57c-1.36 4.59-6.77 4.36-10.2 2.44a1.24 1.23-31.4 0 1 .56-2.31c2.58-.11 3.14 2.56 6.61.43a.86.84 73.3 0 0 .41-.78l-.08-2.08q-.03-.69-.7-.82-1.73-.33-3.39-.53c-5.89-.71-5.57-9.1.47-8.94 2.26.06 5.81-.65 5.69 2.97a.46.46 0 0 1-.68.39q-2.86-1.58-6.09-.93-.6.12-.64.73l-.12 2.1a.73.72-77.9 0 0 .46.72ZM456.22 129.22l.35-10.01q.02-.46.48-.46h1.58q.62 0 .62.62v13.9a2.06 2.06 0 0 1-3.91.92l-5.17-10.36a.34.34 0 0 0-.64.16l.03 10.35q.01.66-.65.66h-1.51q-.6 0-.6-.6l-.07-14.01a2.11 2.11 0 0 1 3.99-.95l4.95 9.9a.29.29 0 0 0 .55-.12Z"/><rect width="2.74" height="16.24" x="-1.37" y="-8.12" fill="#283581" rx=".56" transform="rotate(-.1 72924.202 -267009.314)"/><path fill="#283581" d="m490.64 124.01-.19 10.35q-.02.6-.62.62l-1.44.03q-.64.01-.64-.63v-15.13q0-.5.5-.5h2.91a.73.72-10.5 0 1 .68.46l2.99 7.53a.44.44 0 0 0 .82-.01l2.8-7.45q.2-.53.76-.53h2.54q.5 0 .5.5v15.28q0 .54-.54.5l-1.32-.1q-.65-.05-.63-.71l.32-9.97a.41.41 0 0 0-.78-.19l-2.48 5.31q-.22.48-.72.64c-3 .93-4.01-4.36-4.89-6.13q-.54-1.1-.57.13Z"/><path fill="#ea5c4a" d="M78.31 120.69q2.83-.09 1.33 2.69c-1.57 2.93-1.46 5.4-3.54 8.05q-1.77-3.62-4.94-5.82-.69-.48-1.22-.31a.32.32 0 0 0-.05.59c6.47 3.5 4.48 6.76 5.84 12.68a.42.41 37.1 0 0 .82-.11l-.27-4.75q3.43-.94 6.8 2.29 1.04.99-.2 1.72l-3.84 2.27a2.33 2.33 0 0 0-1 2.81q5.28 14.51 9.43 29.2.7 2.46 4.33 8.92-.3 1.43.17 2.84.23.67.35-.03.4-2.41 1.37-3.05 5.97-10.43 9.68-21.34 2.7-7.91 3.67-16.25a2.54 2.54 0 0 0-1.04-2.35l-3.5-2.52a1.13 1.13 0 0 1 .87-2.02q1.73.33 3.24-.43a.97.97 0 0 0 .52-1.05q-1.07-5.34-4.74-10.61l4.4-.48q10.2 1.83 10.2 10.61-.01 18.75.36 37.48.07 3.78 1.16 7.43 5.04 16.82 10.23 33.54a2.55 2.55 0 0 1-.9 2.79c-2.58 1.96-11.78 5.73-13.71.7q-4.35-11.41-9.33-22.57-.31-.71-.49.05L99.85 213l-.63.13a1.39 1.37 52.5 0 1-.92-.13q-3.61-1.9-7.83-.51-.21-1.32-.96-2.05-.43-.41-.82.04-3.73 4.28-8.91 6.72-.58.27-.16.76l1.69 1.98q.37.43.89.22l2.49-1q.91.13.82 1.14a1.98 1.92 35.4 0 0 .18.98l.86 1.83q-13.02 1.73-26.37-.79-8.93-1.68-16.83-6.9-1.64-3.43-1.85-4.47c-1.03-5.19 7.9-23.15 10.44-28.59q3.36 3.2 5.86-1.88c2.93-5.98-.89-11.07-7.13-12.37q3.24-17.62 7.04-34.82c2.14-9.72 12.36-11.75 20.6-12.6Zm-10.575 51.281a.25.25 0 0 0-.343-.086.25.25 0 0 0-.086.343l5.28 8.82a.25.25 0 0 0 .342.087.25.25 0 0 0 .086-.343l-5.28-8.82Zm23.73 19.167a1.13.84 74.3 0 0 .504-1.315 1.13.84 74.3 0 0-1.115-.86 1.13.84 74.3 0 0-.503 1.314 1.13.84 74.3 0 0 1.115.86Z"/><path fill="#606060" d="M188.5 123.08c3.43 1.43 5.62 1.45 9.82 1.04q3.89-.38 4.8 3.86a1.02 1.02 0 0 0 .71.76c2.34.68 6.16.27 6.89 3.54a.35.35 0 0 1-.58.33l-2.35-2.23q-.35-.33-.83-.29-4.12.4-5.18-3.32a2.15 2.15 0 0 0-2.56-1.51c-4.11.99-10.37.27-13.03-3.63a.37.37 0 0 1 .6-.43l.99 1.33q.29.37.72.55Z"/><path fill="#c76e49" d="m187.14 124.81 12.35 2.91a1.5 1.5 0 0 1 .55 2.66q-3.28 2.46-1.19 6.11.34.59.84.13c1.39-1.26 3.13-2.93 5.09-2.48 3.73.86 2.63 5.1.3 7.39a.77.76 51.4 0 0-.1.95q2.29 3.58-.37 6.92-.2.25-.03.51.12.18.11.29-.37 0-.43.31-1.35 6.34 0 12.69.11.51.58.73l.72.35a1.14 1.14 0 0 1 .25 1.89c-5.4 4.63-21.16 11-21.36-2.22q0-.52.37-.89l.52-.53q.49-.48-.2-.55l-.43-.04.82-.39c2.36 1.14 3.19-1.99 2.92-3.57q-.09-.5-.56-.64-6.41-1.96-7.23-8.77-1.6-13.34 6.48-23.76Zm7.31 8.27c-.83-1.19-2.09-2.35-3.8-1.98a.44.44 0 0 0 .08.86q1.97.07 3.42 1.38a.2.2 0 0 0 .3-.26Zm-3.8 3.625a1.28.77 114.5 0 0 1.23-.846 1.28.77 114.5 0 0-.17-1.484 1.28.77 114.5 0 0-1.23.846 1.28.77 114.5 0 0 .17 1.484Zm13.613-1.335a2.02.49-32 0 0-1.973.654 2.02.49-32 0 0-1.453 1.486 2.02.49-32 0 0 1.973-.654 2.02.49-32 0 0 1.453-1.486ZM76.1 131.43l.18 2.28.27 4.75a.42.41 37.1 0 1-.82.11c-1.36-5.92.63-9.18-5.84-12.68a.32.32 0 0 1 .05-.59q.53-.17 1.22.31 3.17 2.2 4.94 5.82Z"/><path fill="#283581" d="M93.69 180.68q-.97.64-1.37 3.05-.12.7-.35.03-.47-1.41-.17-2.84l-3.3-47.65q-.05-.76.53-.27 3.08 2.65 5.92 5.54a1.33.79 37.6 0 0 1.42-.84q-.41-.42-.62-.83-.26-.53-.01-1.07l2.41-5.14a.31.3 57.5 0 1 .58.13q.09 24.65-5.04 49.89Z"/><path fill="#606060" d="M190.65 131.1c1.71-.37 2.97.79 3.8 1.98a.2.2 0 0 1-.3.26q-1.45-1.31-3.42-1.38a.44.44 0 0 1-.08-.86Z"/><ellipse fill="#606060" rx="1.28" ry=".77" transform="rotate(114.5 51.999 129.256)"/><ellipse fill="#606060" rx="2.02" ry=".49" transform="rotate(-32 339.186 -284.968)"/><rect width="24.72" height="1.28" x="29.89" y="142.22" fill="#b8b6b6" rx=".49"/><path fill="#606060" d="M338 159.49v-8.33a.45.45 0 0 1 .64-.41l.47.22a.68.66 12.4 0 1 .4.61q.02 3.71-.17 7.41c-.25 4.56-6.86 3.86-7.11.37q-.28-3.81-.24-7.61 0-.64.64-.72.18-.03.36-.03a.5.5 0 0 1 .51.5v7.73a1.09 1.08-73.6 0 0 .49.91q1.53 1 3.32.34a1.07 1.05-10.4 0 0 .69-.99ZM286.77 157.7l-.06 4.01a.61.6 45.4 0 1-1.21-.01v-10.09q0-.65.65-.64l5.11.1a.59.59 0 0 1-.01 1.18h-3.68q-.68 0-.75.68l-.25 2.61a.49.49 0 0 0 .47.54l3.46.08a.51.51 0 0 1-.01 1.02h-3.2a.52.52 0 0 0-.52.52ZM302.483 158.88a2.88 2.88 0 0 1-2.865 2.896l-1.66.008a2.88 2.88 0 0 1-2.895-2.865l-.026-4.98a2.88 2.88 0 0 1 2.865-2.895l1.66-.008a2.88 2.88 0 0 1 2.895 2.865l.026 4.98Zm-1.333-5.013a1.63 1.63 0 0 0-1.666-1.593l-1.48.034a1.63 1.63 0 0 0-1.592 1.666l.118 5.2a1.63 1.63 0 0 0 1.666 1.592l1.48-.034a1.63 1.63 0 0 0 1.592-1.666l-.118-5.2ZM306.76 158.42l-.02 3.21a.38.37-88.5 0 1-.38.37h-.34q-.45-.01-.46-.45l-.21-10a.54.54 0 0 1 .55-.55l4.99.09a.77.77 0 0 1 .64.34q2.37 3.49-.57 6a.53.52 57.2 0 0-.13.63l1.45 2.94a.62.62 0 0 1-1.08.61l-2.38-3.78a1.12 1.12 0 0 0-2.06.59Zm4.202-4.9a1.15 1.15 0 0 0-1.117-1.182l-1.92-.054a1.15 1.15 0 0 0-1.181 1.117l-.046 1.64a1.15 1.15 0 0 0 1.117 1.181l1.92.054a1.15 1.15 0 0 0 1.181-1.117l.046-1.64ZM323.7 151.66a1.03 1.03 0 0 1 1.18-.67l.65.12a.91.91 0 0 1 .68.62l3.05 9.5q.17.55-.38.74-.69.22-1.05-.7a.57.33-75.1 0 1-.03-.11q-.82-3.42-4.86-1.97-.52.19-.64.73l-.36 1.69q-.1.45-.56.48-1.14.08-.85-.82 1.44-4.57 3.17-9.61Zm-.35 5.52a.47.47 0 0 0 .47.6l2.43-.05a.47.47 0 0 0 .43-.62l-1.29-3.88a.47.47 0 0 0-.9.02l-1.14 3.93ZM346.75 152.53l-.01 9.41a.28.28 0 0 1-.42.24l-.68-.41a.28.28 0 0 1-.14-.24v-9a.28.28 0 0 0-.28-.28h-2.41a.28.28 0 0 1-.28-.28v-.7a.28.28 0 0 1 .28-.28l6.75.02a.28.28 0 0 1 .27.36l-.22.68a.28.28 0 0 1-.27.2h-2.31a.28.28 0 0 0-.28.28ZM359.468 159.155a2.9 2.9 0 0 1-2.935 2.865l-1.68-.02a2.9 2.9 0 0 1-2.864-2.936l.063-5.18a2.9 2.9 0 0 1 2.935-2.864l1.68.02a2.9 2.9 0 0 1 2.864 2.936l-.063 5.18Zm-1.425-5.345a1.48 1.48 0 0 0-1.467-1.493l-1.54-.014a1.48 1.48 0 0 0-1.493 1.468l-.046 5.26a1.48 1.48 0 0 0 1.467 1.492l1.54.014a1.48 1.48 0 0 0 1.493-1.468l.046-5.26ZM367.65 156.48a.42.42 0 0 0 .78 0l2.03-4.95a1.26 1.26 0 0 1 2.42.46l.14 9.21a.8.8 0 0 1-.51.76q-.62.24-.99-.1-.25-.24-.27-.78-.12-3.32.29-6.61a.42.42 0 0 0-.81-.21l-1.74 4.12a.98.98 0 0 1-1.81 0l-1.73-4.05a.38.37 33.1 0 0-.72.15l.12 6.94q.01.58-.58.58h-.34q-.57 0-.57-.57l.06-9.32a1.2 1.2 0 0 1 2.31-.44l1.92 4.81ZM377.69 159.5q-.37.78-.52 1.65-.1.59-.33.77-.37.29-1.03-.01a.54.54 0 0 1-.29-.66l3.04-9.4a1.41 1.41 0 0 1 2.68 0l3.06 9.44q.21.62-.44.72-.44.07-.73-.18c-.41-.37-.62-1.71-1.02-2.33q-.33-.51-.93-.51l-2.74.03q-.53 0-.75.48Zm.65-2.37a.45.45 0 0 0 .44.57l2.29-.03a.45.45 0 0 0 .42-.58l-1.19-3.87a.45.45 0 0 0-.87.01l-1.09 3.9ZM387.88 152.29l-2.15-.11a.57.57 0 0 1 .01-1.14q3.16-.11 6.28 0 .53.01.74.28.17.22.13.49a.47.47 0 0 1-.59.38q-1.59-.41-2.22.63-.33.56-.23 1.85.28 3.38.11 6.71-.03.62-.65.62h-.32q-.49-.01-.49-.5v-8.56a.66.65 1.9 0 0-.62-.65Z"/><rect width="1.54" height="11.06" x="-.77" y="-5.53" fill="#606060" rx=".56" transform="rotate(-.6 15151.622 -37834.93)"/><path fill="#606060" d="M407.05 158.66a.33.33 0 0 0 .62-.14l.08-6.93q.01-.61.62-.59h.37a.5.5 0 0 1 .51.5v9.53a1.25 1.25 0 0 1-2.39.53l-3.56-7.64a.29.29 0 0 0-.55.12v7.65q0 .45-.45.4l-.34-.04q-.58-.06-.59-.65l-.16-9.32a1.29 1.29 0 0 1 2.45-.58l3.39 7.16ZM417.8 157.56q-.18 0-1-.65a.45.45 0 0 1 .25-.8l2.6-.15q.52-.03.66.47c1.84 6.15-6.26 7.87-7.29 2.89q-.66-3.23.52-7.2a1.09 1.05 87.9 0 1 .6-.67q3.21-1.36 5.87.59a.55.55 0 0 1-.47.98l-3.37-.88a.89.89 0 0 0-1.08.62c-.83 2.87-1.92 9.83 3.28 7.6a1.46 1.46 0 0 0-.57-2.8ZM435.34 161.29c-8.92 4.84-8.85-14.2-.18-9.72q.92.47.8 1.34a.39.39 0 0 1-.62.26q-1.86-1.4-4.1-.67a.9.88 82.2 0 0-.61.82l-.18 5.69a1.89 1.88 79.8 0 0 2.6 1.81l2.35-.97q.5-.2.59.33.11.7-.65 1.11ZM440.71 158.35l.16 3.14q.02.43-.4.5-.19.03-.43.03a.78.78 0 0 1-.76-.79l.14-9.56q0-.57.57-.64c4.69-.53 9.49 1.42 4.79 6.69a.21.19 55.6 0 0-.03.21l1.71 3.29q.35.67-.39.79-.55.09-.94-.62-.97-1.74-2.45-3.75a1.09 1.09 0 0 0-1.97.71Zm4.277-4.913a1.07 1.07 0 0 0-1.036-1.103l-2.1-.066a1.07 1.07 0 0 0-1.102 1.036l-.056 1.759a1.07 1.07 0 0 0 1.036 1.103l2.1.066a1.07 1.07 0 0 0 1.102-1.036l.056-1.759ZM457.471 158.973a3.02 3.02 0 0 1-3.03 3.01l-1.38-.005a3.02 3.02 0 0 1-3.01-3.031l.018-4.94a3.02 3.02 0 0 1 3.03-3.01l1.38.005a3.02 3.02 0 0 1 3.01 3.031l-.018 4.94Zm-1.439-5.013a1.72 1.72 0 0 0-1.705-1.735l-1.06-.01a1.72 1.72 0 0 0-1.735 1.706l-.044 5.06a1.72 1.72 0 0 0 1.705 1.734l1.06.01a1.72 1.72 0 0 0 1.735-1.706l.044-5.06ZM462.09 155.5c1.41.36 3.04.06 4.1 1.1 3.56 3.47-1.96 7.05-5.72 4.46q-.42-.29-.45-.62-.02-.26.11-.51.25-.44.64-.12 2.06 1.71 4.36.41a1.63 1.63 0 0 0-.57-3.04l-3.49-.49a.96.95 1.6 0 1-.81-.85l-.29-2.95a.92.91-21.4 0 1 .36-.82q3.02-2.23 5.97-.12a.53.53 0 0 1-.46.94l-2.38-.7q-.54-.16-1.04.11-1.49.79-1.1 2.42a1.07 1.06.5 0 0 .77.78ZM473.28 156.78c-3.85-.57-2.68-6.35 1.51-5.95q1.84.18 2.31 1.42.59 1.53-.75.59-2-1.4-3.72.01a1.6 1.6 0 0 0 1.02 2.84c7.22-.01 4.85 8.43-1.64 5.84q-1.13-.45-.96-1.46a.41.41 0 0 1 .66-.25q1.89 1.5 4.32.77a.9.89-88.6 0 0 .59-.57c1.03-3.04-1.29-2.94-3.34-3.24Z"/><rect width="4.74" height="8.46" x="-2.37" y="-4.23" fill="#fff" rx="1.63" transform="rotate(-1.3 7047.536 -13092.152)"/><rect width="4.22" height="3.94" x="-2.11" y="-1.97" fill="#fff" rx="1.15" transform="rotate(1.6 -5369.972 11135.581)"/><rect width="4.5" height="8.22" x="-2.25" y="-4.11" fill="#fff" rx="1.48" transform="rotate(.5 -17746.413 40846.19)"/><rect width="4.24" height="3.9" x="-2.12" y="-1.95" fill="#fff" rx="1.07" transform="rotate(1.8 -4688.106 14172)"/><rect width="4.5" height="8.5" x="-2.25" y="-4.25" fill="#fff" rx="1.72" transform="rotate(.5 -17703.147 52074.97)"/><path fill="#fff" d="m378.34 157.13 1.09-3.9a.45.45 0 0 1 .87-.01l1.19 3.87a.45.45 0 0 1-.42.58l-2.29.03a.45.45 0 0 1-.44-.57ZM323.35 157.18l1.14-3.93a.47.47 0 0 1 .9-.02l1.29 3.88a.47.47 0 0 1-.43.62l-2.43.05a.47.47 0 0 1-.47-.6Z"/><path fill="#c76e49" d="m167.93 178.17-6.16 6.05-7.49-4.34a.34.34 0 0 0-.5.32l.3 3.79q.03.43.26.8 2.4 3.82 1.04 7.44.57 6.36-3.51 9.25a1.61 1.6 56 0 1-2.28-.45l-2.33-3.64-5.01-6.08q-.32-.39-.15-.87 1.13-3.2 2.99-6.02.26-.4.68-.63l3.06-1.65q.48-.25 1.01-.12.89.22.91 1.45a.3.3 0 0 0 .51.21q.59-.59.47-2.18-.15-2.08-.04-3.68.08-1.13-.96-.67-1.93.85-2.87-.17c-.94-1.02-.53-3.82-1.45-5.59a.72.71-29.1 0 1 .28-.96q2.37-1.35 3.04-4.11a.78.77-.7 0 1 .55-.56q1.8-.5 1.47-2-.75-3.45.2-6.48a.98.98 0 0 1 1.91.29l-.02 7.08a1.13 1.13 0 0 0 1.33 1.12c1.85-.33 2.72.33 3.89 1.8q4.14 5.25 8.87 10.6Z"/><path fill="#283581" d="m185.53 161.55-.82.39-.88.82a1.13 1.12 68 0 0-.35.84c.23 8.78 7.11 10.6 14.18 8.22 3.39-1.14 8.22-3.26 9.71-6.83q.2-.48.68-.28l7.47 3.22q-6.02.4-8.75 4.1-8.81 11.96-16.19 24.38a1.18 1.18 0 0 1-1.86.22c-3.9-3.97-16.07-17.92-20.65-18.31 1.68-12.57 3.13-16.83 16.31-17.3q.38-.01.69.21l.46.32Z"/><ellipse fill="#b8b6b6" rx="5.83" ry=".29" transform="rotate(.1 -92483.384 82810.125)"/><rect width="19.58" height=".56" x="154.62" y="161.27" fill="#b8b6b6" rx=".26"/><path fill="#3c4d9a" d="M215.52 167.93q10.83 4.49 7.61 16.23l-20.69.07a2.32 2.31 9.2 0 0-2.18 1.57l-12.29 36.03q-10.33-10.99-18.95-22.84-1.11-1.52-2.55-2.15-2.11-3.31-4.78-6.38c-2.07-2.4-1.96-3.94.08-6.24l6.16-6.05q.07.08.14.15c4.58.39 16.75 14.34 20.65 18.31a1.18 1.18 0 0 0 1.86-.22q7.38-12.42 16.19-24.38 2.73-3.7 8.75-4.1Z"/><path fill="#283581" d="M50.67 168.11c6.24 1.3 10.06 6.39 7.13 12.37q-2.5 5.08-5.86 1.88-3.96-6.94-1.27-14.25Z"/><path fill="#ea5c4a" d="M534 173.82v28.82q-14.95 15.51-19.68 19.92c-5.04 4.71-11.66 3.19-15.83-1.81q-6.5-7.79 2.13-16.37 16.31-16.22 32.6-32.44.4-.39.49.16l.29 1.72Z"/><rect width=".5" height="10.78" x="-.25" y="-5.39" fill="#606060" rx=".25" transform="rotate(-30.9 354.4 -38.67)"/><path fill="#606060" d="M324.33 185.24a.33.32-44.7 0 0 .64 0l1.57-7.68a.74.73 6.4 0 1 .75-.59q.45.02.62.28.11.16.03.51-1.04 4.74-2.04 9.46a1.2 1.2 0 0 1-2.34.02l-1.02-4.49q-.14-.61-.38-.04-.9 2.16-1.24 4.48a1.15 1.14 42.8 0 1-2.25.08l-2.14-9.6q-.11-.47.35-.63l.38-.13a.56.55-14 0 1 .72.43l1.33 7.88a.35.34-41.4 0 0 .67.04l1.33-4.35a1.16 1.15 48.3 0 1 2.24.13l.78 4.2ZM389.11 183.01c-6.17.19-2.88-10.14 3.72-4.73a.47.47 0 0 1-.41.82l-3.08-.74a1.59 1.58 64.5 0 0-1.05 2.97q1.33.64 2.87.37a.9.9 0 0 1 .86.33c3.67 4.65-1.45 7.18-5.59 5.37a.74.72 14.3 0 1-.44-.72l.05-.57q.04-.55.52-.27 2 1.15 4.11.66a1.86 1.63 44 0 0-.28-3.36q-.49-.15-1.28-.13ZM397.61 178.39l-2.34-.37a.52.52 0 0 1 .08-1.04l7.14-.05a.62.61-46 0 1 .02 1.23q-2.31.06-2.38.66-.5 4.44-.18 8.66a.73.73 0 0 1-1.09.69c-.56-.31-.29-6.55-.64-9.16q-.07-.54-.61-.62ZM285.26 187.19l.23-9.6a.56.56 0 0 1 .53-.55c3.05-.2 8.39-.05 5.63 4.95q-.24.43.02.85c3.14 4.98-2.69 5.27-5.69 5.12a.76.75 2.3 0 1-.72-.77Zm5.63-7.596a1.3 1.3 0 0 0-1.297-1.303l-1.58-.002a1.3 1.3 0 0 0-1.302 1.297l-.002.86a1.3 1.3 0 0 0 1.298 1.303l1.58.002a1.3 1.3 0 0 0 1.302-1.297l.002-.86Zm.057 4.638a1.23 1.23 0 0 0-1.218-1.243l-1.78-.018a1.23 1.23 0 0 0-1.242 1.217l-.014 1.28a1.23 1.23 0 0 0 1.218 1.243l1.78.018a1.23 1.23 0 0 0 1.242-1.217l.014-1.28ZM298 183.71v3.79a.5.5 0 0 1-.5.5h-.76q-.52 0-.51-.51l.09-9.91q0-.52.52-.56c2.57-.2 6.53-.81 6.67 3.21q.07 1.95-1.58 2.86-.46.25-.25.73.77 1.76 1.83 3.36a.22.22 0 0 1 0 .24l-.33.49q-.44.66-.83-.04l-2.57-4.62a.95.95 0 0 0-1.78.46Zm3.931-4.384a1.09 1.09 0 0 0-1.112-1.066l-2 .041a1.09 1.09 0 0 0-1.067 1.113l.037 1.74a1.09 1.09 0 0 0 1.112 1.066l2-.041a1.09 1.09 0 0 0 1.067-1.113l-.037-1.74ZM314.47 184.89a3.06 3.06 0 0 1-3.06 3.06h-1.32a3.06 3.06 0 0 1-3.06-3.06v-4.84a3.06 3.06 0 0 1 3.06-3.06h1.32a3.06 3.06 0 0 1 3.06 3.06v4.84Zm-1.424-4.978a1.71 1.71 0 0 0-1.686-1.734l-1.08-.015a1.71 1.71 0 0 0-1.734 1.686l-.072 5.18a1.71 1.71 0 0 0 1.686 1.733l1.08.015a1.71 1.71 0 0 0 1.734-1.686l.072-5.18ZM332.79 182.78c-4.69-1.91-.14-8.94 4.99-4.42a.33.33 0 0 1-.08.55l-.57.28a.37.37 0 0 1-.4-.06q-1.83-1.64-3.93-.34a1.46 1.46 0 0 0 .18 2.58q1.23.54 2.59.38.51-.06.93.21c3.99 2.6.49 7.58-4.31 5.6q-1.32-.54-1.2-1.58a.45.45 0 0 1 .72-.31c1.25.93 3.26 1.73 4.54.42q.91-.95.19-2.33-.22-.42-.69-.56c-1.07-.31-2.04-.04-2.96-.42ZM343.37 186.75h3.75a.61.61 0 0 1 0 1.22l-5.21.04a.66.66 0 0 1-.66-.66v-9.6q0-.75.75-.75h5.2q.57 0 .58.57.02.95-.74.79-2.04-.45-3.38 0a1.96 1.66-57.7 0 0 .5 3.6q1.41-.42 2.56-.13a.58.58 0 0 1-.07 1.14l-3.14.38q-.56.07-.61.64l-.18 2.06q-.06.7.65.7ZM356.76 183.99l1.76 3.23a.53.53 0 0 1-.31.76q-.68.21-1.06-.4-1.21-1.9-2.4-3.89a.97.96-58.1 0 0-1.79.42l-.29 3.44q-.04.45-.48.45h-.44a.5.5 0 0 1-.5-.5v-9.76q0-.66.65-.7 1.91-.15 3.68-.03c3.64.25 3.87 4.92 1.37 6.32q-.42.24-.19.66Zm.369-3.958a2.3 2.07-5.7 0 0-2.495-1.832 2.3 2.07-5.7 0 0-2.083 2.288 2.3 2.07-5.7 0 0 2.495 1.832 2.3 2.07-5.7 0 0 2.083-2.288ZM369.02 178.46l-2.17-.3a.41.39 4.9 0 1-.35-.4v-.28q-.01-.48.47-.48h6.42q.44 0 .38.43l-.05.35q-.03.25-.29.31l-1.99.42q-.52.11-.48.64.22 3.74-.21 7.46a.63.62 34.3 0 0 .07.36q.54.97-.5 1.2a.67.67 0 0 1-.82-.65v-8.51q0-.49-.48-.55ZM378.84 178.26a2.05 1.62-53.2 0 0 .1 3.69q1.25-.3 2.2-.36.54-.03.61.5.02.17.01.34-.05.55-.6.56l-2.45.03a.73.72 3.2 0 0-.71.63l-.32 2.5a.62.62 0 0 0 .74.68q2.22-.44 4.27.33a.37.37 0 0 1-.12.72l-5.63.16a.67.67 0 0 1-.69-.67v-9.72a.66.66 0 0 1 .66-.66l5.37.04a.63.63 0 0 1 .41 1.1c-1.11.97-3.15-.08-3.85.13Z"/><rect width="1.38" height="10.92" x="-.69" y="-5.46" fill="#606060" rx=".33" transform="rotate(-.7 15139.035 -33144.81)"/><path fill="#606060" d="M412.99 179.25a.22.22 0 0 0-.41.11l.24 8.21a.42.42 0 0 1-.43.43h-.43a.58.57 0 0 1-.59-.58l.12-9.39a1.07 1.07 0 0 1 2.03-.47l3.57 7.11a.35.35 0 0 0 .66-.16v-6.98q0-.39.38-.49.25-.07.51-.05.5.04.5.54l.01 9.46a1.07 1.07 0 0 1-2.03.48l-4.13-8.22ZM428.47 187.25c-8.16 4.8-9.75-12.47-.92-9.99q1.26.35 1.55 1.26a.47.47 0 0 1-.7.55q-1.31-.82-2.84-.86a2.01 2 .7 0 0-2.06 2v4.58a1.99 1.97 7.4 0 0 1.48 1.91q2.55.66 3.16-2.21a1.09 1.08 87.8 0 0-1.37-1.27q-.6.19-.97-.3a.57.57 0 0 1 .45-.92h2.31q.83 0 .77.83l-.26 3.45q-.05.64-.6.97Z"/><rect width="4.5" height="8.6" x="-2.25" y="-4.3" fill="#fff" rx="1.71" transform="rotate(.8 -12912.859 22347.419)"/><rect width="4.18" height="3.46" x="-2.09" y="-1.73" fill="#fff" rx="1.3" transform="rotate(.1 -102999.436 165560.18)"/><rect width="4.18" height="3.92" x="-2.09" y="-1.96" fill="#fff" rx="1.09" transform="rotate(-1.2 8755.442 -14226.617)"/><ellipse fill="#fff" rx="2.3" ry="2.07" transform="rotate(-5.7 1987.88 -3473.74)"/><path fill="#fff" d="M161.77 184.22c-2.04 2.3-2.15 3.84-.08 6.24q2.67 3.07 4.78 6.38l-.68 2.36-10.41-6.97q1.36-3.62-1.04-7.44-.23-.37-.26-.8l-.3-3.79a.34.34 0 0 1 .5-.32l7.49 4.34Z"/><rect width="4.24" height="3.74" x="-2.12" y="-1.87" fill="#fff" rx="1.23" transform="rotate(.6 -17507.303 27672.451)"/><path fill="#606060" d="m223.13 184.16 27.3.05q1.79 0 1.23 1.71-5.63 17.18-12.13 35.21-.68 1.89-1.85 4.06l-75.05-.06q-.9-1-1.07-1.61a.45.44-3.3 0 1 .5-.56q2.26.36 3.47-.68.27.76.71.74 10.34-.32 20.67.21a1.2 1.17-59.8 0 0 .72-.2q1.15-.74.34-1.2l12.29-36.03a2.32 2.31 9.2 0 1 2.18-1.57l20.69-.07Zm5.381 7.1a5.46 4.79-42.1 0 0-7.262.106 5.46 4.79-42.1 0 0-.84 7.214 5.46 4.79-42.1 0 0 7.262-.106 5.46 4.79-42.1 0 0 .84-7.214Z"/><ellipse fill="#606060" rx="1.13" ry=".84" transform="rotate(74.3 -79.838 155.183)"/><path fill="#fff" d="M228.511 191.26a5.46 4.79-42.1 0 1-.84 7.214 5.46 4.79-42.1 0 1-7.262.107 5.46 4.79-42.1 0 1 .84-7.215 5.46 4.79-42.1 0 1 7.262-.107Zm-.812.95a4.24 3.62-40.6 0 0-5.575.011 4.24 3.62-40.6 0 0-.863 5.508 4.24 3.62-40.6 0 0 5.575-.01 4.24 3.62-40.6 0 0 .863-5.508Z"/><ellipse fill="#606060" rx="4.24" ry="3.62" transform="rotate(-40.6 375.776 -205.94)"/><path fill="#3c4d9a" d="m155.38 192.23 10.41 6.97-.53 20.7q-14.42-12.54-19.2-17.71-1.5-1.63 1.2-4.8l2.33 3.64a1.61 1.6 56 0 0 2.28.45q4.08-2.89 3.51-9.25Z"/><path fill="#283581" d="M166.47 196.84q1.44.63 2.55 2.15 8.62 11.85 18.95 22.84.81.46-.34 1.2a1.2 1.17-59.8 0 1-.72.2q-10.33-.53-20.67-.21-.44.02-.71-.74l-.27-2.38.53-20.7.68-2.36Z"/><path fill="#fff" d="m90.47 212.49-5.78 6.67-2.49 1q-.52.21-.89-.22l-1.69-1.98q-.42-.49.16-.76 5.18-2.44 8.91-6.72.39-.45.82-.04.75.73.96 2.05Z"/><path fill="#e8aa91" d="M99.85 213q-.2 0-.09.73-.54-.03-.73.43a.64.64 0 0 0 .28.82q.95.5.45 1.51-.34.67-.71.03l-1.18-2.04a1.24 1.23-39.4 0 0-2-.19l-5.99 6.89a.34.34 0 0 0 .34.55q.75-.18 1.36-.91 2.11-2.51 4.31-5.03.34-.39.65.02l3.78 4.94q.37.47.45-.12l.06-.4q.25.36-.03 1.75c-1.79-.87-2.58-2.67-3.89-3.24q-.93-.4-1.71.1a.62.62 0 0 0 .3 1.14q1.23.07 1.58 1.27a.89.88-1.1 0 0 .65.62q2.53.58 3.59 2.75.24.49.78.48l14.05-.2q1.17.66 2.44.31.48-.14.61-.63l.78-3.05a1.04 1-3.7 0 1 .64-.7c6.26-2.28 12.1-4.8 16.58.9a.63.62 77.9 0 0 .37.24l3.83.96a.62.62 0 0 1 .2 1.12l-1.03.71q-.73.5.16.51l5.21.01q-2.21 2.8-5.99 1.17a2.01 2.01 0 0 0-.96-.16c-8.9.81-15.37.03-22.07.35-1.6.08-3.06-.61-4.68-.38-5.31.78-10.26.59-15.18.66q-9.51.13-19.01-.06c-6.61-.14-14.49 1.01-21.93.32-4.17-.38-9.78-.25-14.52-1.42l.95-1 .31.16q.4.22.86.22l45.23-.11q.69 0 .27-.54-1-1.27-2.67-1.38l-.86-1.83a1.98 1.92 35.4 0 1-.18-.98q.09-1.01-.82-1.14l5.78-6.67q4.22-1.39 7.83.51a1.39 1.37 52.5 0 0 .92.13l.63-.13Zm-.998 12.118a2.73.81 34.8 0 0-1.78-2.223 2.73.81 34.8 0 0-2.704-.893 2.73.81 34.8 0 0 1.78 2.223 2.73.81 34.8 0 0 2.704.893Zm-4.002-.788-1.08-.62q-.34-.2-.55.15-.07.12-.21.22a1.16.84-2.2 0 0 1.68 1.12q.32-.23.32-.59a.33.31-75.9 0 0-.16-.28Z"/><path fill="#e96e67" d="M99.76 213.73q.93.43.63 1.32-.17.5.17.89.85.98.1 2.21-.26.44-.13.93l.3 1.15-.06.4q-.08.59-.45.12l-3.78-4.94q-.31-.41-.65-.02-2.2 2.52-4.31 5.03-.61.73-1.36.91a.34.34 0 0 1-.34-.55l5.99-6.89a1.24 1.23-39.4 0 1 2 .19l1.18 2.04q.37.64.71-.03.5-1.01-.45-1.51a.64.64 0 0 1-.28-.82q.19-.46.73-.43Z"/><path fill="#b8b6b6" d="m116.15 224.9-14.05.2q-.54.01-.78-.48-1.06-2.17-3.59-2.75a.89.88-1.1 0 1-.65-.62q-.35-1.2-1.58-1.27a.62.62 0 0 1-.3-1.14q.78-.5 1.71-.1c1.31.57 2.1 2.37 3.89 3.24q2.94 1.21 1.51-3.56a2.46 2.46 0 0 1 2.35-3.17h8.13q.64 0 .8.63.79 3.23.21 6.57-.11.66.56.59l1.88-.18q.41-.04.5.36.15.63-.59 1.68Z"/><path fill="#283581" d="M86.55 223.11q1.67.11 2.67 1.38.42.54-.27.54l-45.23.11q-.46 0-.86-.22l-.31-.16.8-9.34q7.9 5.22 16.83 6.9 13.35 2.52 26.37.79Z"/><ellipse fill="#e96e67" rx="2.73" ry=".81" transform="rotate(34.8 -308.385 265.921)"/><path fill="#e96e67" d="M94.85 224.33a.33.31-75.9 0 1 .16.28q0 .36-.32.59a1.16.84-2.2 0 1-1.68-1.12q.14-.1.21-.22.21-.35.55-.15l1.08.62Z"/><path fill="#b8b6b6" d="m162.63 225.13 75.05.06q0 .14.04.26.09.29.39.27l4.56-.31q.55-.03.56.52l.06 4.95a1.11 1.1 89.7 0 1-1.1 1.12H30.66a.66.66 0 0 1-.66-.66v-5.13q0-.67.66-.65l10.94.2c4.74 1.17 10.35 1.04 14.52 1.42 7.44.69 15.32-.46 21.93-.32q9.5.19 19.01.06c4.92-.07 9.87.12 15.18-.66 1.62-.23 3.08.46 4.68.38 6.7-.32 13.17.46 22.07-.35a2.01 2.01 0 0 1 .96.16q3.78 1.63 5.99-1.17l16.69-.15Z"/><path fill="#ea5c4a" d="M534 229.06v30.21L493.51 300h-30.57l-.25-.32a.34.33-41.6 0 1 .03-.44l70.6-70.93a.25.25 0 0 1 .43.2q-.05.42.25.55Z"/><circle cx="481.07" cy="238.26" r="6.08" fill="#010101"/><path fill="#fff" d="M534 259.27v28.06l-.29-1.04q-.12-.44-.44-.11L520.02 300h-26.51L534 259.27Z"/><path fill="#606060" d="m42.19 267.49-5.31-3.06a.78.76 44.3 0 0-.75 0l-5.62 3.27a.96.95 73.8 0 0-.48.88l.3 6.55a.77.76-80.6 0 0 .48.68q1.82.7 3.27 1.93a.76.75-9.3 0 1-.88 1.22l-4.22-2.51q-.48-.28-.48-.84v-8.11a.94.93 75 0 1 .46-.81l7.07-4.14q.44-.26.89 0l7.12 4.11q.46.27.46.8v3.32a.75.75 0 0 1-1.49.1l-.34-2.68q-.07-.48-.48-.71ZM58.19 275.17q-.28.77-1.13.81-3.6.15-7.24.32-.57.03-.57-.54v-7.58q0-.84.8-.62l.88.24a.47.46-80.3 0 1 .34.49l-.34 5.57a.49.49 0 0 0 .44.52l4.52.42q.48.04.64-.41l2.21-6.1a1.47 1.47 0 0 1 2.77 0l2.6 7.15a.62.62 0 0 1-.59.83q-1.25-.02-1.54-1.25a.6.59 80.5 0 0-.63-.46l-2.72.27a.52.51 7.1 0 0-.44.34Zm1.48-4.91-.71 2.24q-.19.58.42.54l1.24-.06a.68.68 0 0 0 .62-.87l-.53-1.84q-.49-1.72-1.04-.01ZM67.3 271.73q.43 2.08.09 4.18a.87.86 49.2 0 1-1.72-.13l-.12-7.26a1.02 1.02 0 0 1 1.91-.52l1.73 3.09a.74.74 0 0 0 1.36-.15q.61-2.13 2.35-3.4a.54.54 0 0 1 .86.42l.24 7.5a.77.77 0 0 1-.77.79h-.48q-.75 0-.75-.75v-3.07a.33.33 0 0 0-.62-.17l-.8 1.36a.79.78 47.4 0 1-1.38-.06q-.57-1.17-1.41-2.08-.69-.75-.49.25ZM95.32 275.24l-1.05 1.05a.71.7 77.9 0 1-1.15-.75l2.61-7.04a1.57 1.57 0 0 1 2.96.02l2.5 7.03q.22.62-.43.71-1.36.18-1.56-1.24a.59.59 0 0 0-.67-.51l-2.39.32q-.48.07-.82.41Zm.78-2.61a.36.36 0 0 0 .33.47l1.61.04a.36.36 0 0 0 .35-.45l-.73-2.64a.36.36 0 0 0-.69-.02l-.87 2.6ZM82.714 274.739a1.33 1.33 0 0 1-1.313 1.346l-4.06.05a1.33 1.33 0 0 1-1.346-1.314l-.07-5.66a1.33 1.33 0 0 1 1.314-1.346l4.06-.05a1.33 1.33 0 0 1 1.346 1.314l.07 5.66Zm-1.883-4.424a1.58 1.17 6 0 0-1.449-1.329 1.58 1.17 6 0 0-1.693.999 1.58 1.17 6 0 0 1.449 1.329 1.58 1.17 6 0 0 1.693-.999Zm.304 3.132a1.77 1.18-4.3 0 0-1.854-1.044 1.77 1.18-4.3 0 0-1.676 1.31 1.77 1.18-4.3 0 0 1.853 1.044 1.77 1.18-4.3 0 0 1.677-1.31ZM84.73 268.68a.96.96 0 0 1 .96-.96h2.56a3.76 3.68 0 0 1 3.76 3.68v1.14a3.76 3.68 0 0 1-3.76 3.68h-2.56a.96.96 0 0 1-.96-.96v-6.58Zm2.03 1.22-.02 4.06a.69.69 0 0 0 .69.7h.52a2.1 2.05-89.8 0 0 2.06-2.09v-1.24a2.1 2.05-89.8 0 0-2.04-2.11h-.52a.69.69 0 0 0-.69.68ZM106.49 270.13q.13 2.08.27 4.11.09 1.22-.44 1.76a.99.99 0 0 1-1.69-.7l.06-5.29q0-.53-.53-.51-.92.03-1.55-.06a.85.85 0 0 1 .13-1.69h5.98q.78 0 .56.74-.4 1.43-1.98.99a.64.63-83.6 0 0-.81.65ZM113.18 274.5h3.07q.47 0 .61.45l.1.31q.31.99-.72.99h-5.09a.66.66 0 0 1-.66-.66l.04-7.14a.7.7 0 0 1 .7-.7h5.3q.64 0 .47.62-.19.74-.9 1.01c-.75.3-1.14-.04-1.91-.11q-.48-.04-.92.16-.86.41-.64.87.23.47.74.54l2.86.4a.71.7 41.8 0 1 .08 1.38q-1.12.28-2.48.15-.83-.08-1.14.24-.36.37-.15 1.03.15.46.64.46ZM123.18 273.26l-3.77-1.17a1.22 1.19-4.8 0 1-.71-.59c-2.01-3.8 3.92-4.87 6.02-2.62a.67.67 0 0 1-.67 1.1l-2.76-.79a.78.78 0 0 0-.54 1.46c1.29.6 3.35.67 4.21 1.65 2.57 2.92-3.7 5.86-6.94 2.06a.55.55 0 0 1 .69-.83q2.08 1.18 4.38.86a.58.58 0 0 0 .09-1.13ZM128.25 269.5h-1.5q-.5 0-.5-.5v-.62q0-.63.63-.63h6.15a.81.81 0 0 1 .09 1.61l-1.65.2q-.47.06-.48.53-.04 2 .21 3.88.19 1.47-.73 2.15a1.08 1.08 0 0 1-1.72-.87V270q0-.5-.5-.5Z"/><ellipse fill="#fff" rx="1.58" ry="1.17" transform="rotate(6 -2537.755 891.26)"/><path fill="#fff" d="M86.76 269.9a.69.69 0 0 1 .69-.68h.52a2.1 2.05-89.8 0 1 2.04 2.11v1.24a2.1 2.05-89.8 0 1-2.06 2.09h-.52a.69.69 0 0 1-.69-.7l.02-4.06Z"/><path fill="#606060" d="M37.41 273.42q-.12 2.94-.16 5.81-.01 1.19-1.25 1.23-.48.01-.44-.47.5-5.8.16-7.51-.41-2.05-2.47-.78a.5.5 0 0 1-.74-.27q-.47-1.35 1.29-1.89a1.88 1.87-38.1 0 1 1.5.18l6.59 3.86q.44.26.88-.02l.78-.51q.53-.33.61.28l.29 2.15q.12.89-.74.65-3.12-.86-5.49-3.04a.48.48 0 0 0-.81.33Z"/><path fill="#fff" d="M59.67 270.26q.55-1.71 1.04.01l.53 1.84a.68.68 0 0 1-.62.87l-1.24.06q-.61.04-.42-.54l.71-2.24ZM96.1 272.63l.87-2.6a.36.36 0 0 1 .69.02l.73 2.64a.36.36 0 0 1-.35.45l-1.61-.04a.36.36 0 0 1-.33-.47Z"/><ellipse fill="#fff" rx="1.77" ry="1.18" transform="rotate(-4.3 3683.318 -920.287)"/><path fill="#283581" d="M534 287.33V300h-13.98l13.25-13.82q.32-.33.44.11l.29 1.04Z"/></svg>

