<?xml version="1.0" encoding="utf-8"?>
<!-- Generator: Adobe Illustrator 26.0.3, SVG Export Plug-In . SVG Version: 6.00 Build 0)  -->
<svg version="1.0" id="katman_1" xmlns="http://www.w3.org/2000/svg" xmlns:xlink="http://www.w3.org/1999/xlink" x="0px" y="0px"
	 viewBox="0 0 600 450" style="enable-background:new 0 0 600 450;" xml:space="preserve">
<style type="text/css">
	.st0{fill:#AD1A2D;}
</style>
<g>
	<path class="st0" d="M122.1,211.4l-2,4.2c-3.4,7.2-6.6,14.5-10.2,21.6c-2.6,5.3-6,10.1-10.2,14.3c-5.5,5.6-13.3,8.3-21.2,7.5
		c-4.4-0.4-8.7-1.4-12.9-3c-0.6-0.2-0.7-0.4-0.5-1.1c3.2-6.8,6.4-13.7,9.6-20.8c0.3-0.6,0.6-0.7,1.2-0.5c4.3,1.5,8.9,1.7,13.4,0.8
		c5-1.1,9.4-4.1,12.2-8.3c3.1-4.4,5.8-9.2,8-14.2c2-4.2,4.2-8.7,6.1-13c0.3-0.5,0.3-1.1,0-1.6c-4.5-9.6-9-19.2-13.4-28.8
		c-1.1-2.3-2.1-4.6-3.2-6.9c-0.3-0.6,0-0.9,0.5-1.2l20.4-9.5c0.7-0.4,1-0.2,1.3,0.5l28,60.3c0,0.3,0.3,0.6,0.5,1l1.7-3.7l4.7-10.2
		c0.2-0.4,0.2-0.9,0-1.3c-5.6-11.7-11.1-23.4-16.7-35.2c-0.7-1.5-0.7-1.5,0.8-2.2l19.7-9.2c0.7-0.3,1-0.2,1.2,0.5l28.5,61.2
		l17.4,37.5c0.4,0.7,0.2,0.9-0.5,0.9h-25c-0.6,0-1.1-0.3-1.3-0.9l-17.5-37.5c-0.1-0.3-0.2-0.7-0.4-1c-0.3,0-0.4,0.2-0.5,0.4
		l-6.2,13.5c-0.3,0.3-0.3,0.8,0,1.2l10.9,23.4c0.5,1,0.5,1-0.6,1h-25c-0.6,0.1-1.1-0.3-1.3-0.8c-5.8-12.6-11.7-25.1-17.5-37.5
		L122.1,211.4z"/>
	<path class="st0" d="M264.3,196.4c-0.8-5.9-4.6-10.9-10-13.4c-4.3-1.9-9-2.9-13.7-2.9c-4.8-0.1-9.5,0.3-14.2,1.4
		c-3.7,0.8-7.3,2.1-10.7,3.6c-0.3,0-0.7,0.2-0.7,0.8v13.8c2.4-1.6,5-2.9,7.7-3.9c4.9-2,10.3-2.5,15.5-1.4c4.4,0.5,7.5,4.5,7.1,8.8
		c0,0.5,0,0.7-0.7,0.7c-1.7,0.2-3.4,0.4-5.1,0.7c-6.1,1-12.1,3-17.5,6c-4.4,2.3-8,5.8-10.5,10.1c-2.7,5-3.6,10.7-2.6,16.2
		c0.6,4.3,2.8,8.3,6.2,11.2c3.9,3.2,8.9,4.7,13.9,4.2c4.9-0.3,9.6-2.1,13.5-5.2c1.2-1,2.3-2.1,3.4-3.3v0.6c0.2,1.7,0.6,4.2,0.8,5.2
		s0,1.2,1.5,1.2h15.4c0.9,0,1.1-0.3,1.1-1.1V202C264.6,200.1,264.5,198.2,264.3,196.4z M244.6,230.9c-0.9,3.4-3.6,5.9-7,6.6h-1
		c-4.2,0.4-7.9-2.7-8.3-6.8c-0.8-4.5,1.6-9,5.7-10.9c2.8-1.4,5.8-2.2,8.9-2.4c0.8,0,2-0.5,2.3,0c0.4,0.5,0,1.5,0,2.4v2.7
		C245.6,225.2,245.4,228.1,244.6,230.9z"/>
	<path class="st0" d="M454.3,209.8c0-3.8-0.5-7.7-1.7-11.3c-2.1-8.2-8.5-14.7-16.7-17c-5.9-1.8-12.3-1.9-18.2-0.3
		c-6.3,1.5-11.7,5.5-15,11.1c-2.6,4.8-4.1,10.2-4.2,15.7v15.8c0,4.3,0.8,8.5,2.3,12.5c2.5,7.2,8.3,12.7,15.6,14.8
		c5.4,1.6,11.1,1.9,16.7,0.8c4.8-0.8,9.3-3,12.8-6.5c5-5.1,8-11.9,8.3-19v-9.2C454.3,214.1,454.3,211.9,454.3,209.8z M434.7,227.1
		c0,2.3-0.5,4.7-1.3,6.8c-0.1,0.4-0.3,0.9-0.6,1.2c-2,3.5-6.6,4.8-10.1,2.7c0,0-0.1,0-0.1,0c-1.6-0.9-2.8-2.4-3.4-4.2
		c-0.8-2.7-1.2-5.5-1.2-8.3v-18.1c0-2.8,0.4-5.6,1.2-8.3c0.7-2.3,2.5-4.1,4.7-4.8c3.8-1.4,8.1,0.6,9.4,4.5c0,0,0,0.1,0,0.1
		c0.8,2.2,1.3,4.4,1.3,6.7v10.9c-0.1,3.7-0.1,7.3-0.1,10.8L434.7,227.1z"/>
	<path class="st0" d="M525.3,158.8v21.7c0,0.8,0,1.1,1,1.1h7.8c0.7,0,1,0,1,0.9v10.4c0,0.7,0,0.8-0.8,0.8h-7.8c-0.9,0-1.2,0-1.2,1.2
		v55.1c0,0.8-0.2,1.1-1.1,1.1h-17.3c-0.8,0-1-0.2-1-1V195c0-1.3,0-1.2-1.2-1.2h-4.2c-0.6,0-0.7,0-0.7-0.7v-10.6
		c0-0.7,0.2-0.8,0.9-0.8h4.5c0.7,0,0.9,0,0.9-0.9v-12.2c-0.1-0.4,0.1-0.9,0.5-1l18.3-8.5L525.3,158.8z"/>
	<path class="st0" d="M484.3,158.8v21.8c0,0.8,0.2,1,1,1h8c0.7,0,0.9,0,0.8,0.9v10.4c0,0.6,0,0.8-0.8,0.8h-8c-0.9,0-1,0.3-1,1V250
		c0,0.8,0,1.1-1,1.1h-17.2c-0.9,0-1.1-0.2-1.1-1.1v-55c0-1.3,0-1.2-1.2-1.2h-4.2c-0.5,0-0.7,0-0.7-0.7v-10.8c0-0.6,0.2-0.7,0.7-0.7
		h4.5c1.5,0,1.1-0.3,1.1-1.2v-12c-0.1-0.5,0.2-0.9,0.6-1.1l18.4-8.5L484.3,158.8z"/>
	<path class="st0" d="M341.3,188.8c0.7-1.1,1.5-2.1,2.3-3c4.3-5,11.3-6.9,17.6-4.7c0.4,0,0.7,0.4,0.6,0.8c0,0,0,0,0,0.1l0,0v15.1
		c0,0.8-0.4,0.7-0.8,0.5c-2.6-1.4-5.6-2-8.5-2c-4.2,0-8.2,2.2-10.5,5.7c-0.2,0.4-0.3,0.8-0.2,1.3v47.4c0,1.2,0,1.2-1.3,1.2h-17
		c-0.8,0-1-0.2-1-1v-67.4c0-0.8,0-1.1,1-1h15.8c0.7,0,1,0,1,0.9C340.5,184.5,340.9,186.5,341.3,188.8z"/>
	<path class="st0" d="M295.3,188.5c1.1-1.3,2.2-2.6,3.4-3.8c2.9-2.9,7-4.6,11.1-4.5c1.8,0,3.6,0.2,5.4,0.8c0.4,0,0.8,0.4,0.7,0.9
		c0,0,0,0,0,0.1l0,0v15c0,0.7,0,0.8-0.8,0.5c-2.7-1.4-5.8-2.1-8.9-2c-4.1,0.2-7.8,2.3-10.1,5.7c-0.2,0.4-0.3,0.9-0.2,1.4v47.3
		c0,1.3,0,1.3-1.3,1.3h-17.1c-0.7,0-1,0-1-1v-67.5c0-0.8,0.2-1,1-1h15.7c0.7,0,1,0,1.1,0.9C294.7,184.5,295,186.5,295.3,188.5z"/>
	<path class="st0" d="M388.5,216.3v34.1c0,0.7,0,0.7-0.7,0.7h-18c-0.6,0-0.7-0.3-0.7-0.8v-67.4c0-1.2,0-1.2,1.2-1.2h16.7
		c1.3,0,1.3,0,1.3,1.3L388.5,216.3z"/>
	<path class="st0" d="M291.2,290.1v-14c0-0.7,0-1,0.8-0.9c0.8,0,2.5,0,3.8,0c0.5,0,0.7,0,0.7,0.7v23c0,0.5,0,0.6-0.7,0.6h-3.2
		c-0.5,0-0.7-0.2-0.9-0.6l-10.5-13.8c-0.3-0.4-0.7-0.7-1.1-1v14.4c0,0.7,0,1-1,0.9c-1.2-0.1-2.4-0.1-3.6,0c-0.8,0-0.8-0.4-0.8-1
		v-22.9c0-0.7,0-0.7,0.6-0.7h3.8c0.5,0,0.7,0.3,1,0.7l10.4,13.7L291.2,290.1z"/>
	<path class="st0" d="M180.4,289.9v-13.5c0-0.7,0-1,0.9-1c1.2,0.1,2.3,0.1,3.5,0c0.7,0,1,0,0.9,0.9v22.6c0,0.6,0,0.9-0.8,0.8
		c-1.2,0.2-2.4,0.2-3.6,0c-1-0.5-1.5-1.8-2.3-2.7l-9.3-12.2l0,0c-0.2,0.2,0,0.6,0,0.8v13.5c0,0.7,0,0.9-0.8,0.9h-3.8
		c-0.5,0-0.7,0-0.7-0.7v-23.5c0-0.5,0-0.7,0.7-0.7l0,0c1.4-0.3,2.8-0.3,4.2,0c1.1,0.5,1.7,2,2.5,3.1l8.3,10.7
		C180.1,289.3,180.2,289.6,180.4,289.9z"/>
	<path class="st0" d="M421.4,289.9c0.1-0.3,0.1-0.7,0-1v-12.5c0-0.7,0-1,0.9-0.9c1.1,0.1,2.3,0.1,3.4,0c0.7,0,0.9,0,0.9,0.9v22.6
		c0,0.6,0,0.9-0.8,0.8c-1.2,0.2-2.4,0.2-3.5,0c-1.1-0.4-1.6-1.7-2.3-2.7l-9.5-12.5c-0.3,0.3,0,0.6,0,0.9v13.4c0,0.8-0.2,1-1,1H406
		c-0.6,0-0.8,0-0.8-0.7v-22.9c0-0.6,0-0.7,0.7-0.7h3.3c0.6-0.1,1.2,0.2,1.5,0.8l10.2,13.2C421.1,289.6,421.2,289.8,421.4,289.9z"/>
	<path class="st0" d="M396.3,285.3c-1-6.1-6.3-10.6-12.5-10.5c-0.8,0-1.5,0.1-2.3,0.2c-4.6,0.6-8.5,3.9-10,8.3
		c-1.7,4.5-0.5,9.5,3,12.8c3,3,7.4,4.4,11.6,3.5l0,0C392.9,298.5,397.5,292.1,396.3,285.3z M383.8,294.6c-4,0-7.3-3.3-7.3-7.3v-0.5
		c0-3.9,3.2-7.1,7.2-7.1c0,0,0,0,0,0h0.3c4.1,0.1,7.3,3.5,7.1,7.6c0,0,0,0,0,0C391.1,291.3,387.9,294.6,383.8,294.6
		c-0.1,0-0.2,0-0.4,0H383.8z"/>
	<path class="st0" d="M266.5,298.7l-5-7.3c-0.2-0.3-0.7-0.6,0-0.9c1.6-0.7,2.9-1.9,3.7-3.5c2.1-3.9,0.7-8.8-3.2-11
		c-1.3-0.6-2.7-0.9-4.2-1h-11c-0.8,0-0.8,0-0.8,0.8v22.7c0,0.9,0,0.9,0.9,0.9h3.7c0.7,0,0.9,0,0.9-0.9v-6.1c0-0.8,0-0.8,0.8-0.8h2.7
		c0.5,0,1,0.2,1.2,0.6c1.3,2.3,2.7,4.4,4.2,6.5c0,0.3,0.4,0.6,0.8,0.6h5.7C266.7,299.2,266.6,299,266.5,298.7z M260.7,283.7
		c0,0.2,0,0.4,0,0.6c-0.3,1.6-1.7,2.8-3.3,2.7h-5.5c-0.4,0-0.5,0-0.5-0.3c0-0.2,0-0.3,0-0.5v-5.5c0-0.3,0-0.6,0.5-0.6
		c2,0,3.9,0,5.8,0h0.5c1.2,0.2,2.3,1.1,2.6,2.3c0,0.2,0,0.4,0,0.6C260.7,283.3,260.7,283.5,260.7,283.7z"/>
	<path class="st0" d="M218.7,287.4v-11.2c0-0.7,0-1,1-1h16.4c0.7,0,1,0,1,1c-0.1,0.9-0.1,1.9,0,2.8c0,0.9-0.3,1-1,1h-10.9
		c-0.7,0-1,0-1,1c0,1,0,2,0,3c0,1,0,0.8,0.8,0.8h9.5c0.8,0,1,0.2,1,1c0,0.7,0,2,0,3s0,0.8-0.8,0.8h-9.8c-0.9,0-1,0.2-1,1
		c0.1,1,0.1,2.1,0,3.1c0,0.8,0,1,1,1h11.2c0.7,0,1,0,0.9,0.9c-0.1,1-0.1,2.1,0,3.1c0,0.5,0,0.7-0.7,0.7h-17.1
		c-0.7,0-0.7-0.3-0.7-0.8C218.7,294.9,218.7,291.2,218.7,287.4z"/>
	<path class="st0" d="M328.3,298.7c-3.3-7.7-6.6-15.4-9.8-23.1c-0.1-0.4-0.5-0.7-1-0.6c-1.1,0.1-2.2,0.1-3.2,0c-0.8,0-1.1,0.2-1.4,1
		c-2.7,6.5-5.4,12.5-8.1,19l-1.9,4.6h5c0.3,0,0.7-0.2,0.7-0.5c0,0,0,0,0,0c0.5-1.4,1.1-2.7,1.7-4.2c0.2-0.4,0.6-0.7,1.1-0.7h8.7
		c0.5-0.1,1,0.3,1.1,0.7c0.5,1.4,1.1,2.8,1.7,4.2c0,0.4,0.2,0.6,0.7,0.6h4.9C328.5,299.2,328.5,299,328.3,298.7z M318.3,289.3h-5.2
		c-0.4,0-0.6,0-0.4-0.5l3-7.4l3,7.2C318.9,289.3,318.8,289.3,318.3,289.3z"/>
	<path class="st0" d="M458.4,298.8c-0.7-1.7-1.5-3.4-2.2-5.2c-2.5-5.9-5-11.8-7.5-17.8c-0.1-0.5-0.6-0.8-1.1-0.7h-3.3
		c-0.5-0.1-1,0.2-1.1,0.7l-4.2,10.3c-1.8,4.2-3.5,8.3-5.3,12.5c-0.5,1-0.4,1,0.7,1h3.6c0.5,0.1,0.9-0.2,1-0.7
		c0.5-1.4,1.2-2.8,1.7-4.2c0.1-0.4,0.5-0.7,0.9-0.7h8.9c0.4-0.1,0.8,0.2,1,0.6c0.3,0.8,0.6,1.6,1,2.4s0.4,1.9,1,2.3s1.7,0,2.5,0h2.2
		C458.8,299.7,458.8,299.4,458.4,298.8z M448.6,289.3h-5.4c-0.3,0-0.3-0.2-0.3-0.6c1-2.3,1.9-4.7,3-7.2c1,2.6,2,5,3,7.4
		C449.1,289.3,449.1,289.3,448.6,289.3L448.6,289.3z"/>
	<path class="st0" d="M340,275.3h9.1c0.7,0,0.9,0,0.9,0.9c0,0.9,0,2.2,0,3.2c0,1.1,0,0.9-0.9,0.9h-5.6c-0.7,0-1,0-1,0.9v17.5
		c0,0.8,0,1-1,1c-1.2-0.1-2.3-0.1-3.5,0c-0.7,0-0.9-0.2-0.9-1v-17.1c0-0.8,0-1.2-1.1-1.1h-5.5c-0.6,0-0.8,0-0.8-0.7
		c0-0.7,0-2.3,0-3.4s0.2-0.8,0.8-0.8L340,275.3z"/>
	<path class="st0" d="M202.2,275.3h9.2c0.6,0,0.8,0,0.8,0.8c0,0.8,0,2.2,0,3.2c0,1.1,0,1-0.9,0.9h-5.5c-0.7,0-1,0-1,1v17.4
		c0,0.8,0,1.1-1,1c-1.2-0.1-2.3-0.1-3.5,0c-0.7,0-0.9-0.2-0.9-0.9v-17.2c0-0.8,0-1.1-1-1.1h-5.5c-0.6,0-0.9,0-0.8-0.8
		c0-0.8,0-2.3,0-3.4c0-1.1,0-0.8,0.8-0.8L202.2,275.3z"/>
	<path class="st0" d="M464.9,287.3v-11.2c0-0.7,0-0.9,0.9-0.9c1.2,0.1,2.5,0.1,3.7,0c0.7,0,0.8,0.3,0.8,1v17.3c0,0.9,0,1.2,1.2,1.2
		h10.1c0.7,0,0.9,0,0.9,0.9s0,2.2,0,3.3s0,0.7-0.7,0.7h-16c-0.6,0-0.7,0-0.7-0.8C464.9,295,464.9,291.1,464.9,287.3z"/>
	<path class="st0" d="M362.4,287.4v11.2c0,0.7,0,1-1,0.9h-3.7c-0.5,0-0.7,0-0.7-0.7v-23.1c0-0.5,0-0.7,0.7-0.7h3.9
		c0.7,0,0.8,0,0.8,0.8V287.4z"/>
	<path class="st0" d="M148.6,287.3v-11.2c0-0.7,0-0.9,0.9-0.9c1.2,0.1,2.4,0.1,3.7,0c0.8,0,0.8,0.3,0.8,1v22.6c0,0.5,0,0.7-0.7,0.7
		h-3.7c-0.7,0-0.9,0-0.9-0.9C148.7,294.9,148.6,291.1,148.6,287.3z"/>
	<path class="st0" d="M260.7,282.6c-0.3-1.2-1.3-2.1-2.6-2.3h-0.5c-1.9,0-3.8,0-5.8,0c-0.5,0-0.5,0.2-0.5,0.6l0,0
		c0-0.3,0-0.6,0.5-0.6c2,0,3.9,0,5.8,0C259,280.2,260.3,281.2,260.7,282.6z"/>
</g>
</svg>
