<?xml version="1.0" encoding="UTF-8" standalone="no"?>
<svg
   id="svg"
   width="2032.1"
   height="699.38"
   version="1.1"
   viewBox="0 0 2032.1 699.38"
   sodipodi:docname="phsa-logo-path.svg"
   inkscape:version="1.1.1 (3bf5ae0d25, 2021-09-20)"
   xmlns:inkscape="http://www.inkscape.org/namespaces/inkscape"
   xmlns:sodipodi="http://sodipodi.sourceforge.net/DTD/sodipodi-0.dtd"
   xmlns="http://www.w3.org/2000/svg"
   xmlns:svg="http://www.w3.org/2000/svg"
   xmlns:rdf="http://www.w3.org/1999/02/22-rdf-syntax-ns#"
   xmlns:cc="http://creativecommons.org/ns#"
   xmlns:dc="http://purl.org/dc/elements/1.1/">
  <defs
     id="defs22" />
  <sodipodi:namedview
     id="namedview20"
     pagecolor="#505050"
     bordercolor="#ffffff"
     borderopacity="1"
     inkscape:pageshadow="0"
     inkscape:pageopacity="0"
     inkscape:pagecheckerboard="1"
     showgrid="false"
     inkscape:zoom="0.6377639"
     inkscape:cx="1016.05"
     inkscape:cy="350.44317"
     inkscape:window-width="1920"
     inkscape:window-height="1001"
     inkscape:window-x="-9"
     inkscape:window-y="-9"
     inkscape:window-maximized="1"
     inkscape:current-layer="svg" />
  <title
     id="title59696">Provincial Health Services Authority Logo</title>
  <rect
     id="rect26339"
     width="2032.1"
     height="699.38"
     fill="#fff"
     stroke-width="4.3043" />
  <g
     id="g59428"
     transform="matrix(4.3043 0 0 4.3043 0 -1.2305e-5)">
    <path
       id="path54730"
       d="m13.561 20.402s-0.0918 2.1175 0 5.1484c0.04256 1.4044 2.1513 1.7101 3.3203 3.0215 1.25 1.4021 2.6635 1.6335 3.9141 0.08594 1.5061-1.8638 2.1098-2.3769 3.4473-3.1914 0.60555-0.36877 2-0.72461 2-0.72461s0.59594-0.29768 3.4473 0.42578c2.8513 0.72347 4.0859 2.4258 4.0859 2.4258s1.702 2.1275 1.7871 7.2344c0.08511 5.1068 1.0644 5.4597 1.8301 6.7676 1.9166 3.2737 3.5323 5.8301 5.6602 9.873 2.1278 4.0429 4.0294 4.7481 5.4043 6.3828 1.4233 1.6922 2.3453 3.7555 3.6602 5.5332 1.552 2.0985 4.9785 6.043 4.9785 6.043s2.9793 2.5114 1.4473 8.9375-1.9571 11.999-1.3613 15.957 4.7954 7.2219 6.4688 11.576c0.92663 2.4113 1.5759 3.6218 2.4258 5.4043 0.75096 1.5751 0.57401 6.3901 2.8086 7.3633 4.2733 1.861 5.3055 1.5803 7.3613 3.3184 2.2174 1.8746 2.1705 5.3638 4.8516 7.2363 2.6811 1.8725 7.9589 1.1476 10.98 3.4883s5.4902 11.15 5.4902 11.15 15.745-4.9786 26.938-4.3828c11.192 0.5958 23.365 4.8926 23.365 4.8926s-7.6261-4.2195-9.1934-7.957c-1.1508-2.7444 0.76523-3.8303-4.7246-6.6816-5.4898-2.8513-7.7874-5.1637-10.34-8.9375-1.5884-2.3485-1.3334-5.5972-2.7676-8.043-1.2705-2.1666-3.7448-4.2554-5.0215-5.6172s-3.3806-4.2408-3.4043-6.7656c-0.0535-5.6951 0.42578-15.406 0.42578-15.406s0.0943-13.438-0.72265-20.088c-0.36773-2.9934-1.755-5.838-1.873-8.8516-0.16694-4.2601 1.4474-8.9366 1.6602-12.682 0.21278-3.745 0.55239-5.9585-1.7031-8.1289s-8.9375-2.4258-8.9375-2.4258l-15.617-1.0625-13.193-0.17188s-12.341 0.34068-15.064 0.42578c-2.7236 0.08511-10.512-1.7871-10.512-1.7871l-16.682-5.6602zm22.918 71.039-4.0312 0.78516 3.6367 6.7852 3.1465 8.2578 2.9492 2.1641 1.377-3.9336-2.5566-7.8652zm16.715 32.053-1.8691 3.0469 5.8008 7.5723 12.094 10.324 5.0156 4.3262 7.2754 1.9648-5.7031-7.373-3.0469-2.9492-1.2793-5.7031-1.9668-2.3594-5.5059-0.19727-2.457-1.7695-5.8008-5.8008z"
       fill="#ecf0eb" />
    <path
       id="path867"
       d="m85.75 152.67c0-0.58609-1.1096-2.0305-2.4659-3.2097-3.3615-2.9228-2.107-4.3869 1.5361-1.7927 2.969 2.1141 3.7515 4.3241 1.9298 5.45-0.55 0.33992-1 0.1385-1-0.4476zm-4.8949-1.1904c-1.3172-0.49765-3.2297-0.63988-4.25-0.31605-2.8289 0.89785-5.8551-0.45288-5.8551-2.6134 0-1.0629-0.61312-1.9326-1.3625-1.9326-0.74937 0-3.0612-1.35-5.1375-3s-4.8523-3-6.1689-3c-2.4308 0-2.698-0.37209-3.7651-5.2439-0.41909-1.9132-1.6553-3.1844-4.0835-4.199-3.9467-1.649-4.2113-2.4743-1.7325-5.4037 2.6804-3.1677 6.8327-3.8016 8.1975-1.2516 1.3371 2.4984 6.0695 5.0981 9.2804 5.0981 3.8997 0 6.7722 2.7153 6.7722 6.4017 0 2.0183 0.77243 3.9873 2 5.0983 2.9751 2.6924 2.4192 3.6455-0.99368 1.7035-2.0926-1.1907-2.9956-2.4711-3-4.2535-8e-3 -3.2903-1.7236-4.95-5.1162-4.95-1.9096 0-3.9763-1.3288-6.9986-4.5-4.474-4.6944-5.8915-5.4442-5.8915-3.1166 0 0.76085 0.86465 1.6095 1.9214 1.8858 1.0568 0.27636 2.8325 2.2413 3.946 4.3666 1.1135 2.1253 4.3371 5.6642 7.1635 7.8642 2.8264 2.2 6.2258 4.9921 7.5541 6.2047 1.3284 1.2126 3.9951 2.5011 5.9261 2.8634 1.931 0.36226 3.776 1.0876 4.1 1.6118 0.90399 1.4627 0.12271 1.6754-2.5061 0.68216zm62.395-2.5537c-5.2347-1.0027-14.654-1.5801-27.25-1.6704-10.587-0.0759-19.25-0.47548-19.25-0.88798-4e-5 -0.4125 0.93744-0.75 2.0833-0.75 1.1459 0 5.7584-0.94666 10.25-2.1037 9.5886-2.47 14.717-2.213 31.167 1.5615 6.05 1.3882 13.228 2.5282 15.95 2.5331 3.1228 6e-3 4.5993 0.35929 4 0.95787-1.7548 1.7526-8.8879 1.9039-16.95 0.35957zm-53.713-7.0584c-2.3839-2.0625-6.5738-5.3956-9.3108-7.4068-2.737-2.0112-6.0024-5.0487-7.2564-6.75-1.254-1.7013-3.1869-3.0932-4.2954-3.0932-2.6303 0-6.9246-4.3338-6.9246-6.9883 0-1.3162-1.2844-2.837-3.5-4.1442-3.3625-1.9839-3.5-2.2937-3.5-7.8845 0-3.2007-0.27314-6.5312-0.60699-7.4012-0.33384-0.86998-0.10223-1.5818 0.5147-1.5818 1.8111 0 5.0845 6.2283 5.0886 9.6819 3e-3 2.3917 0.74877 3.7124 3.0037 5.3181 1.65 1.1749 3 3.0351 3 4.1338 0 3.3473 1.7752 5.5712 4.9548 6.2071 2.0058 0.40116 3.9562 1.9368 5.7855 4.5554 2.7926 3.9974 5.9274 6.1036 9.0842 6.1036 2.8962 0 5.8169 2.7059 8.051 7.4586 1.1684 2.4858 2.1244 4.7495 2.1244 5.0305 0 1.3539-2.2749 0.16785-6.2127-3.2391zm59.469 0.18005c-6.9333-3.9298-8.256-5.6613-8.256-10.808 0-3.6836-2.7273-6.6224-6.1458-6.6224-3.0653 0-7.7436-4.8813-8.4438-8.8103-0.36166-2.0294-1.5787-4.7004-2.7046-5.9358-2.585-2.8363-2.1625-3.2013 2.7624-2.3867 4.0236 0.66552 4.5001 1.1908 7.7471 8.5405 1.3368 3.026 2.1562 3.6398 7.494 5.6142 2.6814 0.99178 3.4573 2.0398 4.716 6.3694 1.0351 3.5606 2.456 5.8842 4.5406 7.4254 1.6687 1.2338 3.034 2.9091 3.034 3.723 0 0.81392 0.9 2.2505 2 3.1923s2 2.0624 2 2.4902c0 1.5236-2.5873 0.69746-8.744-2.7922zm-106.78-30.471c-0.35369-0.57229-2.4578-2.1861-4.6759-3.5863-3.7591-2.373-3.9934-2.7887-3.4519-6.1253 0.5132-3.1624 0.16589-3.9709-2.9806-6.9385-4.5174-4.2604-3.9428-6.126 1.8042-5.8573 9.013 0.42136 13.372 3.636 5.9219 4.3673-2.6182 0.25701-3.1103 0.64747-2.5206 2 0.40302 0.92436 0.9342 3.107 1.1804 4.8503 0.47227 3.344 5.2476 8.9822 5.2476 6.1958 0-0.81575-0.66069-2.3567-1.4682-3.4243-1.6692-2.2068-2.0432-7.4411-0.5318-7.4411 0.55 0 1 0.63853 1 1.419s0.7875 2.7951 1.75 4.477c1.4954 2.6131 1.5562 3.3696 0.4179 5.1989-0.95545 1.5355-1.0261 2.4468-0.25 3.223 0.59515 0.59515 1.0821 1.4421 1.0821 1.8821 0 1.1532-1.7678 0.98481-2.525-0.24052zm74.758-11.212c-1.903-2.0257-2.057-3.0318-1.53-10 0.32228-4.2612 0.881-7.7477 1.2416-7.7477 2.1449 0 2.9105 2.7488 2.3719 8.5162-0.50991 5.4605-0.32063 6.4794 1.5515 8.3515 2.6059 2.6059 2.6574 3.1323 0.30656 3.1323-1.0041 0-2.7778-1.0135-3.9416-2.2523zm-66.624-7.9658c-0.81332-1.255-2.003-4.3856-2.6438-6.9569-1.089-4.3702-0.98261-4.9995 1.6326-9.6519l2.7976-4.9769-2.6989-4.0783c-1.4844-2.2431-4.4325-4.9627-6.5512-6.0437-2.8862-1.4724-4.3678-3.1703-5.9078-6.7698-2.8662-6.6995-3.0785-8.6619-0.98391-9.0922 1.2842-0.26383 2.3017 0.91797 3.8002 4.4137 1.1255 2.6257 3.9363 6.873 6.2462 9.4386 6.4435 7.1566 10.7 12.686 10.7 13.9 0 0.60434-0.94054 3.8908-2.0901 7.3031-1.3946 4.1398-1.893 7.4368-1.4978 9.9081 0.70809 4.4282-0.74608 5.7803-2.803 2.6064zm68.391-14.208c0-1.5544-0.94731-6.8613-2.1051-11.793-1.8628-7.9344-2.0067-10.366-1.25-21.124 0.7882-11.205 1.0117-12.157 2.8551-12.157 1.934 0 2.0089 0.75641 2.2692 22.931 0.17149 14.606-0.10079 23.301-0.75 23.95-0.69232 0.69232-1.0192 0.11273-1.0192-1.807zm-85.5-39.617c-0.96033-3.3197-1.1785-3.4504-5.5-3.2944-2.475 0.0893-5.9272 0.47274-7.6716 0.85199-2.8323 0.61577-3.3404 0.36298-4.75-2.3628-2.359-4.5618-1.8386-6.058 0.92909-2.6709l2.4356 2.9807 3.8206-3.7307c3.9407-3.848 6.0082-4.4584 9.2412-2.7281 1.9444 1.0406 3.4801 7.566 2.8352 12.048-0.29753 2.0678-0.46516 1.931-1.3401-1.0934zm66.5-8.0374c-2.475-0.48888-14.625-1.112-27-1.3847-24.298-0.5355-20.423 0.11376-48.5-8.1268-9.5136-2.7922-13.19-5.1674-12.159-7.8551 0.55658-1.4504 1.0175-1.4105 4.5562 0.39481 2.1653 1.1046 7.2367 2.4846 11.27 3.0665 10.774 1.5545 20.827 4.0139 25.043 6.1266 4.5304 2.2703 12.826 2.4107 21.506 0.36394 7.207-1.6994 11.15-1.1749 26.288 3.4966 5.3446 1.6493 11.832 2.9987 14.416 2.9987s4.4797 0.35354 4.2126 0.78565c-0.6841 1.1069-14.238 1.1993-19.632 0.13384z"
       fill="#1b5630" />
  </g>
  <g
     id="g59573"
     transform="matrix(4.3043,0,0,4.3043,0,-1.2305e-5)"
     fill="#1716a2"
     font-family="sans-serif"
     letter-spacing="0px"
     word-spacing="0px">
    <g
       aria-label="Better health."
       transform="scale(0.96982,1.0311)"
       id="text20430-5"
       style="font-size:23.276px;line-height:1.05;stroke-width:0.96982">
      <path
         d="m 184.95453,133.63501 v 6.21678 h 3.68234 q 1.85253,0 2.73902,-0.76147 0.89785,-0.77284 0.89785,-2.3526 0,-1.59114 -0.89785,-2.34124 -0.88649,-0.76147 -2.73902,-0.76147 z m 0,-6.97826 v 5.11436 h 3.39821 q 1.68205,0 2.50035,-0.62509 0.82966,-0.63645 0.82966,-1.93209 0,-1.28427 -0.82966,-1.92072 -0.8183,-0.63646 -2.50035,-0.63646 z m -2.29577,-1.88663 h 5.86446 q 2.62537,0 4.04602,1.09107 1.42065,1.09106 1.42065,3.10271 0,1.55703 -0.72737,2.47762 -0.72738,0.92058 -2.13666,1.14789 1.69342,0.36368 2.62536,1.52294 0.94332,1.14789 0.94332,2.8754 0,2.27305 -1.54567,3.51186 -1.54568,1.23881 -4.39835,1.23881 h -6.09176 z"
         id="path110" />
      <path
         d="m 209.42388,134.85109 v 1.02287 h -9.61499 q 0.13639,2.15939 1.29564,3.29592 1.17062,1.12515 3.25046,1.12515 1.20471,0 2.32987,-0.29549 1.13652,-0.2955 2.25032,-0.88649 v 1.97755 q -1.12516,0.47734 -2.30715,0.72738 -1.18198,0.25003 -2.39806,0.25003 -3.04588,0 -4.83022,-1.77298 -1.77298,-1.77297 -1.77298,-4.79612 0,-3.12544 1.68205,-4.95525 1.69342,-1.84116 4.55746,-1.84116 2.56855,0 4.05739,1.65932 1.50021,1.64796 1.50021,4.48927 z m -2.0912,-0.61373 q -0.0227,-1.71615 -0.96605,-2.73902 -0.93195,-1.02287 -2.47762,-1.02287 -1.75024,0 -2.80721,0.98878 -1.0456,0.98877 -1.20471,2.78448 z"
         id="path112" />
      <path
         d="m 214.92466,125.39521 v 3.61415 h 4.30742 v 1.62523 h -4.30742 v 6.91006 q 0,1.55703 0.42051,2.00028 0.43188,0.44324 1.73888,0.44324 h 2.14803 v 1.75025 h -2.14803 q -2.42079,0 -3.34138,-0.89785 -0.92058,-0.90922 -0.92058,-3.29592 v -6.91006 h -1.53431 v -1.62523 h 1.53431 v -3.61415 z"
         id="path114" />
      <path
         d="m 224.05094,125.39521 v 3.61415 h 4.30742 v 1.62523 h -4.30742 v 6.91006 q 0,1.55703 0.42051,2.00028 0.43188,0.44324 1.73888,0.44324 h 2.14803 v 1.75025 h -2.14803 q -2.42079,0 -3.34138,-0.89785 -0.92058,-0.90922 -0.92058,-3.29592 v -6.91006 h -1.53431 v -1.62523 h 1.53431 v -3.61415 z"
         id="path116" />
      <path
         d="m 241.99664,134.85109 v 1.02287 h -9.61498 q 0.13638,2.15939 1.29563,3.29592 1.17062,1.12515 3.25046,1.12515 1.20472,0 2.32987,-0.29549 1.13653,-0.2955 2.25032,-0.88649 v 1.97755 q -1.12516,0.47734 -2.30714,0.72738 -1.18199,0.25003 -2.39807,0.25003 -3.04588,0 -4.83022,-1.77298 -1.77298,-1.77297 -1.77298,-4.79612 0,-3.12544 1.68206,-4.95525 1.69342,-1.84116 4.55746,-1.84116 2.56854,0 4.05738,1.65932 1.50021,1.64796 1.50021,4.48927 z m -2.0912,-0.61373 q -0.0227,-1.71615 -0.96604,-2.73902 -0.93195,-1.02287 -2.47762,-1.02287 -1.75025,0 -2.80722,0.98878 -1.0456,0.98877 -1.20471,2.78448 z"
         id="path118" />
      <path
         d="m 252.80498,130.96418 q -0.35232,-0.20458 -0.77283,-0.2955 -0.40915,-0.10229 -0.90922,-0.10229 -1.77298,0 -2.72766,1.15926 -0.94331,1.14789 -0.94331,3.30728 v 6.70549 h -2.10257 v -12.72906 h 2.10257 v 1.97755 q 0.65918,-1.15926 1.71615,-1.71615 1.05696,-0.56826 2.56854,-0.56826 0.21594,0 0.47734,0.0341 0.2614,0.0227 0.57963,0.0796 z"
         id="path120" />
      <path
         d="m 272.97827,134.05552 v 7.6829 h -2.0912 v -7.61471 q 0,-1.80707 -0.70464,-2.70492 -0.70465,-0.89786 -2.11394,-0.89786 -1.69342,0 -2.67083,1.0797 -0.97741,1.0797 -0.97741,2.9436 v 7.19419 h -2.10257 v -17.68431 h 2.10257 v 6.9328 q 0.75011,-1.14789 1.76161,-1.71615 1.02287,-0.56826 2.35261,-0.56826 2.19349,0 3.31865,1.36382 1.12515,1.35247 1.12515,3.9892 z"
         id="path122" />
      <path
         d="m 288.0372,134.85109 v 1.02287 h -9.61499 q 0.13639,2.15939 1.29564,3.29592 1.17062,1.12515 3.25046,1.12515 1.20471,0 2.32987,-0.29549 1.13652,-0.2955 2.25032,-0.88649 v 1.97755 q -1.12516,0.47734 -2.30715,0.72738 -1.18198,0.25003 -2.39806,0.25003 -3.04588,0 -4.83022,-1.77298 -1.77298,-1.77297 -1.77298,-4.79612 0,-3.12544 1.68205,-4.95525 1.69342,-1.84116 4.55746,-1.84116 2.56855,0 4.05739,1.65932 1.50021,1.64796 1.50021,4.48927 z m -2.0912,-0.61373 q -0.0227,-1.71615 -0.96605,-2.73902 -0.93194,-1.02287 -2.47762,-1.02287 -1.75024,0 -2.80721,0.98878 -1.0456,0.98877 -1.20471,2.78448 z"
         id="path124" />
      <path
         d="m 297.25441,135.33979 q -2.53445,0 -3.51186,0.57963 -0.97741,0.57963 -0.97741,1.97755 0,1.11379 0.72738,1.77298 0.73874,0.64781 2.00028,0.64781 1.73888,0 2.78448,-1.22744 1.05697,-1.23881 1.05697,-3.28455 v -0.46598 z m 4.17104,-0.86376 v 7.26239 h -2.0912 v -1.93209 q -0.71601,1.15925 -1.78434,1.71615 -1.06834,0.54553 -2.61401,0.54553 -1.95482,0 -3.11407,-1.09106 -1.14789,-1.10243 -1.14789,-2.9436 0,-2.14803 1.43202,-3.23909 1.44338,-1.09106 4.29606,-1.09106 h 2.93223 v -0.20458 q 0,-1.44338 -0.95468,-2.22758 -0.94332,-0.79557 -2.65947,-0.79557 -1.09106,0 -2.12529,0.2614 -1.03424,0.2614 -1.98892,0.7842 v -1.93209 q 1.14789,-0.44324 2.22759,-0.65918 1.07969,-0.2273 2.10256,-0.2273 2.76176,0 4.12558,1.43201 1.36383,1.43202 1.36383,4.34152 z"
         id="path126" />
      <path
         d="m 305.73287,124.05411 h 2.09121 v 17.68431 h -2.09121 z"
         id="path128" />
      <path
         d="m 314.26817,125.39521 v 3.61415 h 4.30743 v 1.62523 h -4.30743 v 6.91006 q 0,1.55703 0.42052,2.00028 0.43188,0.44324 1.73888,0.44324 h 2.14803 v 1.75025 h -2.14803 q -2.4208,0 -3.34138,-0.89785 -0.92059,-0.90922 -0.92059,-3.29592 v -6.91006 h -1.5343 v -1.62523 h 1.5343 v -3.61415 z"
         id="path130" />
      <path
         d="m 331.90701,134.05552 v 7.6829 h -2.0912 v -7.61471 q 0,-1.80707 -0.70464,-2.70492 -0.70465,-0.89786 -2.11394,-0.89786 -1.69342,0 -2.67083,1.0797 -0.97741,1.0797 -0.97741,2.9436 v 7.19419 h -2.10256 v -17.68431 h 2.10256 v 6.9328 q 0.75011,-1.14789 1.76162,-1.71615 1.02287,-0.56826 2.3526,-0.56826 2.19349,0 3.31865,1.36382 1.12515,1.35247 1.12515,3.9892 z"
         id="path132" />
      <path
         d="m 336.37354,138.85165 h 2.39806 v 2.88677 h -2.39806 z"
         id="path134" />
    </g>
    <g
       aria-label="Province-wide solutions."
       transform="scale(0.98562,1.0146)"
       id="text20430"
       style="font-size:23.655px;line-height:1.05;stroke-width:0.98562">
      <path
         d="m 168.02641,104.01916 v 6.47971 h 2.93378 q 1.62859,0 2.51796,-0.84317 0.88937,-0.84317 0.88937,-2.40246 0,-1.54774 -0.88937,-2.39091 -0.88937,-0.84317 -2.51796,-0.84317 z m -2.33316,-1.91735 h 5.26694 q 2.89912,0 4.37756,1.31673 1.48998,1.30519 1.48998,3.8347 0,2.55262 -1.48998,3.8578 -1.47844,1.30518 -4.37756,1.30518 h -2.93378 v 6.93018 h -2.33316 z"
         id="path137" />
      <path
         d="m 186.94579,108.39672 q -0.35806,-0.20791 -0.78542,-0.30031 -0.41581,-0.10395 -0.92402,-0.10395 -1.80185,0 -2.77207,1.17813 -0.95868,1.16658 -0.95868,3.36113 v 6.81468 h -2.1368 v -12.93633 h 2.1368 v 2.00975 q 0.66992,-1.17813 1.7441,-1.74409 1.07418,-0.57752 2.61036,-0.57752 0.21946,0 0.48512,0.0346 0.26565,0.0231 0.58906,0.0809 z"
         id="path139" />
      <path
         d="m 193.66806,107.90006 q -1.70944,0 -2.70277,1.33983 -0.99332,1.32828 -0.99332,3.64989 0,2.32161 0.98177,3.66145 0.99333,1.32828 2.71432,1.32828 1.6979,0 2.69122,-1.33983 0.99333,-1.33984 0.99333,-3.6499 0,-2.2985 -0.99333,-3.63834 -0.99332,-1.35138 -2.69122,-1.35138 z m 0,-1.80185 q 2.77207,0 4.35446,1.80185 1.58239,1.80184 1.58239,4.98972 0,3.17633 -1.58239,4.98973 -1.58239,1.80185 -4.35446,1.80185 -2.78362,0 -4.36601,-1.80185 -1.57084,-1.8134 -1.57084,-4.98973 0,-3.18788 1.57084,-4.98972 1.58239,-1.80185 4.36601,-1.80185 z"
         id="path141" />
      <path
         d="m 201.60311,106.41007 h 2.25231 l 4.0426,10.85727 4.0426,-10.85727 h 2.25231 l -4.85112,12.93633 h -2.88757 z"
         id="path143" />
      <path
         d="m 217.12671,106.41007 h 2.12525 v 12.93633 h -2.12525 z m 0,-5.03593 h 2.12525 v 2.69122 h -2.12525 z"
         id="path145" />
      <path
         d="m 234.45215,111.5384 v 7.808 h -2.12525 v -7.7387 q 0,-1.8365 -0.71612,-2.74897 -0.71612,-0.91247 -2.14836,-0.91247 -1.72099,0 -2.71432,1.09728 -0.99332,1.09727 -0.99332,2.99152 v 7.31134 h -2.13681 v -12.93633 h 2.13681 v 2.00975 q 0.76232,-1.16658 1.79029,-1.74409 1.03953,-0.57752 2.39091,-0.57752 2.22921,0 3.37269,1.38604 1.14348,1.37448 1.14348,4.05415 z"
         id="path147" />
      <path
         d="m 248.00064,106.90673 v 1.98665 q -0.90092,-0.49666 -1.81339,-0.73922 -0.90093,-0.2541 -1.82495,-0.2541 -2.0675,0 -3.21098,1.31673 -1.14348,1.30518 -1.14348,3.67299 0,2.36781 1.14348,3.68455 1.14348,1.30518 3.21098,1.30518 0.92402,0 1.82495,-0.24256 0.91247,-0.2541 1.81339,-0.75077 v 1.96355 q -0.88937,0.41582 -1.84805,0.62372 -0.94712,0.20791 -2.0213,0.20791 -2.92222,0 -4.64321,-1.8365 -1.721,-1.8365 -1.721,-4.95508 0,-3.16478 1.73255,-4.97817 1.74409,-1.8134 4.77027,-1.8134 0.98177,0 1.91735,0.20791 0.93557,0.19635 1.81339,0.60061 z"
         id="path149" />
      <path
         d="m 262.76192,112.34692 v 1.03953 h -9.77155 q 0.1386,2.19455 1.31673,3.34958 1.18968,1.14348 3.30339,1.14348 1.22433,0 2.36781,-0.30031 1.15503,-0.30031 2.28695,-0.90092 v 2.00975 q -1.14347,0.48511 -2.34471,0.73922 -1.20123,0.25411 -2.43711,0.25411 -3.09548,0 -4.90887,-1.80185 -1.80185,-1.80185 -1.80185,-4.87422 0,-3.17633 1.70945,-5.03593 1.72099,-1.87115 4.63166,-1.87115 2.61037,0 4.12346,1.68634 1.52464,1.6748 1.52464,4.56237 z m -2.12526,-0.62372 q -0.0231,-1.74409 -0.98177,-2.78362 -0.94713,-1.03952 -2.51797,-1.03952 -1.77874,0 -2.85292,1.00487 -1.06263,1.00488 -1.22433,2.82982 z"
         id="path151" />
      <path
         d="m 265.17593,111.91956 h 6.2256 v 1.89425 h -6.2256 z"
         id="path153" />
      <path
         d="m 273.54989,106.41007 h 2.12525 l 2.65657,10.09496 2.64502,-10.09496 h 2.50641 l 2.65657,10.09496 2.64502,-10.09496 h 2.12525 l -3.38424,12.93633 h -2.50641 l -2.78362,-10.60317 -2.79517,10.60317 h -2.50641 z"
         id="path155" />
      <path
         d="m 294.13251,106.41007 h 2.12526 v 12.93633 h -2.12526 z m 0,-5.03593 h 2.12526 v 2.69122 h -2.12526 z"
         id="path157" />
      <path
         d="m 309.21719,108.37362 v -6.99948 h 2.12525 v 17.97226 h -2.12525 v -1.94045 q -0.66992,1.15503 -1.69789,1.72099 -1.01643,0.55442 -2.44866,0.55442 -2.34471,0 -3.82315,-1.87115 -1.46689,-1.87115 -1.46689,-4.92043 0,-3.04927 1.46689,-4.92042 1.47844,-1.87115 3.82315,-1.87115 1.43223,0 2.44866,0.56597 1.02797,0.55441 1.69789,1.70944 z m -7.24203,4.51616 q 0,2.34471 0.95867,3.68455 0.97023,1.32828 2.65657,1.32828 1.68634,0 2.65657,-1.32828 0.97022,-1.33984 0.97022,-3.68455 0,-2.34471 -0.97022,-3.67299 -0.97023,-1.33983 -2.65657,-1.33983 -1.68634,0 -2.65657,1.33983 -0.95867,1.32828 -0.95867,3.67299 z"
         id="path159" />
      <path
         d="m 326.78519,112.34692 v 1.03953 h -9.77155 q 0.1386,2.19455 1.31673,3.34958 1.18968,1.14348 3.30339,1.14348 1.22433,0 2.36781,-0.30031 1.15503,-0.30031 2.28695,-0.90092 v 2.00975 q -1.14348,0.48511 -2.34471,0.73922 -1.20123,0.25411 -2.43711,0.25411 -3.09548,0 -4.90887,-1.80185 -1.80185,-1.80185 -1.80185,-4.87422 0,-3.17633 1.70945,-5.03593 1.72099,-1.87115 4.63166,-1.87115 2.61037,0 4.12346,1.68634 1.52464,1.6748 1.52464,4.56237 z m -2.12526,-0.62372 q -0.0231,-1.74409 -0.98177,-2.78362 -0.94713,-1.03952 -2.51797,-1.03952 -1.77874,0 -2.85292,1.00487 -1.06263,1.00488 -1.22433,2.82982 z"
         id="path161" />
      <path
         d="m 346.03953,106.79123 v 2.00975 q -0.90092,-0.46201 -1.87115,-0.69302 -0.97022,-0.231 -2.00975,-0.231 -1.58239,0 -2.37936,0.48511 -0.78542,0.48511 -0.78542,1.45534 0,0.73921 0.56597,1.16658 0.56596,0.41581 2.2754,0.79697 l 0.72767,0.1617 q 2.26386,0.48511 3.21098,1.37448 0.95868,0.87783 0.95868,2.46022 0,1.80184 -1.43224,2.85292 -1.42068,1.05108 -3.91555,1.05108 -1.03952,0 -2.17145,-0.20791 -1.12038,-0.19635 -2.36781,-0.60061 v -2.19456 q 1.17813,0.61217 2.32161,0.92402 1.14348,0.30031 2.26385,0.30031 1.50154,0 2.31006,-0.50821 0.80852,-0.51977 0.80852,-1.45534 0,-0.86627 -0.58906,-1.32828 -0.57752,-0.46201 -2.55262,-0.88938 l -0.73921,-0.17325 q -1.9751,-0.41581 -2.85293,-1.27053 -0.87782,-0.86627 -0.87782,-2.36781 0,-1.82495 1.29363,-2.81827 1.29364,-0.99333 3.673,-0.99333 1.17813,0 2.21765,0.17326 1.03953,0.17325 1.91735,0.51976 z"
         id="path163" />
      <path
         d="m 355.12961,107.90006 q -1.70945,0 -2.70277,1.33983 -0.99333,1.32828 -0.99333,3.64989 0,2.32161 0.98178,3.66145 0.99332,1.32828 2.71432,1.32828 1.69789,0 2.69122,-1.33983 0.99332,-1.33984 0.99332,-3.6499 0,-2.2985 -0.99332,-3.63834 -0.99333,-1.35138 -2.69122,-1.35138 z m 0,-1.80185 q 2.77207,0 4.35446,1.80185 1.58239,1.80184 1.58239,4.98972 0,3.17633 -1.58239,4.98973 -1.58239,1.80185 -4.35446,1.80185 -2.78362,0 -4.36601,-1.80185 -1.57084,-1.8134 -1.57084,-4.98973 0,-3.18788 1.57084,-4.98972 1.58239,-1.80185 4.36601,-1.80185 z"
         id="path165" />
      <path
         d="m 364.5893,101.37414 h 2.12525 v 17.97226 h -2.12525 z"
         id="path167" />
      <path
         d="m 370.94196,114.24117 v -7.8311 h 2.12525 v 7.75025 q 0,1.83649 0.71612,2.76052 0.71612,0.91247 2.14835,0.91247 1.721,0 2.71432,-1.09728 1.00488,-1.09728 1.00488,-2.99152 v -7.33444 h 2.12525 v 12.93633 h -2.12525 v -1.98665 q -0.77387,1.17813 -1.80185,1.75564 -1.01642,0.56597 -2.36781,0.56597 -2.22921,0 -3.38423,-1.38604 -1.15503,-1.38603 -1.15503,-4.05415 z m 5.34778,-8.14296 z"
         id="path169" />
      <path
         d="m 388.25586,102.73708 v 3.67299 h 4.37756 v 1.65169 h -4.37756 v 7.02258 q 0,1.58239 0.42736,2.03285 0.43891,0.45046 1.7672,0.45046 h 2.183 v 1.77875 h -2.183 q -2.46022,0 -3.39579,-0.91248 -0.93557,-0.92402 -0.93557,-3.34958 v -7.02258 h -1.55929 v -1.65169 h 1.55929 v -3.67299 z"
         id="path171" />
      <path
         d="m 395.42858,106.41007 h 2.12525 v 12.93633 h -2.12525 z m 0,-5.03593 h 2.12525 v 2.69122 h -2.12525 z"
         id="path173" />
      <path
         d="m 407.01353,107.90006 q -1.70944,0 -2.70277,1.33983 -0.99332,1.32828 -0.99332,3.64989 0,2.32161 0.98177,3.66145 0.99333,1.32828 2.71432,1.32828 1.6979,0 2.69122,-1.33983 0.99333,-1.33984 0.99333,-3.6499 0,-2.2985 -0.99333,-3.63834 -0.99332,-1.35138 -2.69122,-1.35138 z m 0,-1.80185 q 2.77207,0 4.35446,1.80185 1.58239,1.80184 1.58239,4.98972 0,3.17633 -1.58239,4.98973 -1.58239,1.80185 -4.35446,1.80185 -2.78362,0 -4.36601,-1.80185 -1.57084,-1.8134 -1.57084,-4.98973 0,-3.18788 1.57084,-4.98972 1.58239,-1.80185 4.36601,-1.80185 z"
         id="path175" />
      <path
         d="m 427.22655,111.5384 v 7.808 h -2.12526 v -7.7387 q 0,-1.8365 -0.71611,-2.74897 -0.71612,-0.91247 -2.14836,-0.91247 -1.72099,0 -2.71432,1.09728 -0.99332,1.09727 -0.99332,2.99152 v 7.31134 h -2.13681 v -12.93633 h 2.13681 v 2.00975 q 0.76232,-1.16658 1.79029,-1.74409 1.03953,-0.57752 2.39091,-0.57752 2.22921,0 3.37269,1.38604 1.14348,1.37448 1.14348,4.05415 z"
         id="path177" />
      <path
         d="m 439.71241,106.79123 v 2.00975 q -0.90092,-0.46201 -1.87114,-0.69302 -0.97023,-0.231 -2.00975,-0.231 -1.5824,0 -2.37937,0.48511 -0.78542,0.48511 -0.78542,1.45534 0,0.73921 0.56597,1.16658 0.56596,0.41581 2.27541,0.79697 l 0.72767,0.1617 q 2.26385,0.48511 3.21098,1.37448 0.95867,0.87783 0.95867,2.46022 0,1.80184 -1.43224,2.85292 -1.42068,1.05108 -3.91554,1.05108 -1.03953,0 -2.17146,-0.20791 -1.12038,-0.19635 -2.36781,-0.60061 v -2.19456 q 1.17813,0.61217 2.32161,0.92402 1.14348,0.30031 2.26386,0.30031 1.50153,0 2.31006,-0.50821 0.80852,-0.51977 0.80852,-1.45534 0,-0.86627 -0.58907,-1.32828 -0.57751,-0.46201 -2.55261,-0.88938 l -0.73922,-0.17325 q -1.9751,-0.41581 -2.85293,-1.27053 -0.87782,-0.86627 -0.87782,-2.36781 0,-1.82495 1.29364,-2.81827 1.29363,-0.99333 3.67299,-0.99333 1.17813,0 2.21765,0.17326 1.03953,0.17325 1.91735,0.51976 z"
         id="path179" />
      <path
         d="m 444.08997,116.41262 h 2.43711 v 2.93378 h -2.43711 z"
         id="path181" />
    </g>
  </g>
  <g
     id="g59457"
     transform="matrix(4.3043,0,0,4.3043,0,-1.2305e-5)"
     fill="#1b5630"
     font-family="sans-serif"
     letter-spacing="0px">
    <g
       aria-label="Services Authority"
       transform="scale(1.0324,0.96861)"
       id="text2035-2"
       style="font-size:39.78px;line-height:0.95;stroke-width:0.99451">
      <path
         d="m 132.92792,85.809537 5.03466,-0.489481 q 0.45451,2.53481 1.83555,3.723548 1.39851,1.188738 3.75851,1.188738 2.49984,0 3.75851,-1.048886 1.27614,-1.066369 1.27614,-2.482366 0,-0.909035 -0.54192,-1.538367 -0.52444,-0.646813 -1.85303,-1.118812 -0.90904,-0.314666 -4.14311,-1.118813 -4.16058,-1.031405 -5.8388,-2.534809 -2.35999,-2.115255 -2.35999,-5.157026 0,-1.957922 1.10133,-3.653622 1.11881,-1.713182 3.1991,-2.604735 2.09777,-0.891554 5.05214,-0.891554 4.82488,0 7.2548,2.115255 2.4474,2.115255 2.56977,5.646506 l -5.17451,0.227259 q -0.33214,-1.975403 -1.43348,-2.831994 -1.08384,-0.874072 -3.26903,-0.874072 -2.2551,0 -3.53125,0.926517 -0.82163,0.594369 -0.82163,1.590811 0,0.909035 0.76919,1.555849 0.97896,0.821627 4.75495,1.713181 3.77599,0.891554 5.57658,1.853033 1.81807,0.943998 2.832,2.604735 1.0314,1.643256 1.0314,4.073177 0,2.202662 -1.2237,4.125621 -1.2237,1.922959 -3.46133,2.866957 -2.23762,0.926516 -5.57658,0.926516 -4.85984,0 -7.46457,-2.237625 -2.60474,-2.255106 -3.1117,-6.555541 z"
         style="font-weight:bold;font-size:35.802px;font-family:Arial"
         id="path24" />
      <path
         d="m 168.83481,88.239458 4.8948,0.821627 q -0.944,2.692143 -2.98933,4.10814 -2.02784,1.398515 -5.0871,1.398515 -4.84236,0 -7.16739,-3.164141 -1.83555,-2.534809 -1.83555,-6.398209 0,-4.615101 2.41244,-7.219836 2.41244,-2.622217 6.10102,-2.622217 4.14311,0 6.53806,2.744587 2.39496,2.727105 2.29007,8.373612 H 161.6849 q 0.0524,2.18518 1.18873,3.408881 1.1363,1.20622 2.832,1.20622 1.15377,0 1.94044,-0.629332 0.78666,-0.629332 1.18874,-2.027847 z m 0.2797,-4.964731 q -0.0524,-2.132736 -1.10133,-3.234067 -1.04889,-1.118812 -2.55229,-1.118812 -1.60829,0 -2.65718,1.171256 -1.04889,1.171257 -1.03141,3.181623 z"
         style="font-weight:bold;font-size:35.802px;font-family:Arial"
         id="path26" />
      <path
         d="m 182.69759,94.148186 h -4.91228 V 75.582892 h 4.56265 v 2.639698 q 1.17126,-1.870515 2.09778,-2.464884 0.944,-0.594369 2.13273,-0.594369 1.67822,0 3.23407,0.926517 l -1.52088,4.282954 q -1.24119,-0.804147 -2.30756,-0.804147 -1.0314,0 -1.74814,0.576888 -0.71674,0.559406 -1.13629,2.045329 -0.40208,1.485923 -0.40208,6.223394 z"
         style="font-weight:bold;font-size:35.802px;font-family:Arial"
         id="path28" />
      <path
         d="m 197.03238,94.148186 -7.48206,-18.565294 h 5.15703 l 3.49629,9.474943 1.01392,3.164141 q 0.40207,-1.20622 0.50696,-1.590811 0.24474,-0.786665 0.52444,-1.57333 l 3.53126,-9.474943 h 5.05213 l -7.37717,18.565294 z"
         style="font-weight:bold;font-size:35.802px;font-family:Arial"
         id="path30" />
      <path
         d="m 211.83916,73.065564 v -4.545176 h 4.91228 v 4.545176 z m 0,21.082622 V 75.582892 h 4.91228 v 18.565294 z"
         style="font-weight:bold;font-size:35.802px;font-family:Arial"
         id="path32" />
      <path
         d="m 237.97392,81.072065 -4.84236,0.874073 q -0.24474,-1.45096 -1.11881,-2.185181 -0.85659,-0.734221 -2.23763,-0.734221 -1.83555,0 -2.93688,1.276146 -1.08385,1.258664 -1.08385,4.230509 0,3.303993 1.10133,4.667546 1.11882,1.363553 2.98933,1.363553 1.39852,0 2.29007,-0.786665 0.89155,-0.804147 1.25866,-2.744587 l 4.82488,0.821628 q -0.7517,3.321474 -2.88444,5.017174 -2.13273,1.6957 -5.71643,1.6957 -4.07318,0 -6.5031,-2.569772 -2.41244,-2.569772 -2.41244,-7.114948 0,-4.59762 2.42993,-7.149911 2.42992,-2.569772 6.57302,-2.569772 3.3914,0 5.38428,1.468441 2.01037,1.45096 2.88444,4.440287 z"
         style="font-weight:bold;font-size:35.802px;font-family:Arial"
         id="path34" />
      <path
         d="m 252.44856,88.239458 4.89481,0.821627 q -0.944,2.692143 -2.98933,4.10814 -2.02785,1.398515 -5.0871,1.398515 -4.84236,0 -7.16739,-3.164141 -1.83556,-2.534809 -1.83556,-6.398209 0,-4.615101 2.41244,-7.219836 2.41244,-2.622217 6.10103,-2.622217 4.1431,0 6.53806,2.744587 2.39496,2.727105 2.29007,8.373612 h -12.30694 q 0.0524,2.18518 1.18874,3.408881 1.13629,1.20622 2.83199,1.20622 1.15378,0 1.94044,-0.629332 0.78667,-0.629332 1.18874,-2.027847 z m 0.2797,-4.964731 q -0.0524,-2.132736 -1.10133,-3.234067 -1.04888,-1.118812 -2.55229,-1.118812 -1.60829,0 -2.65718,1.171256 -1.04888,1.171257 -1.0314,3.181623 z"
         style="font-weight:bold;font-size:35.802px;font-family:Arial"
         id="path36" />
      <path
         d="m 259.87817,88.851308 4.92977,-0.751702 q 0.31467,1.433478 1.27614,2.185181 0.96148,0.73422 2.69215,0.73422 1.90547,0 2.86695,-0.699258 0.64682,-0.48948 0.64682,-1.311108 0,-0.559406 -0.34963,-0.926516 -0.36711,-0.349629 -1.64326,-0.646814 -5.94369,-1.311108 -7.5345,-2.394958 -2.20266,-1.503404 -2.20266,-4.178065 0,-2.412439 1.90548,-4.055695 1.90547,-1.643256 5.90872,-1.643256 3.81096,0 5.66399,1.241183 1.85303,1.241182 2.55229,3.671103 l -4.63258,0.856591 q -0.29718,-1.08385 -1.13629,-1.660737 -0.82163,-0.576888 -2.36,-0.576888 -1.94044,0 -2.77955,0.541925 -0.5594,0.384591 -0.5594,0.996442 0,0.524443 0.48948,0.891554 0.66429,0.48948 4.58013,1.381034 3.93333,0.891553 5.48918,2.18518 1.53836,1.311109 1.53836,3.653622 0,2.552291 -2.13273,4.387843 -2.13274,1.835551 -6.3108,1.835551 -3.79348,0 -6.01362,-1.538367 -2.20266,-1.538367 -2.88444,-4.178065 z"
         style="font-weight:bold;font-size:35.802px;font-family:Arial"
         id="path38" />
      <path
         d="m 313.28399,94.148186 h -5.62902 l -2.23763,-5.821321 h -10.24413 l -2.11525,5.821321 h -5.48917 l 9.9819,-25.627798 h 5.47169 z m -9.52739,-10.139238 -3.53125,-9.509906 -3.46132,9.509906 z"
         style="font-weight:bold;font-size:35.802px;font-family:Arial"
         id="path40" />
      <path
         d="m 328.21315,94.148186 v -2.77955 q -1.01393,1.485923 -2.67467,2.342514 -1.64325,0.85659 -3.4788,0.85659 -1.87052,0 -3.35644,-0.821627 -1.48592,-0.821628 -2.15022,-2.307551 -0.66429,-1.485923 -0.66429,-4.10814 v -11.74753 h 4.91228 v 8.530945 q 0,3.915843 0.26222,4.807397 0.27971,0.874072 0.99645,1.398515 0.71674,0.506962 1.81807,0.506962 1.25866,0 2.2551,-0.681776 0.99645,-0.699258 1.36356,-1.713182 0.36711,-1.031405 0.36711,-5.017174 v -7.831687 h 4.91228 v 18.565294 z"
         style="font-weight:bold;font-size:35.802px;font-family:Arial"
         id="path42" />
      <path
         d="m 346.37636,75.582892 v 3.915843 h -3.35644 v 7.482059 q 0,2.272587 0.0874,2.657179 0.10489,0.36711 0.43703,0.611851 0.34963,0.24474 0.83911,0.24474 0.68178,0 1.97541,-0.471999 l 0.41955,3.810955 q -1.71318,0.73422 -3.88088,0.73422 -1.32859,0 -2.39496,-0.437036 -1.06637,-0.454517 -1.57333,-1.153775 -0.48948,-0.716739 -0.68177,-1.922959 -0.15734,-0.856591 -0.15734,-3.461326 v -8.093909 h -2.2551 v -3.915843 h 2.2551 v -3.688585 l 4.92977,-2.866957 v 6.555542 z"
         style="font-weight:bold;font-size:35.802px;font-family:Arial"
         id="path44" />
      <path
         d="m 354.68005,68.520388 v 9.422499 q 2.37747,-2.77955 5.68147,-2.77955 1.6957,0 3.05925,0.629332 1.36355,0.629332 2.04533,1.608293 0.69926,0.978961 0.944,2.167699 0.26222,1.188738 0.26222,3.688585 v 10.89094 h -4.91229 v -9.807091 q 0,-2.919401 -0.2797,-3.706066 -0.27971,-0.786665 -0.99644,-1.241182 -0.69926,-0.471999 -1.76563,-0.471999 -1.2237,0 -2.18518,0.594369 -0.96148,0.594369 -1.416,1.800589 -0.43703,1.188738 -0.43703,3.531251 v 9.300129 h -4.91229 V 68.520388 Z"
         style="font-weight:bold;font-size:35.802px;font-family:Arial"
         id="path46" />
      <path
         d="m 370.51824,84.603317 q 0,-2.447402 1.20622,-4.737471 1.20622,-2.29007 3.40888,-3.496289 2.22015,-1.20622 4.94725,-1.20622 4.21303,0 6.90517,2.744587 2.69214,2.727105 2.69214,6.90517 0,4.213029 -2.7271,6.992578 -2.70963,2.762068 -6.83525,2.762068 -2.55229,0 -4.87732,-1.153775 -2.30755,-1.153775 -3.51377,-3.373919 -1.20622,-2.237625 -1.20622,-5.436729 z m 5.03466,0.262222 q 0,2.762068 1.31111,4.230509 1.3111,1.468442 3.23406,1.468442 1.92296,0 3.21659,-1.468442 1.31111,-1.468441 1.31111,-4.265472 0,-2.727105 -1.31111,-4.195547 -1.29363,-1.468441 -3.21659,-1.468441 -1.92296,0 -3.23406,1.468441 -1.31111,1.468442 -1.31111,4.23051 z"
         style="font-weight:bold;font-size:35.802px;font-family:Arial"
         id="path48" />
      <path
         d="m 398.22634,94.148186 h -4.91229 V 75.582892 h 4.56266 v 2.639698 q 1.17125,-1.870515 2.09777,-2.464884 0.944,-0.594369 2.13274,-0.594369 1.67822,0 3.23406,0.926517 l -1.52088,4.282954 q -1.24118,-0.804147 -2.30755,-0.804147 -1.03141,0 -1.74815,0.576888 -0.71674,0.559406 -1.13629,2.045329 -0.40207,1.485923 -0.40207,6.223394 z"
         style="font-weight:bold;font-size:35.802px;font-family:Arial"
         id="path50" />
      <path
         d="m 407.45654,73.065564 v -4.545176 h 4.91228 v 4.545176 z m 0,21.082622 V 75.582892 h 4.91228 v 18.565294 z"
         style="font-weight:bold;font-size:35.802px;font-family:Arial"
         id="path52" />
      <path
         d="m 425.91693,75.582892 v 3.915843 h -3.35644 v 7.482059 q 0,2.272587 0.0874,2.657179 0.10489,0.36711 0.43704,0.611851 0.34963,0.24474 0.83911,0.24474 0.68177,0 1.9754,-0.471999 l 0.41955,3.810955 q -1.71318,0.73422 -3.88088,0.73422 -1.32859,0 -2.39496,-0.437036 -1.06636,-0.454517 -1.57333,-1.153775 -0.48948,-0.716739 -0.68177,-1.922959 -0.15733,-0.856591 -0.15733,-3.461326 v -8.093909 h -2.25511 v -3.915843 h 2.25511 v -3.688585 l 4.92976,-2.866957 v 6.555542 z"
         style="font-weight:bold;font-size:35.802px;font-family:Arial"
         id="path54" />
      <path
         d="m 427.0008,75.582892 h 5.22695 l 4.44029,13.181009 4.33539,-13.181009 h 5.08711 l -6.55555,17.866036 -1.17125,3.234067 q -0.64682,1.625774 -1.24119,2.482365 -0.57688,0.85659 -1.34607,1.38103 -0.7517,0.54193 -1.87051,0.83911 -1.10133,0.29719 -2.49985,0.29719 -1.416,0 -2.77955,-0.29719 l -0.43703,-3.845914 q 1.15377,0.227259 2.08029,0.227259 1.71318,0 2.53481,-1.013924 0.82163,-0.996442 1.25866,-2.552291 z"
         style="font-weight:bold;font-size:35.802px;font-family:Arial"
         id="path56" />
    </g>
    <g
       aria-label="Provincial Health"
       transform="scale(1.0343,0.96686)"
       id="text2035"
       style="font-size:39.852px;line-height:0.95;stroke-width:0.99631">
      <path
         d="M 134.03161,57.257431 V 31.583103 h 8.31877 q 4.72856,0 6.16464,0.385291 2.20666,0.577935 3.69528,2.521898 1.48862,1.92645 1.48862,4.991257 0,2.36428 -0.85815,3.975493 -0.85814,1.611213 -2.18914,2.539412 -1.31349,0.910685 -2.67952,1.208409 -1.8564,0.367777 -5.37655,0.367777 h -3.38004 v 9.684791 z m 5.18391,-21.331058 v 7.285485 h 2.83713 q 3.06481,0 4.09809,-0.402804 1.03328,-0.402803 1.61121,-1.260949 0.59545,-0.858146 0.59545,-1.996503 0,-1.401055 -0.82312,-2.31174 -0.82312,-0.910686 -2.08407,-1.138357 -0.9282,-0.175132 -3.73031,-0.175132 z"
         style="font-weight:bold;font-size:35.867px;font-family:Arial"
         id="path59" />
      <path
         d="m 162.63064,57.257431 h -4.9212 V 38.65843 h 4.57094 v 2.644491 q 1.17338,-1.873911 2.10158,-2.469359 0.94571,-0.595449 2.13661,-0.595449 1.68127,0 3.23994,0.928199 l -1.52365,4.29073 q -1.24343,-0.805606 -2.31174,-0.805606 -1.03328,0 -1.75132,0.577935 -0.71804,0.560422 -1.13835,2.049042 -0.40281,1.488621 -0.40281,6.234694 z"
         style="font-weight:bold;font-size:35.867px;font-family:Arial"
         id="path61" />
      <path
         d="m 170.73925,47.695233 q 0,-2.451846 1.20841,-4.746073 1.20841,-2.294227 3.41507,-3.502637 2.22418,-1.20841 4.95623,-1.20841 4.22068,0 6.91771,2.74957 2.69703,2.732057 2.69703,6.917708 0,4.220677 -2.73206,7.005273 -2.71454,2.767083 -6.84765,2.767083 -2.55693,0 -4.88618,-1.15587 -2.31174,-1.15587 -3.52015,-3.380044 -1.20841,-2.241688 -1.20841,-5.4466 z m 5.0438,0.262697 q 0,2.767083 1.31349,4.238191 1.31348,1.471107 3.23994,1.471107 1.92645,0 3.22242,-1.471107 1.31349,-1.471108 1.31349,-4.273217 0,-2.732057 -1.31349,-4.203164 -1.29597,-1.471108 -3.22242,-1.471108 -1.92646,0 -3.23994,1.471108 -1.31349,1.471107 -1.31349,4.23819 z"
         style="font-weight:bold;font-size:35.867px;font-family:Arial"
         id="path63" />
      <path
         d="M 198.90045,57.257431 191.4048,38.65843 h 5.16639 l 3.50264,9.492145 1.01576,3.169887 q 0.40281,-1.20841 0.50789,-1.5937 0.24518,-0.788093 0.52539,-1.576187 l 3.53766,-9.492145 h 5.06132 l -7.39057,18.599001 z"
         style="font-weight:bold;font-size:35.867px;font-family:Arial"
         id="path65" />
      <path
         d="m 213.73411,36.136531 v -4.553428 h 4.92121 v 4.553428 z m 0,21.1209 V 38.65843 h 4.92121 v 18.599001 z"
         style="font-weight:bold;font-size:35.867px;font-family:Arial"
         id="path67" />
      <path
         d="m 240.61685,57.257431 h -4.9212 v -9.492146 q 0,-3.012267 -0.31524,-3.887926 -0.31524,-0.893173 -1.03328,-1.383542 -0.70052,-0.490369 -1.69878,-0.490369 -1.27846,0 -2.29422,0.700527 -1.01577,0.700528 -1.40106,1.856398 -0.36777,1.15587 -0.36777,4.273217 v 8.423841 h -4.92121 V 38.65843 h 4.57094 v 2.732056 q 2.43433,-3.152373 6.12962,-3.152373 1.62872,0 2.97724,0.595449 1.34851,0.577935 2.03153,1.48862 0.70052,0.910686 0.96322,2.066556 0.28021,1.15587 0.28021,3.309992 z"
         style="font-weight:bold;font-size:35.867px;font-family:Arial"
         id="path69" />
      <path
         d="m 261.82531,44.157569 -4.85115,0.87566 q -0.24518,-1.453595 -1.12084,-2.189148 -0.85815,-0.735554 -2.24169,-0.735554 -1.83888,0 -2.94221,1.278462 -1.08582,1.26095 -1.08582,4.238191 0,3.309992 1.10333,4.67602 1.12084,1.366028 2.99475,1.366028 1.40106,0 2.29423,-0.788093 0.89317,-0.805606 1.26095,-2.74957 l 4.83364,0.82312 q -0.75307,3.327505 -2.88968,5.026284 -2.1366,1.698778 -5.72681,1.698778 -4.08057,0 -6.5149,-2.574438 -2.41682,-2.574438 -2.41682,-7.127865 0,-4.605968 2.43433,-7.162893 2.43433,-2.574438 6.58496,-2.574438 3.39756,0 5.39406,1.471108 2.01402,1.453594 2.88967,4.448348 z"
         style="font-weight:bold;font-size:35.867px;font-family:Arial"
         id="path71" />
      <path
         d="m 265.55562,36.136531 v -4.553428 h 4.92121 v 4.553428 z m 0,21.1209 V 38.65843 h 4.92121 v 18.599001 z"
         style="font-weight:bold;font-size:35.867px;font-family:Arial"
         id="path73" />
      <path
         d="m 279.19839,44.332701 -4.46586,-0.805606 q 0.75306,-2.69703 2.59195,-3.993006 1.83888,-1.295976 5.46411,-1.295976 3.29248,0 4.90369,0.788094 1.61122,0.77058 2.2592,1.978989 0.6655,1.190897 0.6655,4.39581 l -0.0525,5.744324 q 0,2.451846 0.22767,3.625229 0.24518,1.15587 0.89317,2.486872 h -4.86867 q -0.19264,-0.490369 -0.47285,-1.453594 -0.12259,-0.43783 -0.17513,-0.577935 -1.26095,1.225923 -2.69703,1.838884 -1.43609,0.612961 -3.06481,0.612961 -2.87216,0 -4.53592,-1.558673 -1.64624,-1.558673 -1.64624,-3.940466 0,-1.576187 0.75307,-2.80211 0.75307,-1.243436 2.10158,-1.891424 1.36603,-0.665501 3.92296,-1.15587 3.45009,-0.647988 4.7811,-1.208409 v -0.49037 q 0,-1.418567 -0.70053,-2.014016 -0.70053,-0.612961 -2.64449,-0.612961 -1.31349,0 -2.04904,0.525395 -0.73556,0.507883 -1.1909,1.803858 z m 6.58496,3.993006 q -0.94572,0.315238 -2.99476,0.753067 -2.04904,0.43783 -2.67952,0.858146 -0.96322,0.683014 -0.96322,1.733805 0,1.033278 0.77058,1.786345 0.77058,0.753067 1.96148,0.753067 1.331,0 2.53941,-0.875659 0.89317,-0.665501 1.17338,-1.628726 0.19265,-0.630475 0.19265,-2.399306 z"
         style="font-weight:bold;font-size:35.867px;font-family:Arial"
         id="path75" />
      <path
         d="M 295.46815,57.257431 V 31.583103 h 4.9212 v 25.674328 z"
         style="font-weight:bold;font-size:35.867px;font-family:Arial"
         id="path77" />
      <path
         d="M 315.45068,57.257431 V 31.583103 h 5.1839 v 10.105108 h 10.15765 V 31.583103 h 5.1839 v 25.674328 h -5.1839 V 46.03148 h -10.15765 v 11.225951 z"
         style="font-weight:bold;font-size:35.867px;font-family:Arial"
         id="path79" />
      <path
         d="m 352.07075,51.337975 4.9037,0.82312 q -0.94572,2.69703 -2.99476,4.115598 -2.03153,1.401054 -5.09634,1.401054 -4.85115,0 -7.1804,-3.169886 -1.83889,-2.539412 -1.83889,-6.409825 0,-4.623481 2.41682,-7.232945 2.41682,-2.626978 6.11211,-2.626978 4.15062,0 6.54993,2.74957 2.3993,2.732057 2.29422,8.388815 h -12.32928 q 0.0525,2.189148 1.1909,3.415071 1.13836,1.20841 2.83713,1.20841 1.15587,0 1.94397,-0.630475 0.78809,-0.630474 1.19089,-2.031529 z m 0.28022,-4.973744 q -0.0525,-2.136609 -1.10334,-3.239939 -1.05079,-1.120844 -2.55692,-1.120844 -1.61121,0 -2.662,1.173383 -1.0508,1.173384 -1.03328,3.1874 z"
         style="font-weight:bold;font-size:35.867px;font-family:Arial"
         id="path81" />
      <path
         d="m 364.92542,44.332701 -4.46586,-0.805606 q 0.75307,-2.69703 2.59195,-3.993006 1.83889,-1.295976 5.46412,-1.295976 3.29248,0 4.90369,0.788094 1.61121,0.77058 2.2592,1.978989 0.6655,1.190897 0.6655,4.39581 l -0.0525,5.744324 q 0,2.451846 0.22767,3.625229 0.24519,1.15587 0.89317,2.486872 h -4.86866 q -0.19265,-0.490369 -0.47286,-1.453594 -0.12259,-0.43783 -0.17513,-0.577935 -1.26095,1.225923 -2.69703,1.838884 -1.43608,0.612961 -3.06481,0.612961 -2.87216,0 -4.53591,-1.558673 -1.64624,-1.558673 -1.64624,-3.940466 0,-1.576187 0.75307,-2.80211 0.75306,-1.243436 2.10158,-1.891424 1.36603,-0.665501 3.92295,-1.15587 3.4501,-0.647988 4.7811,-1.208409 v -0.49037 q 0,-1.418567 -0.70053,-2.014016 -0.70052,-0.612961 -2.64449,-0.612961 -1.31349,0 -2.04904,0.525395 -0.73555,0.507883 -1.1909,1.803858 z m 6.58496,3.993006 q -0.94571,0.315238 -2.99475,0.753067 -2.04905,0.43783 -2.67952,0.858146 -0.96323,0.683014 -0.96323,1.733805 0,1.033278 0.77058,1.786345 0.77059,0.753067 1.96148,0.753067 1.331,0 2.53941,-0.875659 0.89318,-0.665501 1.17339,-1.628726 0.19264,-0.630475 0.19264,-2.399306 z"
         style="font-weight:bold;font-size:35.867px;font-family:Arial"
         id="path83" />
      <path
         d="M 381.19518,57.257431 V 31.583103 h 4.92121 v 25.674328 z"
         style="font-weight:bold;font-size:35.867px;font-family:Arial"
         id="path85" />
      <path
         d="m 399.68908,38.65843 v 3.922953 h -3.36253 v 7.495643 q 0,2.276714 0.0876,2.662004 0.10508,0.367776 0.43783,0.612961 0.35026,0.245185 0.84063,0.245185 0.68301,0 1.97899,-0.472856 l 0.42032,3.817874 q -1.7163,0.735553 -3.88793,0.735553 -1.331,0 -2.39931,-0.437829 -1.0683,-0.455343 -1.57618,-1.15587 -0.49037,-0.718041 -0.68302,-1.926451 -0.15762,-0.858146 -0.15762,-3.46761 v -8.108604 h -2.2592 V 38.65843 h 2.2592 v -3.695282 l 4.93872,-2.872162 v 6.567444 z"
         style="font-weight:bold;font-size:35.867px;font-family:Arial"
         id="path87" />
      <path
         d="m 408.00785,31.583103 v 9.439607 q 2.3818,-2.784597 5.69179,-2.784597 1.69878,0 3.06481,0.630475 1.36602,0.630475 2.04904,1.611213 0.70053,0.980738 0.94571,2.171635 0.2627,1.190896 0.2627,3.695281 v 10.910714 h -4.92121 v -9.824896 q 0,-2.924702 -0.28021,-3.712795 -0.28021,-0.788093 -0.99825,-1.243436 -0.70053,-0.472856 -1.76883,-0.472856 -1.22592,0 -2.18915,0.595448 -0.96322,0.595448 -1.41857,1.803858 -0.43783,1.190897 -0.43783,3.537663 v 9.317014 h -4.9212 V 31.583103 Z"
         style="font-weight:bold;font-size:35.867px;font-family:Arial"
         id="path89" />
    </g>
  </g>
  <metadata
     id="metadata202">
    <rdf:RDF>
      <cc:Work
         rdf:about="">
        <dc:title>Provincial Health Services Authority Logo</dc:title>
        <dc:date>2021-11-01</dc:date>
        <dc:creator>
          <cc:Agent>
            <dc:title>Victor Westmann</dc:title>
          </cc:Agent>
        </dc:creator>
        <dc:rights>
          <cc:Agent>
            <dc:title>Victor Westmann</dc:title>
          </cc:Agent>
        </dc:rights>
        <dc:source>Inkscape 1.1.1</dc:source>
        <dc:relation>Creator</dc:relation>
        <dc:language>English</dc:language>
        <dc:subject>
          <rdf:Bag>
            <rdf:li>PHSA</rdf:li>
          </rdf:Bag>
        </dc:subject>
        <cc:license
           rdf:resource="http://creativecommons.org/publicdomain/zero/1.0/" />
      </cc:Work>
      <cc:License
         rdf:about="http://creativecommons.org/publicdomain/zero/1.0/">
        <cc:permits
           rdf:resource="http://creativecommons.org/ns#Reproduction" />
        <cc:permits
           rdf:resource="http://creativecommons.org/ns#Distribution" />
        <cc:permits
           rdf:resource="http://creativecommons.org/ns#DerivativeWorks" />
      </cc:License>
    </rdf:RDF>
  </metadata>
</svg>
