<?xml version="1.0" standalone="no"?>
<!DOCTYPE svg PUBLIC "-//W3C//DTD SVG 20010904//EN"
 "http://www.w3.org/TR/2001/REC-SVG-20010904/DTD/svg10.dtd">
<svg version="1.0" xmlns="http://www.w3.org/2000/svg"
 width="500.000000pt" height="500.000000pt" viewBox="0 0 500.000000 500.000000"
 preserveAspectRatio="xMidYMid meet">

<g transform="translate(0.000000,500.000000) scale(0.100000,-0.100000)"
fill="#000000" stroke="none">
<path d="M0 2500 l0 -2500 2500 0 2500 0 0 2500 0 2500 -2500 0 -2500 0 0
-2500z m2814 1529 c22 -11 118 -121 297 -343 32 -41 59 -76 59 -80 0 -8 -136
-116 -146 -116 -5 1 -46 48 -92 105 -46 58 -87 105 -91 105 -4 0 -21 -72 -36
-160 -16 -88 -31 -164 -35 -170 -10 -16 -185 22 -184 40 1 8 13 84 28 169 15
84 25 156 22 158 -5 5 -37 -13 -200 -109 -26 -16 -50 -28 -51 -26 -20 20 -94
163 -88 168 23 22 460 270 475 270 9 0 28 -5 42 -11z m-583 -449 c4 -14 7 -55
8 -91 l1 -66 -92 -7 c-50 -3 -113 -6 -139 -6 -26 0 -50 -3 -53 -8 -2 -4 43
-60 100 -125 57 -65 104 -122 104 -127 0 -9 -121 -120 -131 -120 -4 0 -55 54
-114 121 -59 66 -111 117 -115 112 -4 -4 -18 -64 -30 -133 -12 -69 -25 -128
-29 -132 -8 -9 -159 16 -170 28 -5 5 4 77 19 159 15 83 35 194 45 248 12 71
24 106 40 125 l23 27 234 11 c298 14 291 15 299 -16z m1184 -237 c232 -95 262
-112 271 -150 8 -30 -74 -515 -88 -524 -8 -5 -168 18 -176 26 -2 2 6 54 17
117 31 167 31 168 23 168 -4 0 -67 -34 -141 -75 -74 -41 -141 -75 -148 -75
-10 0 -54 73 -91 152 -2 3 55 38 125 76 190 105 185 90 47 147 -66 27 -125 54
-133 61 -20 18 44 178 68 169 9 -3 111 -45 226 -92z m-703 -295 c105 -121 280
-333 289 -350 7 -14 -4 -28 -60 -73 -37 -30 -72 -55 -77 -55 -5 1 -47 48 -94
105 -71 89 -99 117 -100 103 -6 -46 -59 -330 -63 -334 -8 -8 -156 18 -172 31
-12 8 -9 38 15 175 16 90 27 166 25 168 -2 3 -26 -9 -52 -25 -127 -79 -193
-114 -202 -109 -10 7 -93 157 -89 161 2 2 66 40 143 86 77 45 176 104 220 130
61 37 90 48 122 49 38 0 45 -4 95 -62z m-1117 -184 l58 -66 -49 -45 c-27 -25
-75 -68 -106 -96 -32 -27 -58 -53 -58 -56 0 -4 70 -19 156 -33 86 -14 160 -30
164 -34 7 -8 -11 -135 -24 -170 -3 -8 -42 -4 -128 11 -187 34 -198 35 -198 22
0 -7 29 -64 65 -127 35 -63 62 -117 59 -121 -9 -15 -146 -89 -154 -84 -5 3
-63 103 -129 223 -128 230 -140 267 -103 308 30 35 372 334 380 334 5 0 35
-30 67 -66z m2125 -500 c144 -267 143 -266 128 -304 -12 -28 -379 -360 -399
-360 -12 0 -114 119 -114 132 0 7 46 52 103 101 57 49 100 93 95 97 -4 4 -75
19 -157 34 -81 14 -152 28 -156 31 -7 4 19 166 29 177 3 3 76 -7 161 -23 85
-16 159 -29 163 -29 5 0 -21 56 -57 124 -36 68 -66 128 -66 133 0 11 130 83
150 82 9 0 56 -75 120 -195z m-1216 -120 c22 -8 346 -400 346 -418 0 -15 -120
-116 -137 -116 -5 0 -42 40 -81 88 -39 48 -80 96 -91 106 -24 22 -19 36 -56
-173 -14 -79 -27 -146 -29 -149 -6 -6 -161 19 -176 28 -7 4 -1 62 18 174 16
92 26 168 23 170 -3 2 -59 -28 -123 -66 -65 -38 -122 -67 -127 -63 -13 8 -91
138 -91 151 0 5 66 49 148 97 81 47 181 107 222 132 72 43 115 54 154 39z
m-957 -300 c3 -9 1 -73 -4 -143 -6 -69 -8 -128 -6 -131 5 -5 -3 -10 153 98
l119 82 50 -67 c28 -38 50 -72 50 -78 0 -5 -58 -50 -129 -100 -72 -49 -130
-92 -130 -95 0 -3 57 -22 128 -43 70 -21 130 -41 134 -45 4 -4 -4 -45 -18 -90
-20 -67 -28 -82 -42 -78 -9 3 -118 35 -242 70 -263 76 -270 81 -270 174 0 31
7 143 15 247 8 105 15 196 15 203 0 9 24 12 85 12 69 0 87 -3 92 -16z m1469
-356 c98 -144 153 -218 156 -211 3 4 10 28 18 53 7 25 19 63 25 85 7 22 18 59
24 83 7 23 16 42 22 42 18 0 153 -40 160 -47 4 -5 -24 -114 -62 -243 -61 -205
-74 -239 -101 -264 -28 -26 -36 -28 -82 -23 -28 3 -139 11 -246 18 -107 7
-200 16 -206 21 -12 9 -7 157 6 171 4 5 67 4 140 -3 73 -6 135 -8 138 -5 3 3
-4 18 -15 34 -25 33 -146 210 -156 228 -8 12 130 116 143 108 4 -2 20 -23 36
-47z m-635 -292 c130 -87 87 -293 -68 -322 -67 -13 -155 32 -188 97 -19 35
-19 110 -1 152 41 97 166 133 257 73z"/>
</g>
</svg>
