<?xml version="1.0" encoding="utf-8"?>
<!-- Generator: Adobe Illustrator 19.2.1, SVG Export Plug-In . SVG Version: 6.00 Build 0)  -->
<svg version="1.1" id="layer" xmlns="http://www.w3.org/2000/svg" xmlns:xlink="http://www.w3.org/1999/xlink" x="0px" y="0px"
	 viewBox="0 0 652 652" style="enable-background:new 0 0 652 652;" xml:space="preserve">
<style type="text/css">
	.st0{fill:#F68B1E;}
	.st1{fill:#166397;}
</style>
<path class="st0" d="M52.7,314.9c0,2.9-2.3,5.2-5.2,5.2c-2.9,0-5.2-2.3-5.2-5.2c0-2.9,2.3-5.2,5.2-5.2
	C50.4,309.7,52.7,312.1,52.7,314.9 M65.6,312.5c0-2.6-2.1-4.8-4.8-4.8s-4.8,2.1-4.8,4.8c0,2.6,2.1,4.8,4.8,4.8
	S65.6,315.1,65.6,312.5 M77.8,316.2c0-2.4-1.9-4.3-4.3-4.3c-2.4,0-4.4,1.9-4.4,4.3c0,2.4,1.9,4.3,4.4,4.3
	C75.9,320.5,77.8,318.6,77.8,316.2 M37.8,336.8c0-3.2-2.6-5.8-5.8-5.8c-3.2,0-5.8,2.6-5.8,5.8c0,3.2,2.6,5.8,5.8,5.8
	C35.2,342.6,37.8,340,37.8,336.8 M42.7,323.4c0-3.1-2.5-5.5-5.5-5.5c-3.1,0-5.5,2.5-5.5,5.5c0,3.1,2.5,5.5,5.5,5.5
	C40.2,329,42.7,326.5,42.7,323.4 M86.7,325.5c0-2.1-1.7-3.8-3.8-3.8c-2.1,0-3.8,1.7-3.8,3.8c0,2.1,1.7,3.8,3.8,3.8
	C85,329.3,86.7,327.6,86.7,325.5 M90.4,337.2c0-1.9-1.6-3.5-3.5-3.5c-2,0-3.5,1.6-3.5,3.5c0,1.9,1.6,3.5,3.5,3.5
	C88.8,340.8,90.4,339.2,90.4,337.2 M88.2,349.2c0-1.6-1.3-3-3-3c-1.6,0-3,1.3-3,3c0,1.6,1.3,3,3,3C86.9,352.2,88.2,350.8,88.2,349.2
	 M81.7,359.9c0-1.4-1.2-2.6-2.6-2.6c-1.4,0-2.6,1.2-2.6,2.6c0,1.4,1.2,2.6,2.6,2.6C80.5,362.4,81.7,361.3,81.7,359.9 M72,365.8
	c0-1.4-1.1-2.4-2.4-2.4c-1.4,0-2.4,1.1-2.4,2.4c0,1.3,1.1,2.4,2.4,2.4C70.9,368.3,72,367.2,72,365.8 M43.1,277.2
	c0.3,1.8,1.9,3,3.7,2.8c1.8-0.3,3-1.9,2.8-3.7c-0.3-1.8-1.9-3-3.7-2.7C44.1,273.8,42.9,275.4,43.1,277.2 M34.7,276.9
	c0.2,1.6,1.8,2.8,3.4,2.5c1.6-0.2,2.8-1.8,2.5-3.4c-0.2-1.6-1.8-2.8-3.4-2.5C35.6,273.7,34.5,275.2,34.7,276.9 M27.1,280.5
	c0.2,1.5,1.6,2.5,3.1,2.3c1.5-0.2,2.5-1.6,2.3-3.1c-0.2-1.5-1.6-2.5-3.1-2.3C27.9,277.6,26.8,279,27.1,280.5 M54.7,289.7
	c0.3,2,2.2,3.4,4.2,3.1c2-0.3,3.4-2.2,3.1-4.2c-0.3-2-2.2-3.4-4.2-3.1C55.8,285.9,54.4,287.7,54.7,289.7 M50.3,281.7
	c0.3,1.9,2,3.2,4,3c1.9-0.3,3.2-2.1,3-4c-0.3-1.9-2-3.2-4-2.9C51.3,278,50,279.8,50.3,281.7 M22.4,287.1c0.2,1.3,1.4,2.3,2.8,2.1
	c1.3-0.2,2.3-1.4,2.1-2.8c-0.2-1.3-1.4-2.3-2.8-2.1C23.2,284.5,22.2,285.8,22.4,287.1 M21.1,294.9c0.2,1.2,1.3,2.1,2.6,1.9
	c1.2-0.2,2.1-1.3,1.9-2.6c-0.2-1.2-1.3-2.1-2.6-1.9C21.8,292.5,21,293.7,21.1,294.9 M23.6,302.3c0.2,1,1.1,1.8,2.2,1.6
	c1-0.2,1.8-1.1,1.6-2.2c-0.2-1-1.1-1.8-2.2-1.6C24.2,300.3,23.5,301.3,23.6,302.3 M28.8,308.5c0.1,0.9,1,1.5,1.9,1.4
	c0.9-0.1,1.5-1,1.4-1.9c-0.1-0.9-1-1.5-1.9-1.4C29.3,306.7,28.7,307.6,28.8,308.5 M35.5,311.4c0.1,0.9,0.9,1.5,1.8,1.3
	c0.9-0.1,1.5-0.9,1.3-1.8c-0.1-0.9-0.9-1.5-1.8-1.3C36,309.7,35.4,310.5,35.5,311.4"/>
<path class="st1" d="M102.7,333.8h6.6l-0.8,4.3c-0.9,4.8,4.6,6.4,9.4,6.4c6.6,0,11.3-4.1,11.3-10c0-11.5-22-7.1-22-23.5
	c0-10.6,9.1-16.2,19.2-16.2c5.9,0,15.2,2.6,13.8,9.6l-1.1,5.9h-6.6l0.6-3.8c0.7-3.7-4.1-4.9-7.7-4.9c-6.1,0-10.9,3.4-10.9,8.9
	c0,10.9,22,6.5,22,23.5c0,10.9-9.1,17.4-19.6,17.4c-6.5,0-16.8-2.9-15.3-12.2L102.7,333.8z M166.5,310.3c-12.8,0-23,11.2-23,23.9
	c0,10.2,6.6,17.2,17.2,17.2c9.5,0,15-5.8,15-5.8l-2-5.8c0,0-5.1,5.1-12.3,5.1c-6.7,0-10.8-4.4-10.8-11.3c0-9.1,7.3-16.9,15.2-16.9
	c3.4,0,7.4,1.4,6.9,4.6l-0.5,2.6h6.1l0.9-4.5C180.4,312.6,171.7,310.3,166.5,310.3 M185.4,350.5h6.9l2.6-14.6
	c1.6-9,7.6-17.8,14.2-17.8c0.9,0,1.6,0.2,1.9,0.2l1.4-7.5c-0.4-0.1-1.2-0.2-2.1-0.2c-5.7,0-10.6,4.9-13,10.5h-0.1
	c0.6-1.9,1.3-5.7,1.3-6.7c0-2.3-1.1-3.3-3.9-3.3h-8.1l-1.1,5.8h4.5c1.2,0,1.4,0.8,1.3,1.7L185.4,350.5z M219.8,336.2
	c-0.4,1.8-0.5,3.5-0.5,5c0,7.4,4.6,10.3,10.1,10.3c7.6,0,12.6-5.4,14.9-9.4h0.1c-0.5,5.9,2.4,8.6,7.2,8.6c1.7,0,3.3-0.2,3.3-0.2
	l1.1-5.8c0,0-0.6,0.2-1.7,0.2c-1.8,0-3.2-0.6-3.2-3.4c0-0.7,0.1-1.6,0.2-2.4l5-27.8h-12.9l-1.1,5.8h6l-2.1,12
	c-1.3,7.5-7.1,15.5-14.3,15.5c-4.1,0-5.4-2.1-5.4-5.5c0-1.2,0.2-2.9,0.6-4.5l4.1-23.4h-12.9l-1.1,5.8h6L219.8,336.2 M265.1,350.5
	h6.9l3.1-17.5c1.4-7.8,6.6-15.8,13.6-15.8c4,0,5.1,2.3,5.1,5.4c0,1.3-0.3,2.9-0.5,4.4l-4.2,23.5h6.9l3.2-17.9
	c1.3-7.5,6.4-15.5,13.1-15.5c4.1,0,5.3,2.3,5.3,5.7c0,3.7-3.1,16.8-3.1,20.5c0,6.7,4.7,7.4,7.9,7.4c1.7,0,3.1-0.2,3.1-0.2l1.1-5.8
	c0,0-0.7,0.2-1.7,0.2c-1.8,0-3.2-0.5-3.2-3.4c0-3.1,3.1-16.1,3.1-20.7c0-6.7-3.8-10.4-9.9-10.4c-6,0-11.4,4.2-14.2,9.6h-0.1
	c-0.4-6.2-3.3-9.6-9.1-9.6c-6.8,0-12.6,6.1-14.3,9.6h-0.1c0.5-1.4,1.1-4.4,1.1-5.4c0-2.1-1.1-3.3-3.9-3.3h-8.1l-1.1,5.8h4.5
	c1.1,0,1.4,0.6,1.3,1.6L265.1,350.5z M348.7,327.4l11.6-22.4c0.9-1.8,1.4-3.5,1.4-3.5h0.1c0,0,0,1.7,0.3,3.5l3.4,22.4H348.7z
	 M328.1,350.5h16.1l0.9-4.5h-5.7l7.2-14.1H366l2.2,14.1h-5.8l-0.8,4.5h15.8l0.8-4.5h-5.1l-7.9-50.1h-5.6L333.9,346h-5.1L328.1,350.5
	z M385.8,340.7c-0.2,1.1-0.4,2.2-0.4,3c0,6.1,4.2,7.1,7,7.1c1.1,0,2.5-0.2,2.5-0.2l0.8-4.5c0,0-0.6,0.2-1.8,0.2
	c-1.7,0-3.4-0.2-3.4-3.5c0-0.6,0.1-1.6,0.3-2.6l7.8-44.2h-11.3l-0.8,4.3h6.4L385.8,340.7 M404.8,340.7c-0.2,1.1-0.4,2.2-0.4,3
	c0,6.1,4.2,7.1,7,7.1c1.1,0,2.5-0.2,2.5-0.2l0.8-4.5c0,0-0.6,0.2-1.8,0.2c-1.7,0-3.4-0.2-3.4-3.5c0-0.6,0.1-1.6,0.3-2.6l7.8-44.2
	h-11.3l-0.8,4.3h6.4L404.8,340.7 M432.1,302.5h5.5l1.2-6.6h-5.5L432.1,302.5z M425.5,341c-0.1,1.1-0.4,2.1-0.4,2.9
	c0,6.1,4.3,6.8,7,6.8c1,0,2.5-0.2,2.5-0.2l0.8-4.3c0,0-0.6,0.2-1.8,0.2c-1.7,0-3.4-0.4-3.4-3.6c0-0.6,0.1-1.4,0.2-2.3l5.3-29h-11.3
	l-0.8,4.3h6.4L425.5,341 M453.1,347.1c-4.8,0-6.8-2.9-6.8-6.2c0-9.6,13-10.3,19-10.3h2.1l-0.4,1.7
	C465.5,339,459.8,347.1,453.1,347.1 M465.7,326.6c-9.8,0-24.3,2.6-24.3,15.1c0,6.3,4.7,9.8,10.5,9.8c8.5,0,13.3-8.4,13.2-8.4h0.1
	c-0.4,5.2,2.3,7.6,6.5,7.6c1.3,0,2.7-0.2,2.7-0.2l0.8-4.4c0,0-0.6,0.2-1.9,0.2c-1.6,0-3.3-0.4-3.3-3.6c0-3.3,3.6-16.7,3.6-21.3
	c0-7.5-4.6-10.9-11.5-10.9c-7.5,0-13.1,4-13.1,4l1.5,4.3c0,0,4.9-3.7,10.8-3.7c5.5,0,7.3,2.9,7.3,7c0,1.4-0.6,4.4-0.6,4.4H465.7
	 M484,350.5h4.9l3.2-17.9c1.6-9.2,8.7-17.1,16.4-17.1c4,0,6.2,2.1,6.2,6.5c0,4.3-3.3,18.5-3.3,22c0,5.9,4.3,6.7,6.8,6.7
	c1.2,0,2.6-0.2,2.6-0.2l0.8-4.4c0,0-0.6,0.2-1.8,0.2c-1.7,0-3.4-0.3-3.4-3.6c0-3.1,3.4-17.3,3.4-22.1c0-6.4-3.5-10-9.8-10
	c-8.8,0-14.5,7-16,10.3h-0.1c0.6-1.6,1.2-5.4,1.2-6.2c0-2-0.9-3.2-3.6-3.2h-6.9l-0.8,4.3h4.9c1.1,0,1.4,0.8,1.3,1.7L484,350.5z
	 M551.5,310.5c-11.9,0-22.6,10.6-22.6,23.9c0,10.5,6.7,17,16.5,17c9.1,0,14.5-5.8,14.5-5.8l-1.6-4.4c0,0-5.1,5.4-12.6,5.4
	c-7,0-11.8-4.7-11.8-12.6c0-10.6,8.7-18.9,17-18.9c3.5,0,8.3,1.5,7.8,5.1l-0.5,2.9h4.5l0.7-4.1C564.5,312.8,556.3,310.5,551.5,310.5
	 M574.6,327.2c2.6-7.9,8.6-12.2,14.6-12.2c4.7,0,8.2,3,8.2,9.2c0,1.6-0.3,3-0.3,3H574.6z M589.3,310.5c-12.1,0-21,11.7-21,24.5
	c0,9.9,6.4,16.5,16.3,16.5c7.6,0,13.5-5.1,13.5-5.1l-1.5-4.3c0,0-5.3,4.7-11.8,4.7c-7.6,0-11.5-5.4-11.5-12.1c0-1.9,0.4-3.6,0.4-3.6
	h27.5c0,0,1-3.3,1-6.4C602.3,316.5,598.2,310.5,589.3,310.5"/>
<path class="st1" d="M613.6,299.9c0.8,0,1.3-0.6,1.3-1.5c0-0.9-0.5-1.4-1.3-1.4h-1.3v2.9H613.6z M610.8,295.7h3.1
	c1.5,0,2.6,1.1,2.6,2.7c0,1.4-0.8,2.2-1.5,2.3v0c0,0,0.1,0.1,0.3,0.5l1.6,3.3h-1.7l-1.5-3.4h-1.3v3.4h-1.5V295.7z M613.4,307.1
	c3.5,0,6.1-3,6.1-7c0-3.9-2.7-7-6.1-7c-3.4,0-6.1,3-6.1,7C607.3,304,610,307.1,613.4,307.1 M613.4,291.5c4.3,0,7.7,3.8,7.7,8.6
	c0,4.8-3.4,8.6-7.7,8.6c-4.2,0-7.6-3.8-7.6-8.6C605.8,295.3,609.2,291.5,613.4,291.5"/>
</svg>
